<?xml version="1.0" standalone="no"?>
<!DOCTYPE svg PUBLIC "-//W3C//DTD SVG 1.1//EN" "http://www.w3.org/Graphics/SVG/1.1/DTD/svg11.dtd" >
<svg xmlns="http://www.w3.org/2000/svg" xmlns:xlink="http://www.w3.org/1999/xlink" version="1.1">
<metadata>
Created by FontForge 20170731 at Tue Oct 29 13:40:49 2019
 By Aleksey,,,
Copyright (c) 2018-2019 by TypeType. Designers Ivan Gladkikh, Pavel Emelyanov. Technical designers Marina Khodak, Vika Usmanova, Nadyr Rakhimov, Antonina Zhulkova. All rights reserved.
</metadata>
<defs>
<font id="TTCommons-Bold" horiz-adv-x="535" >
  <font-face 
    font-family="TTCommons-Bold"
    font-weight="700"
    font-stretch="normal"
    units-per-em="1000"
    panose-1="2 0 8 6 3 0 0 2 0 4"
    ascent="800"
    descent="-200"
    x-height="460"
    cap-height="630"
    bbox="-490 -290 1438 970"
    underline-thickness="50"
    underline-position="-150"
    unicode-range="U+000D-FB06"
  />
<missing-glyph horiz-adv-x="900" 
d="M100 284h45v-139h33v139h50v31h-128v126l19 -61h23l34 106l33 -106h23l54 170h-32l-34 -110l-35 110h-19l-35 -110l-31 103v157h700v-150h-110v-170h110v-91q-13 27 -50 27q-29 0 -44.5 -14.5t-15.5 -34.5q0 -22 13.5 -32t30 -15t30.5 -9.5t14 -16.5q0 -14 -9.5 -17.5
t-18.5 -3.5q-15 0 -21.5 7.5t-6.5 17.5h-33q0 -24 16.5 -39.5t44.5 -15.5q20 0 32.5 7.5t17.5 12.5v-163h-700v284zM328 143q38 0 60 25t22 61q0 37 -22.5 62t-59.5 25t-59.5 -25t-22.5 -62q0 -36 22 -61t60 -25zM328 174q-23 0 -37 16t-14 39q0 24 13.5 40t37.5 16
t37.5 -16t13.5 -40q0 -23 -14 -39t-37 -16zM549 315h-32v-106q0 -29 19.5 -47.5t48.5 -18.5t48 18.5t19 47.5v106h-32v-106q0 -15 -9 -25t-26 -10q-18 0 -27 11t-9 24v106zM344 380v62h24l35 -62h37l-40 67q36 16 36 50q0 21 -15.5 37t-41.5 16h-68v-170h33zM344 519h35
q10 0 17 -6t7 -17q0 -13 -8 -18t-16 -5h-35v46zM502 380v170h-33v-170h33zM800 262v-38q-11 10 -24 14.5t-24.5 8.5t-19.5 8t-8 12q0 9 7.5 14.5t18.5 5.5q10 0 18 -6.5t8 -18.5h24zM612 380v139h50v31h-132v-31h50v-139h32zM722 452h78v-41h-78v41zM722 519h78v-36h-78v36z
" />
    <glyph glyph-name="uniFB00" unicode="ff" horiz-adv-x="610" 
d="M80 315h-60v125h60q0 87 43 131t122 44q14 0 26 -1.5t21 -3.5q10 -3 18 -5v-120l-10 2t-11 2t-14 1q-19 0 -30.5 -8t-18.5 -17q-8 -11 -11 -25h140v25q0 83 43 126.5t122 43.5q14 0 26 -1.5t21 -3.5q10 -3 18 -5v-120l-10 2t-11 2t-14 1q-26 0 -43 -17.5t-17 -47.5v-5h95
v-125h-95v-315h-135v315h-140v-315h-135v315z" />
    <glyph glyph-name="uniFB01" unicode="fi" horiz-adv-x="550" 
d="M80 315h-60v125h60v25q0 83 43 126.5t122 43.5q14 0 26 -1.5t21 -3.5q10 -3 18 -5v-120l-10 2t-11 2t-14 1q-26 0 -43 -17.5t-17 -47.5v-5h275v-440h-135v315h-140v-315h-135v315zM425 485q-30 0 -52.5 22.5t-22.5 52.5t22.5 52.5t52.5 22.5t52.5 -22.5t22.5 -52.5
t-22.5 -52.5t-52.5 -22.5z" />
    <glyph glyph-name="uniFB02" unicode="fl" horiz-adv-x="540" 
d="M80 315h-60v125h65q0 49 13.5 87t37.5 64t57 40t72 14q20 0 37 -2.5t29 -5.5q14 -4 24 -7h135v-630h-135v510l-15 5q-8 2 -19 3.5t-26 1.5q-34 0 -57 -23t-23 -57h95v-125h-95v-315h-135v315z" />
    <glyph glyph-name="uniFB03" unicode="ffi" horiz-adv-x="825" 
d="M80 315h-60v125h60q0 87 43 131t122 44q14 0 26 -1.5t21 -3.5q10 -3 18 -5v-120l-10 2t-11 2t-14 1q-19 0 -30.5 -8t-18.5 -17q-8 -11 -11 -25h140v25q0 83 43 126.5t122 43.5q14 0 26 -1.5t21 -3.5q10 -3 18 -5v-120l-10 2t-11 2t-14 1q-26 0 -43 -17.5t-17 -47.5v-5
h275v-440h-135v315h-140v-315h-135v315h-140v-315h-135v315zM700 485q-30 0 -52.5 22.5t-22.5 52.5t22.5 52.5t52.5 22.5t52.5 -22.5t22.5 -52.5t-22.5 -52.5t-52.5 -22.5z" />
    <glyph glyph-name="uniFB04" unicode="ffl" horiz-adv-x="815" 
d="M80 315h-60v125h60q0 87 43 131t122 44q14 0 26 -1.5t21 -3.5q10 -3 18 -5v-120l-10 2t-11 2t-14 1q-19 0 -30.5 -8t-18.5 -17q-8 -11 -11 -25h145q0 49 13.5 87t37.5 64t57 40t72 14q20 0 37 -2.5t29 -5.5q14 -4 24 -7h135v-630h-135v510l-15 5q-8 2 -19 3.5t-26 1.5
q-34 0 -57 -23t-23 -57h95v-125h-95v-315h-135v315h-140v-315h-135v315z" />
    <glyph glyph-name="f_f_j.liga" unicode="ffj" horiz-adv-x="825" 
d="M600 -165q-26 0 -46 5q-11 2 -19 5v120q5 -2 10 -3t11 -1.5t14 -0.5q26 0 43 17.5t17 47.5v290h-140v-315h-135v315h-140v-315h-135v315h-60v125h60q0 87 43 131t122 44q14 0 26 -1.5t21 -3.5q10 -3 18 -5v-120l-10 2t-11 2t-14 1q-19 0 -30.5 -8t-18.5 -17
q-8 -11 -11 -25h140v25q0 83 43 126.5t122 43.5q14 0 26 -1.5t21 -3.5q10 -3 18 -5v-120l-10 2t-11 2t-14 1q-26 0 -43 -17.5t-17 -47.5v-5h275v-435q0 -83 -43 -126.5t-122 -43.5zM700 485q-30 0 -52.5 22.5t-22.5 52.5t22.5 52.5t52.5 22.5t52.5 -22.5t22.5 -52.5
t-22.5 -52.5t-52.5 -22.5z" />
    <glyph glyph-name="f_j.liga" unicode="fj" horiz-adv-x="550" 
d="M325 -165q-26 0 -46 5q-11 2 -19 5v120q5 -2 10 -3t11 -1.5t14 -0.5q26 0 43 17.5t17 47.5v290h-140v-315h-135v315h-60v125h60v25q0 83 43 126.5t122 43.5q14 0 26 -1.5t21 -3.5q10 -3 18 -5v-120l-10 2t-11 2t-14 1q-26 0 -43 -17.5t-17 -47.5v-5h275v-435
q0 -83 -43 -126.5t-122 -43.5zM425 485q-30 0 -52.5 22.5t-22.5 52.5t22.5 52.5t52.5 22.5t52.5 -22.5t22.5 -52.5t-22.5 -52.5t-52.5 -22.5z" />
    <glyph glyph-name=".notdef" horiz-adv-x="900" 
d="M100 284h45v-139h33v139h50v31h-128v126l19 -61h23l34 106l33 -106h23l54 170h-32l-34 -110l-35 110h-19l-35 -110l-31 103v157h700v-150h-110v-170h110v-91q-13 27 -50 27q-29 0 -44.5 -14.5t-15.5 -34.5q0 -22 13.5 -32t30 -15t30.5 -9.5t14 -16.5q0 -14 -9.5 -17.5
t-18.5 -3.5q-15 0 -21.5 7.5t-6.5 17.5h-33q0 -24 16.5 -39.5t44.5 -15.5q20 0 32.5 7.5t17.5 12.5v-163h-700v284zM328 143q38 0 60 25t22 61q0 37 -22.5 62t-59.5 25t-59.5 -25t-22.5 -62q0 -36 22 -61t60 -25zM328 174q-23 0 -37 16t-14 39q0 24 13.5 40t37.5 16
t37.5 -16t13.5 -40q0 -23 -14 -39t-37 -16zM549 315h-32v-106q0 -29 19.5 -47.5t48.5 -18.5t48 18.5t19 47.5v106h-32v-106q0 -15 -9 -25t-26 -10q-18 0 -27 11t-9 24v106zM344 380v62h24l35 -62h37l-40 67q36 16 36 50q0 21 -15.5 37t-41.5 16h-68v-170h33zM344 519h35
q10 0 17 -6t7 -17q0 -13 -8 -18t-16 -5h-35v46zM502 380v170h-33v-170h33zM800 262v-38q-11 10 -24 14.5t-24.5 8.5t-19.5 8t-8 12q0 9 7.5 14.5t18.5 5.5q10 0 18 -6.5t8 -18.5h24zM612 380v139h50v31h-132v-31h50v-139h32zM722 452h78v-41h-78v41zM722 519h78v-36h-78v36z
" />
    <glyph glyph-name="glyph1" horiz-adv-x="0" 
 />
    <glyph glyph-name="glyph1" horiz-adv-x="0" 
 />
    <glyph glyph-name="uni000D" unicode="&#xd;" horiz-adv-x="0" 
 />
    <glyph glyph-name="space" unicode=" " horiz-adv-x="230" 
 />
    <glyph glyph-name="exclam" unicode="!" horiz-adv-x="280" 
d="M140 -5q-30 0 -52.5 22.5t-22.5 52.5t22.5 52.5t52.5 22.5t52.5 -22.5t22.5 -52.5t-22.5 -52.5t-52.5 -22.5zM60 630h160l-15 -440h-130z" />
    <glyph glyph-name="quotedbl" unicode="&#x22;" horiz-adv-x="405" 
d="M50 630h125v-205h-125v205zM230 630h125v-205h-125v205z" />
    <glyph glyph-name="numbersign" unicode="#" horiz-adv-x="650" 
d="M130 150h-120l25 110h115l20 110h-115l25 110h110l30 150h110l-30 -150h110l30 150h110l-30 -150h120l-25 -110h-115l-20 -110h115l-25 -110h-110l-30 -150h-110l30 150h-110l-30 -150h-110zM370 260l20 110h-110l-20 -110h110z" />
    <glyph glyph-name="dollar" unicode="$" horiz-adv-x="525" 
d="M200 0q-83 15 -126.5 70t-43.5 130l140 10q0 -85 90 -85q42 0 63.5 19.5t21.5 45.5q0 24 -23 37t-57.5 24t-74.5 23t-74.5 33.5t-57.5 56.5t-23 91q0 32 11.5 60.5t33.5 51.5t52 39t68 24v85h130v-90q34 -8 61.5 -25.5t47 -42.5t30.5 -56t11 -66l-140 -10q0 38 -21 59
t-59 21q-34 0 -54.5 -18.5t-20.5 -41.5t23 -35t57.5 -22.5t74.5 -22.5t74.5 -34t57.5 -58t23 -93q0 -32 -11.5 -61t-33.5 -53t-52.5 -41.5t-67.5 -24.5v-85h-130v85z" />
    <glyph glyph-name="percent" unicode="%" horiz-adv-x="660" 
d="M465 630h115l-385 -630h-115zM490 -5q-30 0 -55.5 10.5t-44.5 29.5t-29.5 44.5t-10.5 55.5t10.5 55.5t29.5 44.5t44.5 29.5t55.5 10.5t55.5 -10.5t44.5 -29.5t29.5 -44.5t10.5 -55.5t-10.5 -55.5t-29.5 -44.5t-44.5 -29.5t-55.5 -10.5zM490 80q23 0 39 16t16 39t-16 39
t-39 16t-39 -16t-16 -39t16 -39t39 -16zM170 355q-30 0 -55.5 10.5t-44.5 29.5t-29.5 44.5t-10.5 55.5t10.5 55.5t29.5 44.5t44.5 29.5t55.5 10.5t55.5 -10.5t44.5 -29.5t29.5 -44.5t10.5 -55.5t-10.5 -55.5t-29.5 -44.5t-44.5 -29.5t-55.5 -10.5zM170 440q23 0 39 16t16 39
t-16 39t-39 16t-39 -16t-16 -39t16 -39t39 -16z" />
    <glyph glyph-name="ampersand" unicode="&#x26;" horiz-adv-x="585" 
d="M220 -10q-45 0 -80.5 12.5t-59.5 34t-37 50.5t-13 63q0 43 17.5 76t39.5 55q26 26 58 44l-30 35q-6 7 -15 18t-16.5 25.5t-13 33.5t-5.5 43q0 30 13.5 58t36.5 49.5t55 34.5t70 13q37 0 69.5 -13t55.5 -34.5t36.5 -49.5t13.5 -58q0 -24 -6 -43t-14.5 -33t-18 -23.5
t-16.5 -15.5l-50 -40l80 -80l45 65h155l-110 -155l155 -155h-165l-65 65q-21 -21 -48 -38q-23 -14 -57.5 -25.5t-79.5 -11.5zM235 120q17 0 30.5 6t23.5 14q11 9 21 20l-90 90q-13 -10 -23 -21q-8 -10 -15 -23.5t-7 -30.5q0 -23 17 -39t43 -16zM235 395q26 19 40.5 35.5
t14.5 39.5q0 26 -13.5 40.5t-36.5 14.5t-36.5 -14.5t-13.5 -40.5q0 -23 13 -39.5t32 -35.5z" />
    <glyph glyph-name="quotesingle" unicode="'" horiz-adv-x="225" 
d="M50 630h125v-205h-125v205z" />
    <glyph glyph-name="parenleft" unicode="(" horiz-adv-x="315" 
d="M190 -210q-42 54 -75 122q-29 58 -52 137t-23 176q0 96 23 175.5t52 137.5q33 68 75 122l105 -70q-32 -48 -58 -106q-22 -50 -39.5 -116t-17.5 -143q0 -78 17.5 -144.5t39.5 -115.5q26 -58 58 -105l-105 -70v0z" />
    <glyph glyph-name="parenright" unicode=")" horiz-adv-x="315" 
d="M20 -140q31 47 57 105q22 49 40 115.5t18 144.5q0 77 -18 143t-40 116q-26 58 -57 106l105 70q42 -54 75 -122q28 -58 51.5 -137.5t23.5 -175.5q0 -97 -23.5 -176t-51.5 -137q-33 -68 -75 -122z" />
    <glyph glyph-name="asterisk" unicode="*" horiz-adv-x="360" 
d="M55 385l65 80l-95 25l25 80l90 -35l-5 100h90l-5 -100l90 35l25 -80l-95 -25l65 -80l-70 -50l-55 85l-55 -85z" />
    <glyph glyph-name="plus" unicode="+" horiz-adv-x="465" 
d="M170 195h-140v120h140v145h125v-145h140v-120h-140v-145h-125v145z" />
    <glyph glyph-name="comma" unicode="," horiz-adv-x="210" 
d="M55 -75q11 7 21 18q8 9 16.5 22t12.5 30q-30 0 -52.5 22.5t-22.5 52.5t22.5 52.5t52.5 22.5t52.5 -23t22.5 -57q0 -48 -15.5 -80.5t-34.5 -53.5q-22 -25 -50 -41z" />
    <glyph glyph-name="hyphen" unicode="-" horiz-adv-x="375" 
d="M35 315h305v-120h-305v120z" />
    <glyph glyph-name="period" unicode="." horiz-adv-x="210" 
d="M105 -5q-30 0 -52.5 22.5t-22.5 52.5t22.5 52.5t52.5 22.5t52.5 -22.5t22.5 -52.5t-22.5 -52.5t-52.5 -22.5z" />
    <glyph glyph-name="slash" unicode="/" horiz-adv-x="390" 
d="M260 630h130l-260 -810h-130z" />
    <glyph glyph-name="zero" unicode="0" horiz-adv-x="610" 
d="M305 -5q-56 0 -105.5 22t-86 63t-57.5 100.5t-21 134.5t21 134.5t57.5 100.5t86 63t105.5 22t105.5 -22t86 -63t57.5 -100.5t21 -134.5t-21 -134.5t-57.5 -100.5t-86 -63t-105.5 -22zM305 135q24 0 47 11t40 33.5t27.5 56.5t10.5 79t-10.5 78.5t-27.5 56t-40 34t-47 11.5
t-47 -11.5t-40 -34t-27.5 -56t-10.5 -78.5t10.5 -79t27.5 -56.5t40 -33.5t47 -11z" />
    <glyph glyph-name="one" unicode="1" horiz-adv-x="345" 
d="M140 450l-65 -45l-70 110l165 115h115v-630h-145v450z" />
    <glyph glyph-name="two" unicode="2" horiz-adv-x="510" 
d="M35 100l230 240q15 16 27 33q11 14 19.5 32t8.5 35q0 30 -18 47.5t-52 17.5q-38 0 -59 -21t-21 -59l-140 10q0 43 15.5 79.5t44 63.5t69 42t91.5 15q52 0 93 -14t69.5 -39.5t43 -60.5t14.5 -76q0 -36 -15.5 -68.5t-34.5 -57.5q-22 -29 -50 -54l-120 -125h220v-140h-435
v100z" />
    <glyph glyph-name="three" unicode="3" horiz-adv-x="515" 
d="M255 -5q-54 0 -97 15t-73 40t-46.5 58.5t-18.5 71.5l145 10q4 -26 25.5 -45.5t59.5 -19.5q42 0 63.5 20t21.5 50q0 26 -22.5 45.5t-67.5 19.5h-60v120h60q42 0 61 17t19 43t-21 45.5t-59 19.5q-34 0 -52.5 -17t-22.5 -43l-145 10q2 36 18.5 68.5t45.5 57t69.5 39.5
t91.5 15t91.5 -14.5t69 -39t44 -56t15.5 -65.5t-13.5 -58.5t-29.5 -40.5q-18 -18 -42 -31q28 -13 50 -34q19 -18 34.5 -48t15.5 -73q0 -36 -15.5 -68.5t-45 -57t-72.5 -39.5t-97 -15z" />
    <glyph glyph-name="four" unicode="4" horiz-adv-x="525" 
d="M295 110h-275v130l248 390h172v-380h65v-140h-65v-110h-145v110zM295 250v200l-125 -200h125z" />
    <glyph glyph-name="five" unicode="5" horiz-adv-x="530" 
d="M265 -5q-49 0 -89 15t-69.5 39.5t-47.5 57t-24 68.5l145 10q5 -17 16 -30q9 -11 26 -20.5t43 -9.5q38 0 64 26t26 64t-26 64t-64 26q-25 0 -41 -8t-26 -17q-11 -11 -18 -25h-130l40 375h365v-140h-244l-11 -85q11 7 24 12q11 5 26.5 9t34.5 4q45 0 84 -16.5t68.5 -46
t46 -68.5t16.5 -84q0 -47 -17 -87t-48 -69.5t-74.5 -46.5t-95.5 -17z" />
    <glyph glyph-name="six" unicode="6" horiz-adv-x="530" 
d="M265 -5q-53 0 -96 17t-74 46.5t-48 69.5t-17 87q0 34 9.5 65t20.5 54q13 27 30 51l165 245h150l-135 -200q45 4 86.5 -11t73.5 -44t51 -70t19 -90q0 -47 -17 -87t-48 -69.5t-74.5 -46.5t-95.5 -17zM265 120q38 0 64 26.5t26 68.5t-26 68.5t-64 26.5t-64 -26.5t-26 -68.5
t26 -68.5t64 -26.5z" />
    <glyph glyph-name="seven" unicode="7" horiz-adv-x="480" 
d="M290 490h-255v140h420v-115l-240 -515h-156z" />
    <glyph glyph-name="eight" unicode="8" horiz-adv-x="530" 
d="M265 -5q-54 0 -97.5 15.5t-74 42t-47 60.5t-16.5 72q0 42 15.5 71t34.5 48q22 22 50 36q-21 13 -38 31q-14 16 -25.5 39t-11.5 55q0 34 14.5 64.5t41.5 54t66 37.5t88 14t88 -14t66 -37.5t41.5 -54t14.5 -64.5q0 -32 -12 -55t-26 -39q-17 -18 -37 -31q28 -14 50 -36
q19 -19 34.5 -48t15.5 -71q0 -38 -16.5 -72t-47 -60.5t-74 -42t-97.5 -15.5zM265 115q42 0 66 23t24 57t-24 57t-66 23t-66 -23t-24 -57t24 -57t66 -23zM265 395q30 0 50 17t20 43t-20 43t-50 17q-34 0 -52 -18.5t-18 -41.5q0 -26 20 -43t50 -17z" />
    <glyph glyph-name="nine" unicode="9" horiz-adv-x="530" 
d="M260 200q-45 -4 -86.5 11t-73.5 44t-51 70t-19 90q0 47 17 87t48 69.5t74 46.5t96 17q52 0 95.5 -17t74.5 -46.5t48 -69.5t17 -87q0 -34 -9.5 -65t-20.5 -54q-13 -27 -30 -51l-165 -245h-150zM265 320q38 0 64 26.5t26 68.5t-26 68.5t-64 26.5t-64 -26.5t-26 -68.5
t26 -68.5t64 -26.5z" />
    <glyph glyph-name="colon" unicode=":" horiz-adv-x="210" 
d="M105 -5q-30 0 -52.5 22.5t-22.5 52.5t22.5 52.5t52.5 22.5t52.5 -22.5t22.5 -52.5t-22.5 -52.5t-52.5 -22.5zM105 315q-30 0 -52.5 22.5t-22.5 52.5t22.5 52.5t52.5 22.5t52.5 -22.5t22.5 -52.5t-22.5 -52.5t-52.5 -22.5z" />
    <glyph glyph-name="semicolon" unicode=";" horiz-adv-x="210" 
d="M55 -75q11 7 21 18q8 9 16.5 22t12.5 30q-30 0 -52.5 22.5t-22.5 52.5t22.5 52.5t52.5 22.5t52.5 -23t22.5 -57q0 -48 -15.5 -80.5t-34.5 -53.5q-22 -25 -50 -41zM105 315q-30 0 -52.5 22.5t-22.5 52.5t22.5 52.5t52.5 22.5t52.5 -22.5t22.5 -52.5t-22.5 -52.5
t-52.5 -22.5z" />
    <glyph glyph-name="less" unicode="&#x3c;" horiz-adv-x="460" 
d="M40 170v110l380 170v-125l-230 -100l230 -100v-125z" />
    <glyph glyph-name="equal" unicode="=" horiz-adv-x="460" 
d="M35 215h390v-125h-390v125zM35 420h390v-125h-390v125z" />
    <glyph glyph-name="greater" unicode="&#x3e;" horiz-adv-x="460" 
d="M40 125l230 100l-230 100v125l380 -170v-110l-380 -170v125z" />
    <glyph glyph-name="question" unicode="?" horiz-adv-x="465" 
d="M230 -5q-30 0 -52.5 22.5t-22.5 52.5t22.5 52.5t52.5 22.5t52.5 -22.5t22.5 -52.5t-22.5 -52.5t-52.5 -22.5zM155 190q0 42 10 72.5t25 52.5t32.5 38t32.5 30.5t25 28.5t10 33q0 26 -17.5 43t-47.5 17q-26 0 -45.5 -21.5t-19.5 -63.5l-145 10q8 94 63.5 149.5t146.5 55.5
q51 0 90.5 -14t67.5 -38t42.5 -55.5t14.5 -67.5q0 -34 -10.5 -57.5t-26 -42.5t-34 -35t-34.5 -35t-27.5 -42.5t-12.5 -57.5h-140z" />
    <glyph glyph-name="at" unicode="@" horiz-adv-x="760" 
d="M380 -110q-73 0 -136 26t-109.5 71t-73 106t-26.5 132q0 70 26.5 131t73 106.5t109.5 71.5t136 26q75 0 139 -25.5t111 -70t73.5 -103.5t26.5 -126q0 -43 -12 -77.5t-33 -58.5t-48 -36.5t-57 -12.5q-29 0 -49 9.5t-34 20.5q-16 13 -27 30q-13 -17 -30 -30
q-15 -11 -36 -20.5t-49 -9.5q-32 0 -60 12.5t-49 35.5t-33.5 55.5t-12.5 71.5t12.5 71.5t33.5 55.5t49 35.5t60 12.5q19 0 34.5 -7.5t26.5 -15.5q13 -10 24 -22l15 35h80v-175q0 -42 13 -58.5t32 -16.5q23 0 39 21t16 74q0 49 -19.5 93t-53.5 76.5t-81 51.5t-101 19
q-53 0 -98.5 -19.5t-79.5 -53t-53 -79.5t-19 -98q0 -53 19 -98.5t53 -79.5t79.5 -53t98.5 -19q32 0 58 7t45 16q22 10 40 23q14 -17 26 -35.5t25 -36.5q-23 -17 -53 -30q-26 -11 -61 -20t-80 -9zM370 140q30 0 52.5 23.5t22.5 61.5t-22.5 61.5t-52.5 23.5t-52.5 -23.5
t-22.5 -61.5t22.5 -61.5t52.5 -23.5z" />
    <glyph glyph-name="A" unicode="A" horiz-adv-x="590" 
d="M220 630h150l225 -630h-150l-40 120h-220l-40 -120h-150zM365 245l-70 210l-70 -210h140z" />
    <glyph glyph-name="B" unicode="B" horiz-adv-x="580" 
d="M60 630h270q43 0 79 -14t61.5 -38t40 -55.5t14.5 -67.5q0 -32 -12 -55t-26 -37q-17 -17 -37 -28q28 -13 50 -34q19 -18 34.5 -46t15.5 -70q0 -38 -15 -71.5t-42.5 -58.5t-65 -40t-82.5 -15h-285v630zM330 120q34 0 57 22.5t23 52.5t-23 52.5t-57 22.5h-125v-150h125z
M315 380q30 0 50 19.5t20 45.5t-20 45.5t-50 19.5h-110v-130h110z" />
    <glyph glyph-name="C" unicode="C" horiz-adv-x="650" 
d="M340 -5q-64 0 -120.5 24.5t-98.5 68t-66.5 101.5t-24.5 126q0 67 24.5 125.5t66.5 102t98.5 68t120.5 24.5q56 0 103.5 -18.5t84 -49t61.5 -71.5t36 -86l-150 -10q-6 19 -17 36t-28 30t-39.5 21t-50.5 8q-34 0 -64 -13.5t-52.5 -37.5t-35.5 -57t-13 -72t13 -72t35.5 -57
t52.5 -37.5t64 -13.5q60 0 94.5 28.5t45.5 66.5l150 -10q-11 -45 -36 -86t-62 -71.5t-85.5 -49t-106.5 -18.5z" />
    <glyph glyph-name="D" unicode="D" horiz-adv-x="620" 
d="M60 630h215q66 0 123 -24.5t100 -67.5t67.5 -100t24.5 -123t-24.5 -123t-67.5 -100t-100 -67.5t-123 -24.5h-215v630zM275 140q36 0 67 13.5t54 36.5t36 55t13 70q0 37 -13 69.5t-36 55.5t-54 36.5t-67 13.5h-70v-350h70z" />
    <glyph glyph-name="E" unicode="E" horiz-adv-x="560" 
d="M60 630h450v-140h-305v-100h280v-140h-280v-110h315v-140h-460v630z" />
    <glyph glyph-name="F" unicode="F" horiz-adv-x="520" 
d="M60 630h435v-140h-290v-130h235v-140h-235v-220h-145v630z" />
    <glyph glyph-name="G" unicode="G" horiz-adv-x="695" 
d="M340 -5q-64 0 -120.5 24.5t-98.5 68t-66.5 101.5t-24.5 126q0 67 24.5 125.5t66.5 102t98.5 68t120.5 24.5q56 0 103.5 -18t84 -48.5t61.5 -70.5t36 -83l-150 -10q-6 17 -17 33t-28 29t-39.5 20.5t-50.5 7.5q-34 0 -64 -13.5t-52.5 -37.5t-35.5 -57t-13 -72t13 -72
t35.5 -57t52.5 -37.5t64 -13.5q30 0 53.5 7.5t41 20t28.5 27.5t17 30h-140v120h305v-340h-100l-25 60q-22 -19 -49 -33q-23 -12 -56 -22t-75 -10z" />
    <glyph glyph-name="H" unicode="H" horiz-adv-x="650" 
d="M60 630h145v-240h240v240h145v-630h-145v250h-240v-250h-145v630z" />
    <glyph glyph-name="I" unicode="I" horiz-adv-x="265" 
d="M60 630h145v-630h-145v630z" />
    <glyph glyph-name="J" unicode="J" horiz-adv-x="485" 
d="M220 -5q-49 0 -88.5 15t-67.5 42.5t-43.5 65t-15.5 82.5q18 1 42.5 2.5t47.5 3.5q26 2 55 4q0 -34 20 -54.5t50 -20.5t50 20.5t20 54.5v420h145v-420q0 -49 -15.5 -88.5t-43.5 -67.5t-67.5 -43.5t-88.5 -15.5z" />
    <glyph glyph-name="K" unicode="K" horiz-adv-x="565" 
d="M60 630h145v-270l190 270h165l-222 -310l237 -320h-165l-205 280v-280h-145v630z" />
    <glyph glyph-name="L" unicode="L" horiz-adv-x="500" 
d="M60 630h145v-490h285v-140h-430v630z" />
    <glyph glyph-name="M" unicode="M" horiz-adv-x="790" 
d="M60 630h130l205 -445l205 445h130v-630h-145v315l-145 -315h-90l-145 315v-315h-145v630z" />
    <glyph glyph-name="N" unicode="N" horiz-adv-x="650" 
d="M60 630h130l255 -370v370h145v-630h-130l-255 370v-370h-145v630z" />
    <glyph glyph-name="O" unicode="O" horiz-adv-x="680" 
d="M340 -5q-64 0 -120.5 24.5t-98.5 68t-66.5 101.5t-24.5 126q0 67 24.5 125.5t66.5 102t98.5 68t120.5 24.5t120.5 -24.5t98.5 -68t66.5 -102t24.5 -125.5q0 -68 -24.5 -126t-66.5 -101.5t-98.5 -68t-120.5 -24.5zM340 135q34 0 64 13.5t52.5 37.5t35.5 57t13 72t-13 72
t-35.5 57t-52.5 37.5t-64 13.5t-64 -13.5t-52.5 -37.5t-35.5 -57t-13 -72t13 -72t35.5 -57t52.5 -37.5t64 -13.5z" />
    <glyph glyph-name="P" unicode="P" horiz-adv-x="560" 
d="M60 630h245q49 0 90 -16.5t71 -46t47 -68.5t17 -84t-17 -84t-47 -68.5t-71 -46t-90 -16.5h-100v-200h-145v630zM305 340q34 0 57 22.5t23 52.5t-23 52.5t-57 22.5h-100v-150h100z" />
    <glyph glyph-name="Q" unicode="Q" horiz-adv-x="680" 
d="M505 45q-19 -14 -45 -25q-22 -10 -52 -17.5t-68 -7.5q-64 0 -120.5 24.5t-98.5 68t-66.5 101.5t-24.5 126q0 67 24.5 125.5t66.5 102t98.5 68t120.5 24.5t120.5 -24.5t98.5 -68t66.5 -102t24.5 -125.5q0 -44 -9.5 -78.5t-20.5 -59.5q-13 -29 -30 -52l60 -60l-80 -85z
M340 135q25 0 43 5q10 2 17 5l-65 65l80 85l70 -70q6 13 10 28q4 13 7 29t3 33q0 39 -13 72t-35.5 57t-52.5 37.5t-64 13.5t-64 -13.5t-52.5 -37.5t-35.5 -57t-13 -72t13 -72t35.5 -57t52.5 -37.5t64 -13.5z" />
    <glyph glyph-name="R" unicode="R" horiz-adv-x="570" 
d="M60 630h255q49 0 89.5 -16t69.5 -43t45 -63.5t16 -77.5q0 -53 -18.5 -89t-41 -58.5t-41.5 -32.5l-19 -10l140 -240h-160l-115 210h-75v-210h-145v630zM315 350q38 0 59 20t21 50t-21 50t-59 20h-110v-140h110z" />
    <glyph glyph-name="S" unicode="S" horiz-adv-x="525" 
d="M260 -5q-54 0 -97 15t-72.5 42.5t-45 65t-15.5 82.5l140 10q0 -85 90 -85q42 0 63.5 19.5t21.5 45.5q0 24 -23 37t-57.5 24t-74.5 23t-74.5 33.5t-57.5 56.5t-23 91q0 36 15.5 68.5t44.5 57t70.5 39.5t94.5 15q51 0 91.5 -15t69 -42t44 -63.5t15.5 -79.5l-140 -10
q0 38 -21 59t-59 21q-34 0 -54.5 -18.5t-20.5 -41.5t23 -35t57.5 -22.5t74.5 -22.5t74.5 -34t57.5 -58t23 -93q0 -38 -15.5 -71.5t-45.5 -58.5t-74 -40t-100 -15z" />
    <glyph glyph-name="T" unicode="T" horiz-adv-x="525" 
d="M190 490h-180v140h505v-140h-180v-490h-145v490z" />
    <glyph glyph-name="U" unicode="U" horiz-adv-x="620" 
d="M310 -5q-58 0 -106 19t-82 53t-53 82t-19 106v375h145v-375q0 -57 31 -88.5t84 -31.5t84 31.5t31 88.5v375h145v-375q0 -58 -19 -106t-53 -82t-82 -53t-106 -19z" />
    <glyph glyph-name="V" unicode="V" horiz-adv-x="590" 
d="M5 630h150l140 -435l140 435h150l-215 -630h-150z" />
    <glyph glyph-name="W" unicode="W" horiz-adv-x="860" 
d="M5 630h140l120 -390l120 390h90l120 -390l120 390h140l-200 -630h-110l-115 370l-115 -370h-110z" />
    <glyph glyph-name="X" unicode="X" horiz-adv-x="580" 
d="M200 320l-190 310h160l120 -205l120 205h160l-190 -310l200 -320h-160l-130 215l-130 -215h-160z" />
    <glyph glyph-name="Y" unicode="Y" horiz-adv-x="565" 
d="M210 235l-210 395h155l128 -250l127 250h155l-210 -395v-235h-145v235z" />
    <glyph glyph-name="Z" unicode="Z" horiz-adv-x="530" 
d="M30 120l270 370h-260v140h445v-120l-270 -370h285v-140h-470v120z" />
    <glyph glyph-name="bracketleft" unicode="[" horiz-adv-x="325" 
d="M60 630h240v-140h-100v-530h100v-140h-240v810z" />
    <glyph glyph-name="backslash" unicode="\" horiz-adv-x="390" 
d="M0 630h130l260 -810h-130z" />
    <glyph glyph-name="bracketright" unicode="]" horiz-adv-x="325" 
d="M25 -40h100v530h-100v140h240v-810h-240v140z" />
    <glyph glyph-name="asciicircum" unicode="^" horiz-adv-x="420" 
d="M170 630h80l145 -295h-115l-70 145l-70 -145h-115z" />
    <glyph glyph-name="underscore" unicode="_" horiz-adv-x="290" 
d="M-20 -75h330v-120h-330v120z" />
    <glyph glyph-name="grave" unicode="`" horiz-adv-x="260" 
d="M30 635h135l65 -130h-105z" />
    <glyph glyph-name="a" unicode="a" horiz-adv-x="485" 
d="M185 -5q-75 0 -115 36.5t-40 93.5q0 34 13.5 62.5t45.5 49t84.5 32t131.5 11.5q0 34 -17 52t-43 18q-19 0 -30.5 -7.5t-18.5 -15.5q-8 -10 -11 -22l-135 10q6 34 21 62.5t39.5 49t59.5 32t80 11.5q41 0 76 -14t60.5 -39.5t39.5 -60.5t14 -76v-280h-100l-20 45
q-17 -14 -38 -25q-18 -10 -42.5 -17.5t-54.5 -7.5zM220 95q38 0 61.5 23.5t23.5 61.5v20q-43 0 -70.5 -4.5t-43 -12.5t-21 -19t-5.5 -24q0 -19 14.5 -32t40.5 -13z" />
    <glyph glyph-name="b" unicode="b" horiz-adv-x="545" 
d="M300 -5q-30 0 -54 7.5t-41 17.5q-20 11 -35 25l-20 -45h-100v630h135v-205q13 11 31 20q15 8 36.5 14t47.5 6q43 0 82 -17.5t68.5 -49t47 -74.5t17.5 -94t-17.5 -94t-47 -74.5t-68.5 -49t-82 -17.5zM280 120q42 0 71 30.5t29 79.5t-29 79.5t-71 30.5t-71 -30.5t-29 -79.5
t29 -79.5t71 -30.5z" />
    <glyph glyph-name="c" unicode="c" horiz-adv-x="510" 
d="M265 -10q-49 0 -91.5 18.5t-74.5 51t-50.5 76t-18.5 94.5t18.5 94.5t50.5 76t74.5 51t91.5 18.5q34 0 62 -7.5t50 -20.5t38.5 -29t28.5 -33q28 -40 41 -90l-135 -10q-7 18 -18 32q-10 12 -26.5 22.5t-40.5 10.5q-42 0 -71 -31t-29 -84t29 -84t71 -31q24 0 40.5 10
t26.5 22q11 14 18 33l135 -10q-13 -50 -41 -90q-12 -17 -28.5 -33t-38.5 -29t-50 -20.5t-62 -7.5z" />
    <glyph glyph-name="d" unicode="d" horiz-adv-x="545" 
d="M245 -5q-43 0 -82 17.5t-68.5 49t-47 74.5t-17.5 94t17.5 94t47 74.5t68.5 49t82 17.5q26 0 47.5 -6t36.5 -14q18 -9 31 -20v205h135v-630h-100l-20 45q-16 -14 -35 -25q-17 -10 -41 -17.5t-54 -7.5zM265 120q42 0 71 30.5t29 79.5t-29 79.5t-71 30.5t-71 -30.5
t-29 -79.5t29 -79.5t71 -30.5z" />
    <glyph glyph-name="e" unicode="e" horiz-adv-x="515" 
d="M260 -10q-47 0 -88.5 18.5t-73 51t-50 76t-18.5 94.5t18.5 94.5t50.5 76t74.5 51t91.5 18.5q47 0 88 -17t71.5 -48.5t48 -76t17.5 -98.5q0 -8 -1 -15.5t-2 -14.5q-1 -8 -2 -15h-315q8 -26 32.5 -48t62.5 -22q19 0 32.5 4.5t21.5 10.5q10 6 16 15l140 -10q-9 -28 -27 -54
t-45 -46.5t-62.5 -32.5t-80.5 -12zM360 270q-8 30 -32.5 52.5t-62.5 22.5t-62.5 -22.5t-32.5 -52.5h190z" />
    <glyph glyph-name="f" unicode="f" horiz-adv-x="335" 
d="M80 315h-60v125h60v25q0 83 43 126.5t122 43.5q14 0 26 -1.5t21 -3.5q10 -3 18 -5v-120l-10 2t-11 2t-14 1q-26 0 -43 -17.5t-17 -47.5v-5h95v-125h-95v-315h-135v315z" />
    <glyph glyph-name="g" unicode="g" horiz-adv-x="540" 
d="M260 -170q-64 0 -105.5 24t-65.5 53q-29 34 -44 78l135 10q6 -13 17 -23q9 -8 24.5 -15t38.5 -7q42 0 68.5 26t26.5 64v25q-11 -11 -28 -20q-14 -8 -35.5 -14t-51.5 -6q-43 0 -81.5 17t-67 46.5t-45 69.5t-16.5 87t16.5 87t45 69.5t67 46.5t81.5 17q30 0 54 -8t41 -17
q19 -11 35 -25l20 45h100v-420q0 -45 -16.5 -83.5t-46.5 -66.5t-72.5 -44t-94.5 -16zM260 150q42 0 68.5 26.5t26.5 68.5t-26.5 68.5t-68.5 26.5t-68.5 -26.5t-26.5 -68.5t26.5 -68.5t68.5 -26.5z" />
    <glyph glyph-name="h" unicode="h" 
d="M50 630h135v-215q13 14 31 25q16 9 40.5 17t58.5 8q37 0 69.5 -13.5t55.5 -39t36.5 -61.5t13.5 -81v-270h-135v245q0 45 -23.5 70t-61.5 25t-61.5 -25t-23.5 -70v-245h-135v630z" />
    <glyph glyph-name="i" unicode="i" horiz-adv-x="235" 
d="M50 460h135v-460h-135v460zM120 510q-30 0 -52.5 22.5t-22.5 52.5t22.5 52.5t52.5 22.5t52.5 -22.5t22.5 -52.5t-22.5 -52.5t-52.5 -22.5z" />
    <glyph glyph-name="j" unicode="j" horiz-adv-x="235" 
d="M20 -165q-26 0 -46 5q-11 2 -19 5v120q5 -2 10 -3t11 -1.5t14 -0.5q26 0 43 17.5t17 47.5v435h135v-455q0 -83 -43 -126.5t-122 -43.5zM120 510q-30 0 -52.5 22.5t-22.5 52.5t22.5 52.5t52.5 22.5t52.5 -22.5t22.5 -52.5t-22.5 -52.5t-52.5 -22.5z" />
    <glyph glyph-name="k" unicode="k" horiz-adv-x="470" 
d="M50 630h135v-355l125 185h155l-155 -220l170 -240h-155l-140 205v-205h-135v630z" />
    <glyph glyph-name="l" unicode="l" horiz-adv-x="235" 
d="M50 630h135v-630h-135v630z" />
    <glyph glyph-name="m" unicode="m" horiz-adv-x="760" 
d="M50 460h100l20 -45q13 14 31 25q15 9 36.5 17t47.5 8q35 0 60 -9.5t41 -20.5q18 -13 29 -30q16 17 37 30q18 11 43 20.5t55 9.5q75 0 120 -48t45 -142v-275h-135v260q0 38 -19.5 59t-45.5 21t-45.5 -21t-19.5 -59v-260h-135v260q0 38 -19.5 59t-45.5 21t-45.5 -21
t-19.5 -59v-260h-135v460z" />
    <glyph glyph-name="n" unicode="n" 
d="M50 460h100l20 -45q16 14 37 25q18 9 43 17t55 8q41 0 75 -13.5t58.5 -39t38 -61.5t13.5 -81v-270h-135v245q0 45 -23.5 70t-61.5 25t-61.5 -25t-23.5 -70v-245h-135v460z" />
    <glyph glyph-name="o" unicode="o" horiz-adv-x="530" 
d="M265 -10q-49 0 -91.5 18.5t-74.5 51t-50.5 76t-18.5 94.5t18.5 94.5t50.5 76t74.5 51t91.5 18.5t91.5 -18.5t74.5 -51t50.5 -76t18.5 -94.5t-18.5 -94.5t-50.5 -76t-74.5 -51t-91.5 -18.5zM265 115q42 0 71 31t29 84t-29 84t-71 31t-71 -31t-29 -84t29 -84t71 -31z" />
    <glyph glyph-name="p" unicode="p" horiz-adv-x="545" 
d="M50 460h100l20 -45q15 14 35 25q17 9 41 17t54 8q43 0 82 -17.5t68.5 -49t47 -74.5t17.5 -94t-17.5 -94t-47 -74.5t-68.5 -49t-82 -17.5q-26 0 -47.5 6t-36.5 14q-18 9 -31 20v-195h-135v620zM280 120q42 0 71 30.5t29 79.5t-29 79.5t-71 30.5t-71 -30.5t-29 -79.5
t29 -79.5t71 -30.5z" />
    <glyph glyph-name="q" unicode="q" horiz-adv-x="545" 
d="M360 35q-13 -11 -31 -20q-15 -8 -36.5 -14t-47.5 -6q-43 0 -82 17.5t-68.5 49t-47 74.5t-17.5 94t17.5 94t47 74.5t68.5 49t82 17.5q30 0 54 -8t41 -17q19 -11 35 -25l20 45h100v-620h-135v195zM265 120q42 0 71 30.5t29 79.5t-29 79.5t-71 30.5t-71 -30.5t-29 -79.5
t29 -79.5t71 -30.5z" />
    <glyph glyph-name="r" unicode="r" horiz-adv-x="340" 
d="M50 460h100l20 -50q12 15 29 27q14 11 34.5 19.5t46.5 8.5q9 0 16.5 -1t12.5 -2q6 -1 11 -2v-140q-6 2 -14 5q-7 2 -16 3.5t-20 1.5q-38 0 -61.5 -25t-23.5 -70v-235h-135v460z" />
    <glyph glyph-name="s" unicode="s" horiz-adv-x="445" 
d="M230 -10q-94 0 -141.5 41t-58.5 109l130 10q4 -23 19 -36.5t41 -13.5t40.5 12.5t14.5 27.5q0 12 -17.5 19.5t-43.5 15t-56.5 17.5t-56.5 26.5t-43.5 43.5t-17.5 68q0 28 12 53.5t34.5 44.5t55 30.5t73.5 11.5q90 0 137 -40t58 -100l-130 -10q-4 15 -18 27.5t-37 12.5
t-34 -10t-11 -25q0 -13 17.5 -20t43.5 -14.5t56.5 -17.5t56.5 -26.5t43.5 -43.5t17.5 -68q0 -28 -12.5 -54t-36.5 -46.5t-58.5 -32.5t-77.5 -12z" />
    <glyph glyph-name="t" unicode="t" horiz-adv-x="365" 
d="M255 -5q-79 0 -122 43.5t-43 126.5v170h-70v115h35q55 0 55 55v65h115v-110h95v-125h-95v-150q0 -30 17 -47.5t43 -17.5q8 0 14 0.5t11 1.5t10 3v-120q-8 -3 -18 -5q-20 -5 -47 -5z" />
    <glyph glyph-name="u" unicode="u" 
d="M230 -5q-41 0 -75 13.5t-58.5 39t-38 61.5t-13.5 81v270h135v-245q0 -45 23.5 -70t61.5 -25t61.5 25t23.5 70v245h135v-460h-100l-20 45q-17 -14 -38 -25q-18 -10 -42.5 -17.5t-54.5 -7.5z" />
    <glyph glyph-name="v" unicode="v" horiz-adv-x="490" 
d="M0 460h145l100 -300l100 300h145l-175 -460h-140z" />
    <glyph glyph-name="w" unicode="w" horiz-adv-x="700" 
d="M0 460h140l80 -270l85 270h90l85 -270l80 270h140l-155 -460h-115l-80 255l-80 -255h-115z" />
    <glyph glyph-name="x" unicode="x" horiz-adv-x="460" 
d="M145 235l-140 225h150l75 -130l75 130h150l-140 -225l150 -235h-150l-85 140l-85 -140h-150z" />
    <glyph glyph-name="y" unicode="y" horiz-adv-x="490" 
d="M125 -165q-8 0 -15.5 0.5t-14.5 1.5q-8 1 -15 3v115q42 0 63 17.5t32 47.5l-175 440h145l100 -285l100 285h145l-185 -460q-35 -86 -75.5 -125.5t-104.5 -39.5z" />
    <glyph glyph-name="z" unicode="z" horiz-adv-x="435" 
d="M30 110l190 220h-190v130h365v-110l-190 -220h200v-130h-375v110z" />
    <glyph glyph-name="braceleft" unicode="{" horiz-adv-x="345" 
d="M250 -180q-83 0 -121.5 38.5t-38.5 121.5v135q0 55 -55 55v110q55 0 55 55v135q0 83 38.5 121.5t121.5 38.5h70v-130h-40q-55 0 -55 -55v-125q0 -30 -9.5 -48.5t-20.5 -29.5q-13 -12 -30 -17q17 -6 30 -18q11 -11 20.5 -29t9.5 -48v-125q0 -55 55 -55h40v-130h-70v0z" />
    <glyph glyph-name="bar" unicode="|" horiz-adv-x="380" 
d="M120 630h140v-790h-140v790z" />
    <glyph glyph-name="braceright" unicode="}" horiz-adv-x="345" 
d="M25 -50h40q55 0 55 55v125q0 30 9.5 48t20.5 29q13 12 30 18q-17 5 -30 17q-11 11 -20.5 29.5t-9.5 48.5v125q0 55 -55 55h-40v130h70q83 0 121.5 -38.5t38.5 -121.5v-135q0 -55 55 -55v-110q-55 0 -55 -55v-135q0 -83 -38.5 -121.5t-121.5 -38.5h-70v130z" />
    <glyph glyph-name="asciitilde" unicode="~" horiz-adv-x="465" 
d="M5 190q0 83 36.5 124t93.5 41q26 0 50.5 -8t46 -17t40 -17t33.5 -8q19 0 32 13.5t13 36.5l110 -10q0 -83 -36.5 -124t-93.5 -41q-26 0 -50.5 8t-46 17t-40 17t-33.5 8q-19 0 -32 -13.5t-13 -36.5z" />
    <glyph glyph-name="uni00A0" unicode="&#xa0;" horiz-adv-x="230" 
 />
    <glyph glyph-name="exclamdown" unicode="&#xa1;" horiz-adv-x="280" 
d="M75 270h130l15 -430h-160zM140 315q-30 0 -52.5 22.5t-22.5 52.5t22.5 52.5t52.5 22.5t52.5 -22.5t22.5 -52.5t-22.5 -52.5t-52.5 -22.5z" />
    <glyph glyph-name="cent" unicode="&#xa2;" horiz-adv-x="510" 
d="M200 0q-36 11 -67 31.5t-54 49.5t-36 66.5t-13 82.5q0 47 14.5 86t38.5 68.5t54.5 48.5t62.5 27v75h135v-75q47 -14 76 -41.5t46 -56.5q19 -33 28 -72l-135 -10q-7 18 -18 32q-10 12 -26.5 22.5t-40.5 10.5q-42 0 -71 -31t-29 -84t29 -84t71 -31q24 0 40.5 10t26.5 22
q11 14 18 33l135 -10q-9 -37 -28 -70q-17 -29 -46 -57t-76 -43v-85h-135v85z" />
    <glyph glyph-name="sterling" unicode="&#xa3;" horiz-adv-x="540" 
d="M30 140q26 0 43 17t17 43v40h-50v120h50v75q0 45 14.5 82t42.5 63t67.5 40.5t90.5 14.5q45 0 82.5 -15t65 -40.5t42.5 -60.5t15 -74l-145 -10q0 34 -19.5 54.5t-45.5 20.5t-45.5 -20.5t-19.5 -54.5v-75h140v-120h-140v-40q0 -15 -5 -26t-10 -19q-7 -9 -15 -15h296v-140
h-471v140z" />
    <glyph glyph-name="currency" unicode="&#xa4;" horiz-adv-x="580" 
d="M95 85h-70v115h70v45h-70v115h70v270h230q52 0 94 -15t71 -41.5t44.5 -62t15.5 -76.5q0 -39 -15.5 -74t-44.5 -60.5t-71 -40.5t-94 -15h-85v-45h170v-115h-170v-85h-145v85zM320 360q38 0 61.5 22.5t23.5 52.5t-23.5 52.5t-61.5 22.5h-80v-150h80z" />
    <glyph glyph-name="yen" unicode="&#xa5;" horiz-adv-x="565" 
d="M210 85h-125v105h125v40h-125v105h75l-160 295h155l128 -250l127 250h155l-160 -295h75v-105h-125v-40h125v-105h-125v-85h-145v85z" />
    <glyph glyph-name="brokenbar" unicode="&#xa6;" horiz-adv-x="380" 
d="M120 150h140v-310h-140v310zM120 630h140v-310h-140v310z" />
    <glyph glyph-name="section" unicode="&#xa7;" horiz-adv-x="490" 
d="M250 -120q-90 0 -137 41t-58 109l120 10q2 -17 9 -30q6 -11 18 -20.5t33 -9.5q26 0 40.5 13t14.5 32q0 20 -18.5 33t-46.5 24.5t-60 25t-60 33.5t-46.5 49.5t-18.5 74.5q0 35 13 60t29 41q18 18 43 29q-16 12 -28 28q-11 14 -19 33t-8 44q0 26 11.5 50.5t33.5 43t52 30
t68 11.5q43 0 76.5 -11.5t57.5 -31t38 -46t18 -56.5l-120 -10q-3 15 -9 27q-6 11 -16.5 19.5t-29.5 8.5q-23 0 -36.5 -13t-13.5 -32q0 -20 18.5 -33t46.5 -24.5t60 -25t60 -33.5t46.5 -49.5t18.5 -74.5q0 -36 -13.5 -60.5t-29.5 -40.5q-18 -18 -42 -29q15 -12 27 -28
q11 -14 19.5 -33.5t8.5 -43.5q0 -26 -12 -50.5t-34 -43.5t-53.5 -30t-70.5 -11zM270 180q14 7 25 17q9 8 17 20.5t8 27.5q0 26 -23.5 48.5t-76.5 41.5q-14 -8 -25 -18q-10 -8 -17.5 -20t-7.5 -27q0 -26 23.5 -48.5t76.5 -41.5z" />
    <glyph glyph-name="dieresis" unicode="&#xa8;" horiz-adv-x="385" 
d="M100 500q-30 0 -50 20t-20 50t20 50t50 20t50 -20t20 -50t-20 -50t-50 -20zM285 500q-30 0 -50 20t-20 50t20 50t50 20t50 -20t20 -50t-20 -50t-50 -20z" />
    <glyph glyph-name="copyright" unicode="&#xa9;" horiz-adv-x="720" 
d="M360 -5q-68 0 -126 24.5t-101.5 68t-68 101.5t-24.5 126q0 67 24.5 125.5t68 102t101.5 68t126 24.5q67 0 125.5 -24.5t102 -68t68 -102t24.5 -125.5q0 -68 -24.5 -126t-68 -101.5t-102 -68t-125.5 -24.5zM360 75q49 0 91.5 18.5t74.5 51t50.5 76t18.5 94.5t-18.5 94.5
t-50.5 76t-74.5 51t-91.5 18.5t-91.5 -18.5t-74.5 -51t-50.5 -76t-18.5 -94.5t18.5 -94.5t50.5 -76t74.5 -51t91.5 -18.5zM360 145q-34 0 -64 13t-52.5 36t-35.5 54t-13 67t13 67t35.5 54t52.5 36t64 13q49 0 80 -20t49 -43q21 -27 31 -62l-90 -5q-5 14 -14 25q-8 9 -20 17
t-31 8q-34 0 -57 -24t-23 -66t23 -66t57 -24q19 0 31 7.5t20 17.5q9 11 14 25l90 -5q-10 -36 -31 -63q-18 -23 -49 -42.5t-80 -19.5z" />
    <glyph glyph-name="ordfeminine" unicode="&#xaa;" horiz-adv-x="320" 
d="M115 355q-42 0 -66 22.5t-24 52.5q0 21 8.5 38t28 30t52 20t81.5 7q-1 9 -5 17q-4 7 -12 12.5t-23 5.5q-10 0 -15.5 -3t-8.5 -7q-4 -4 -6 -10h-80q0 42 29 68.5t86 26.5t88.5 -30.5t31.5 -79.5v-165h-65l-15 30q-10 -10 -22 -18q-11 -7 -27 -12t-36 -5zM145 420
q23 0 36.5 13t13.5 32v15q-49 0 -67 -12t-18 -23q0 -25 35 -25z" />
    <glyph glyph-name="guillemotleft" unicode="&#xab;" horiz-adv-x="510" 
d="M30 225l110 160h135l-110 -160l110 -160h-135zM235 225l110 160h135l-110 -160l110 -160h-135z" />
    <glyph glyph-name="logicalnot" unicode="&#xac;" horiz-adv-x="500" 
d="M330 280h-295v120h425v-235h-130v115z" />
    <glyph glyph-name="uni00AD" unicode="&#xad;" horiz-adv-x="375" 
d="M35 315h305v-120h-305v120z" />
    <glyph glyph-name="registered" unicode="&#xae;" horiz-adv-x="720" 
d="M360 -5q-68 0 -126 24.5t-101.5 68t-68 101.5t-24.5 126q0 67 24.5 125.5t68 102t101.5 68t126 24.5q67 0 125.5 -24.5t102 -68t68 -102t24.5 -125.5q0 -68 -24.5 -126t-68 -101.5t-102 -68t-125.5 -24.5zM360 75q49 0 91.5 18.5t74.5 51t50.5 76t18.5 94.5t-18.5 94.5
t-50.5 76t-74.5 51t-91.5 18.5t-91.5 -18.5t-74.5 -51t-50.5 -76t-18.5 -94.5t18.5 -94.5t50.5 -76t74.5 -51t91.5 -18.5zM240 480h135q26 0 48 -9t38 -24t25 -35t9 -42q0 -26 -11 -43t-24 -28q-16 -12 -35 -19l95 -130h-95l-75 110h-25v-110h-85v330zM370 335q23 0 34 10
t11 25t-11 25t-34 10h-45v-70h45z" />
    <glyph glyph-name="macron" unicode="&#xaf;" horiz-adv-x="325" 
d="M30 620h265v-105h-265v105z" />
    <glyph glyph-name="degree" unicode="&#xb0;" horiz-adv-x="320" 
d="M160 375q-57 0 -93.5 36.5t-36.5 93.5t36.5 93.5t93.5 36.5t93.5 -36.5t36.5 -93.5t-36.5 -93.5t-93.5 -36.5zM160 455q23 0 36.5 13.5t13.5 36.5t-13.5 36.5t-36.5 13.5t-36.5 -13.5t-13.5 -36.5t13.5 -36.5t36.5 -13.5z" />
    <glyph glyph-name="plusminus" unicode="&#xb1;" horiz-adv-x="465" 
d="M30 125h140v115h-140v120h140v145h125v-145h140v-120h-140v-115h140v-120h-405v120z" />
    <glyph glyph-name="uni00B2" unicode="&#xb2;" horiz-adv-x="280" 
d="M25 480l90 80q14 12 25 23q9 10 17 21t8 21q0 25 -30 25q-15 0 -25 -10t-10 -25l-80 5q8 49 37.5 77t82.5 28q60 0 90 -27.5t30 -72.5q0 -15 -5 -27.5t-10 -20.5q-7 -10 -15 -17l-75 -65h100v-75h-230v60z" />
    <glyph glyph-name="uni00B3" unicode="&#xb3;" horiz-adv-x="285" 
d="M140 415q-57 0 -89 29t-36 71l13.5 1t29 1.5t29 1.5l13.5 1q0 -11 10.5 -20.5t25.5 -9.5q22 0 30.5 8.5t8.5 16.5q0 11 -8.5 18t-30.5 7h-31v65h30q11 0 20.5 6t9.5 14q0 25 -30 25q-35 0 -35 -25l-80 5q4 42 33.5 68.5t86.5 26.5t86 -26t29 -64q0 -15 -5.5 -26
t-12.5 -19q-8 -9 -17 -15q12 -6 22 -16q8 -8 15.5 -20t7.5 -29q0 -38 -34 -66.5t-91 -28.5z" />
    <glyph glyph-name="acute" unicode="&#xb4;" horiz-adv-x="260" 
d="M95 635h135l-95 -130h-105z" />
    <glyph glyph-name="mu" unicode="&#xb5;" horiz-adv-x="540" 
d="M50 460h135v-245q0 -45 23.5 -70t61.5 -25t61.5 25t23.5 70v245h135v-460h-100l-20 45q-11 -14 -26 -25q-14 -10 -33.5 -17.5t-45.5 -7.5q-17 0 -31.5 3.5t-25.5 8.5q-12 5 -23 13v-180h-135v620z" />
    <glyph glyph-name="paragraph" unicode="&#xb6;" horiz-adv-x="540" 
d="M190 300q-36 0 -67 13t-54 35.5t-36 52.5t-13 64t13 64t36 52.5t54 35.5t67 13h290v-720h-110v600h-70v-600h-110v390z" />
    <glyph glyph-name="periodcentered" unicode="&#xb7;" horiz-adv-x="230" 
d="M115 240q-30 0 -52.5 22.5t-22.5 52.5t22.5 52.5t52.5 22.5t52.5 -22.5t22.5 -52.5t-22.5 -52.5t-52.5 -22.5z" />
    <glyph glyph-name="cedilla" unicode="&#xb8;" horiz-adv-x="240" 
d="M90 -200q-25 0 -43 5q-10 2 -17 5v50q5 -2 12 -3q5 -1 12.5 -1.5t15.5 -0.5q26 0 38 10t12 25q0 11 -11 20.5t-34 9.5q-8 0 -16 -2.5t-9 -2.5l35 85h60l-20 -40q24 -4 42 -14q16 -8 29.5 -24t13.5 -42q0 -34 -28 -57t-92 -23z" />
    <glyph glyph-name="uni00B9" unicode="&#xb9;" horiz-adv-x="250" 
d="M90 610l-35 -20l-40 65l105 65h60v-300h-90v190z" />
    <glyph glyph-name="ordmasculine" unicode="&#xba;" horiz-adv-x="330" 
d="M165 355q-28 0 -53.5 11.5t-44.5 30.5t-30.5 44.5t-11.5 53.5t11.5 53.5t30.5 44.5t44.5 30.5t53.5 11.5t53.5 -11.5t44.5 -30.5t30.5 -44.5t11.5 -53.5t-11.5 -53.5t-30.5 -44.5t-44.5 -30.5t-53.5 -11.5zM165 440q19 0 32 14.5t13 40.5t-13 40.5t-32 14.5t-32 -14.5
t-13 -40.5t13 -40.5t32 -14.5z" />
    <glyph glyph-name="guillemotright" unicode="&#xbb;" horiz-adv-x="510" 
d="M140 225l-110 160h135l110 -160l-110 -160h-135zM345 225l-110 160h135l110 -160l-110 -160h-135z" />
    <glyph glyph-name="onequarter" unicode="&#xbc;" horiz-adv-x="620" 
d="M445 630h115l-385 -630h-115zM90 520l-35 -20l-40 65l105 65h60v-300h-90v190zM475 55h-135v55l120 190h105v-170h35v-75h-35v-55h-90v55zM480 130v80l-50 -80h50z" />
    <glyph glyph-name="onehalf" unicode="&#xbd;" horiz-adv-x="640" 
d="M445 630h115l-385 -630h-115zM90 520l-35 -20l-40 65l105 65h60v-300h-90v190zM385 60l90 80q14 12 25 23q9 10 17 21t8 21q0 25 -30 25q-15 0 -25 -10t-10 -25l-80 5q8 49 37.5 77t82.5 28q60 0 90 -27.5t30 -72.5q0 -15 -5 -27.5t-10 -20.5q-7 -10 -15 -17l-75 -65h100
v-75h-230v60z" />
    <glyph glyph-name="threequarters" unicode="&#xbe;" horiz-adv-x="665" 
d="M480 630h115l-385 -630h-115zM140 325q-57 0 -89 29t-36 71l13.5 1t29 1.5t29 1.5l13.5 1q0 -11 10.5 -20.5t25.5 -9.5q22 0 30.5 8.5t8.5 16.5q0 11 -8.5 18t-30.5 7h-31v65h30q11 0 20.5 6t9.5 14q0 25 -30 25q-35 0 -35 -25l-80 5q4 42 33.5 68.5t86.5 26.5t86 -26
t29 -64q0 -15 -5.5 -26t-12.5 -19q-8 -9 -17 -15q12 -6 22 -16q8 -8 15.5 -20t7.5 -29q0 -38 -34 -66.5t-91 -28.5zM520 55h-135v55l120 190h105v-170h35v-75h-35v-55h-90v55zM525 130v80l-50 -80h50z" />
    <glyph glyph-name="questiondown" unicode="&#xbf;" horiz-adv-x="450" 
d="M230 -165q-51 0 -90.5 14t-67.5 38t-42.5 55.5t-14.5 67.5q0 34 10.5 57.5t26 42t34 34t34.5 33.5t27.5 40t12.5 53h140q0 -40 -10 -68.5t-25 -49.5t-32.5 -36.5t-32.5 -29.5t-25 -28t-10 -33q0 -26 17.5 -43t47.5 -17q26 0 45.5 21.5t19.5 63.5l145 -10
q-8 -94 -63.5 -149.5t-146.5 -55.5zM225 315q-30 0 -52.5 22.5t-22.5 52.5t22.5 52.5t52.5 22.5t52.5 -22.5t22.5 -52.5t-22.5 -52.5t-52.5 -22.5z" />
    <glyph glyph-name="Agrave" unicode="&#xc0;" horiz-adv-x="590" 
d="M220 630h150l225 -630h-150l-40 120h-220l-40 -120h-150zM365 245l-70 210l-70 -210h140zM145 825h135l65 -130h-105z" />
    <glyph glyph-name="Aacute" unicode="&#xc1;" horiz-adv-x="590" 
d="M220 630h150l225 -630h-150l-40 120h-220l-40 -120h-150zM365 245l-70 210l-70 -210h140zM310 825h135l-95 -130h-105z" />
    <glyph glyph-name="Acircumflex" unicode="&#xc2;" horiz-adv-x="590" 
d="M220 630h150l225 -630h-150l-40 120h-220l-40 -120h-150zM365 245l-70 210l-70 -210h140zM235 825h120l100 -130h-115l-45 60l-45 -60h-115z" />
    <glyph glyph-name="Atilde" unicode="&#xc3;" horiz-adv-x="590" 
d="M220 630h150l225 -630h-150l-40 120h-220l-40 -120h-150zM365 245l-70 210l-70 -210h140zM145 695q0 64 26 94.5t64 30.5q22 0 38 -7t28 -15.5t22.5 -15.5t21.5 -7q15 0 25 11t10 34l75 -10q0 -64 -26 -94.5t-64 -30.5q-23 0 -38.5 7t-27.5 15.5t-22.5 15.5t-21.5 7
q-14 0 -24.5 -11t-10.5 -34z" />
    <glyph glyph-name="Adieresis" unicode="&#xc4;" horiz-adv-x="590" 
d="M220 630h150l225 -630h-150l-40 120h-220l-40 -120h-150zM365 245l-70 210l-70 -210h140zM203 690q-30 0 -50 20t-20 50t20 50t50 20t50 -20t20 -50t-20 -50t-50 -20zM388 690q-30 0 -50 20t-20 50t20 50t50 20t50 -20t20 -50t-20 -50t-50 -20z" />
    <glyph glyph-name="Aring" unicode="&#xc5;" horiz-adv-x="590" 
d="M220 630h150l225 -630h-150l-40 120h-220l-40 -120h-150zM365 245l-70 210l-70 -210h140zM295 675q-45 0 -72.5 26.5t-27.5 68.5t27.5 68.5t72.5 26.5t72.5 -26.5t27.5 -68.5t-27.5 -68.5t-72.5 -26.5zM295 735q15 0 25 10t10 25t-10 25t-25 10t-25 -10t-10 -25t10 -25
t25 -10z" />
    <glyph glyph-name="AE" unicode="&#xc6;" horiz-adv-x="855" 
d="M300 630h505v-140h-275v-100h250v-140h-250v-110h285v-140h-430v120h-185l-60 -120h-165zM385 260v230l-115 -230h115z" />
    <glyph glyph-name="Ccedilla" unicode="&#xc7;" horiz-adv-x="650" 
d="M310 -200q-25 0 -43 5q-10 2 -17 5v50q5 -2 12 -3q5 -1 12.5 -1.5t15.5 -0.5q26 0 38 10t12 25q0 11 -11 20.5t-34 9.5q-8 0 -16 -2.5t-9 -2.5l34 83q-58 6 -108 33t-87 69t-58 97t-21 118q0 67 24.5 125.5t66.5 102t98.5 68t120.5 24.5q56 0 103.5 -18.5t84 -49
t61.5 -71.5t36 -86l-150 -10q-6 19 -17 36t-28 30t-39.5 21t-50.5 8q-34 0 -64 -13.5t-52.5 -37.5t-35.5 -57t-13 -72t13 -72t35.5 -57t52.5 -37.5t64 -13.5q60 0 94.5 28.5t45.5 66.5l150 -10q-11 -43 -34 -82t-57 -69t-78.5 -49.5t-97.5 -23.5l-18 -36q24 -4 42 -14
q16 -8 29.5 -24t13.5 -42q0 -34 -28 -57t-92 -23z" />
    <glyph glyph-name="Egrave" unicode="&#xc8;" horiz-adv-x="560" 
d="M60 630h450v-140h-305v-100h280v-140h-280v-110h315v-140h-460v630zM155 825h135l65 -130h-105z" />
    <glyph glyph-name="Eacute" unicode="&#xc9;" horiz-adv-x="560" 
d="M60 630h450v-140h-305v-100h280v-140h-280v-110h315v-140h-460v630zM295 825h135l-95 -130h-105z" />
    <glyph glyph-name="Ecircumflex" unicode="&#xca;" horiz-adv-x="560" 
d="M60 630h450v-140h-305v-100h280v-140h-280v-110h315v-140h-460v630zM230 825h120l100 -130h-115l-45 60l-45 -60h-115z" />
    <glyph glyph-name="Edieresis" unicode="&#xcb;" horiz-adv-x="560" 
d="M60 630h450v-140h-305v-100h280v-140h-280v-110h315v-140h-460v630zM200 690q-30 0 -50 20t-20 50t20 50t50 20t50 -20t20 -50t-20 -50t-50 -20zM385 690q-30 0 -50 20t-20 50t20 50t50 20t50 -20t20 -50t-20 -50t-50 -20z" />
    <glyph glyph-name="Igrave" unicode="&#xcc;" horiz-adv-x="265" 
d="M60 630h145v-630h-145v630zM-15 825h135l65 -130h-105z" />
    <glyph glyph-name="Iacute" unicode="&#xcd;" horiz-adv-x="265" 
d="M60 630h145v-630h-145v630zM145 825h135l-95 -130h-105z" />
    <glyph glyph-name="Icircumflex" unicode="&#xce;" horiz-adv-x="265" 
d="M60 630h145v-630h-145v630zM70 825h120l100 -130h-115l-45 60l-45 -60h-115z" />
    <glyph glyph-name="Idieresis" unicode="&#xcf;" horiz-adv-x="265" 
d="M60 630h145v-630h-145v630zM40 690q-30 0 -50 20t-20 50t20 50t50 20t50 -20t20 -50t-20 -50t-50 -20zM225 690q-30 0 -50 20t-20 50t20 50t50 20t50 -20t20 -50t-20 -50t-50 -20z" />
    <glyph glyph-name="Eth" unicode="&#xd0;" horiz-adv-x="650" 
d="M90 250h-70v120h70v260h215q66 0 123 -24.5t100 -67.5t67.5 -100t24.5 -123t-24.5 -123t-67.5 -100t-100 -67.5t-123 -24.5h-215v250zM305 140q36 0 67 13.5t54 36.5t36 55t13 70q0 37 -13 69.5t-36 55.5t-54 36.5t-67 13.5h-70v-120h100v-120h-100v-110h70z" />
    <glyph glyph-name="Ntilde" unicode="&#xd1;" horiz-adv-x="650" 
d="M60 630h130l255 -370v370h145v-630h-130l-255 370v-370h-145v630zM170 695q0 64 26 94.5t64 30.5q22 0 38 -7t28 -15.5t22.5 -15.5t21.5 -7q15 0 25 11t10 34l75 -10q0 -64 -26 -94.5t-64 -30.5q-23 0 -38.5 7t-27.5 15.5t-22.5 15.5t-21.5 7q-14 0 -24.5 -11t-10.5 -34z
" />
    <glyph glyph-name="Ograve" unicode="&#xd2;" horiz-adv-x="680" 
d="M340 -5q-64 0 -120.5 24.5t-98.5 68t-66.5 101.5t-24.5 126q0 67 24.5 125.5t66.5 102t98.5 68t120.5 24.5t120.5 -24.5t98.5 -68t66.5 -102t24.5 -125.5q0 -68 -24.5 -126t-66.5 -101.5t-98.5 -68t-120.5 -24.5zM340 135q34 0 64 13.5t52.5 37.5t35.5 57t13 72t-13 72
t-35.5 57t-52.5 37.5t-64 13.5t-64 -13.5t-52.5 -37.5t-35.5 -57t-13 -72t13 -72t35.5 -57t52.5 -37.5t64 -13.5zM195 825h135l65 -130h-105z" />
    <glyph glyph-name="Oacute" unicode="&#xd3;" horiz-adv-x="680" 
d="M340 -5q-64 0 -120.5 24.5t-98.5 68t-66.5 101.5t-24.5 126q0 67 24.5 125.5t66.5 102t98.5 68t120.5 24.5t120.5 -24.5t98.5 -68t66.5 -102t24.5 -125.5q0 -68 -24.5 -126t-66.5 -101.5t-98.5 -68t-120.5 -24.5zM340 135q34 0 64 13.5t52.5 37.5t35.5 57t13 72t-13 72
t-35.5 57t-52.5 37.5t-64 13.5t-64 -13.5t-52.5 -37.5t-35.5 -57t-13 -72t13 -72t35.5 -57t52.5 -37.5t64 -13.5zM355 825h135l-95 -130h-105z" />
    <glyph glyph-name="Ocircumflex" unicode="&#xd4;" horiz-adv-x="680" 
d="M340 -5q-64 0 -120.5 24.5t-98.5 68t-66.5 101.5t-24.5 126q0 67 24.5 125.5t66.5 102t98.5 68t120.5 24.5t120.5 -24.5t98.5 -68t66.5 -102t24.5 -125.5q0 -68 -24.5 -126t-66.5 -101.5t-98.5 -68t-120.5 -24.5zM340 135q34 0 64 13.5t52.5 37.5t35.5 57t13 72t-13 72
t-35.5 57t-52.5 37.5t-64 13.5t-64 -13.5t-52.5 -37.5t-35.5 -57t-13 -72t13 -72t35.5 -57t52.5 -37.5t64 -13.5zM280 825h120l100 -130h-115l-45 60l-45 -60h-115z" />
    <glyph glyph-name="Otilde" unicode="&#xd5;" horiz-adv-x="680" 
d="M340 -5q-64 0 -120.5 24.5t-98.5 68t-66.5 101.5t-24.5 126q0 67 24.5 125.5t66.5 102t98.5 68t120.5 24.5t120.5 -24.5t98.5 -68t66.5 -102t24.5 -125.5q0 -68 -24.5 -126t-66.5 -101.5t-98.5 -68t-120.5 -24.5zM340 135q34 0 64 13.5t52.5 37.5t35.5 57t13 72t-13 72
t-35.5 57t-52.5 37.5t-64 13.5t-64 -13.5t-52.5 -37.5t-35.5 -57t-13 -72t13 -72t35.5 -57t52.5 -37.5t64 -13.5zM185 695q0 64 26 94.5t64 30.5q22 0 38 -7t28 -15.5t22.5 -15.5t21.5 -7q15 0 25 11t10 34l75 -10q0 -64 -26 -94.5t-64 -30.5q-23 0 -38.5 7t-27.5 15.5
t-22.5 15.5t-21.5 7q-14 0 -24.5 -11t-10.5 -34z" />
    <glyph glyph-name="Odieresis" unicode="&#xd6;" horiz-adv-x="680" 
d="M340 -5q-64 0 -120.5 24.5t-98.5 68t-66.5 101.5t-24.5 126q0 67 24.5 125.5t66.5 102t98.5 68t120.5 24.5t120.5 -24.5t98.5 -68t66.5 -102t24.5 -125.5q0 -68 -24.5 -126t-66.5 -101.5t-98.5 -68t-120.5 -24.5zM340 135q34 0 64 13.5t52.5 37.5t35.5 57t13 72t-13 72
t-35.5 57t-52.5 37.5t-64 13.5t-64 -13.5t-52.5 -37.5t-35.5 -57t-13 -72t13 -72t35.5 -57t52.5 -37.5t64 -13.5zM250 690q-30 0 -50 20t-20 50t20 50t50 20t50 -20t20 -50t-20 -50t-50 -20zM435 690q-30 0 -50 20t-20 50t20 50t50 20t50 -20t20 -50t-20 -50t-50 -20z" />
    <glyph glyph-name="multiply" unicode="&#xd7;" horiz-adv-x="470" 
d="M50 145l105 110l-105 110l85 80l100 -105l100 105l85 -80l-105 -110l105 -110l-85 -80l-100 105l-100 -105z" />
    <glyph glyph-name="Oslash" unicode="&#xd8;" horiz-adv-x="700" 
d="M350 -5q-38 0 -70 8t-55 19q-27 12 -50 28l-55 -50l-95 100l55 55q-11 20 -20 46q-8 22 -14 51t-6 63q0 67 24.5 125.5t66.5 102t98.5 68t120.5 24.5q38 0 70 -8.5t55 -19.5q27 -12 50 -27l55 50l95 -100l-55 -55q11 -19 20 -44q8 -21 14 -51t6 -65q0 -68 -24.5 -126
t-66.5 -101.5t-98.5 -68t-120.5 -24.5zM350 135q34 0 64 13.5t52.5 37.5t35.5 57t13 72q0 15 -1 25t-2 17q-1 8 -2 13l-230 -220q7 -4 18 -8q9 -3 22 -5t30 -2zM420 480q-7 3 -18 7q-9 3 -22 5.5t-30 2.5q-34 0 -64 -13.5t-52.5 -37.5t-35.5 -57t-13 -72q0 -15 0.5 -25.5
t1.5 -17.5q1 -8 3 -12z" />
    <glyph glyph-name="Ugrave" unicode="&#xd9;" horiz-adv-x="620" 
d="M310 -5q-58 0 -106 19t-82 53t-53 82t-19 106v375h145v-375q0 -57 31 -88.5t84 -31.5t84 31.5t31 88.5v375h145v-375q0 -58 -19 -106t-53 -82t-82 -53t-106 -19zM170 825h135l65 -130h-105z" />
    <glyph glyph-name="Uacute" unicode="&#xda;" horiz-adv-x="620" 
d="M310 -5q-58 0 -106 19t-82 53t-53 82t-19 106v375h145v-375q0 -57 31 -88.5t84 -31.5t84 31.5t31 88.5v375h145v-375q0 -58 -19 -106t-53 -82t-82 -53t-106 -19zM320 825h135l-95 -130h-105z" />
    <glyph glyph-name="Ucircumflex" unicode="&#xdb;" horiz-adv-x="620" 
d="M310 -5q-58 0 -106 19t-82 53t-53 82t-19 106v375h145v-375q0 -57 31 -88.5t84 -31.5t84 31.5t31 88.5v375h145v-375q0 -58 -19 -106t-53 -82t-82 -53t-106 -19zM250 825h120l100 -130h-115l-45 60l-45 -60h-115z" />
    <glyph glyph-name="Udieresis" unicode="&#xdc;" horiz-adv-x="620" 
d="M310 -5q-58 0 -106 19t-82 53t-53 82t-19 106v375h145v-375q0 -57 31 -88.5t84 -31.5t84 31.5t31 88.5v375h145v-375q0 -58 -19 -106t-53 -82t-82 -53t-106 -19zM220 690q-30 0 -50 20t-20 50t20 50t50 20t50 -20t20 -50t-20 -50t-50 -20zM405 690q-30 0 -50 20t-20 50
t20 50t50 20t50 -20t20 -50t-20 -50t-50 -20z" />
    <glyph glyph-name="Yacute" unicode="&#xdd;" horiz-adv-x="565" 
d="M210 235l-210 395h155l128 -250l127 250h155l-210 -395v-235h-145v235zM295 825h135l-95 -130h-105z" />
    <glyph glyph-name="Thorn" unicode="&#xde;" horiz-adv-x="600" 
d="M50 630h145v-95h150q49 0 90 -16.5t71 -45t47 -67t17 -81.5t-17 -81.5t-47 -67t-71 -45t-90 -16.5h-150v-115h-145v630zM345 255q17 0 31.5 6t25.5 16t17 22.5t6 25.5t-6 25.5t-17 22.5t-25.5 16t-31.5 6h-150v-140h150z" />
    <glyph glyph-name="germandbls" unicode="&#xdf;" horiz-adv-x="545" 
d="M60 440q0 41 15 76.5t42.5 62t65 41.5t82.5 15q47 0 85 -14t64.5 -38t41 -55.5t14.5 -67.5q0 -30 -8.5 -52.5t-19.5 -37.5q-12 -18 -27 -30q28 -14 50 -37q19 -20 34.5 -50t15.5 -73q0 -38 -14 -70.5t-39.5 -57t-60.5 -38.5t-76 -14h-60v120h50q26 0 45.5 20t19.5 50
t-19.5 50t-45.5 20h-50v120q34 0 52 17.5t18 47.5q0 70 -70 70q-30 0 -50 -20.5t-20 -54.5v-440h-135v440z" />
    <glyph glyph-name="agrave" unicode="&#xe0;" horiz-adv-x="485" 
d="M185 -5q-75 0 -115 36.5t-40 93.5q0 34 13.5 62.5t45.5 49t84.5 32t131.5 11.5q0 34 -17 52t-43 18q-19 0 -30.5 -7.5t-18.5 -15.5q-8 -10 -11 -22l-135 10q6 34 21 62.5t39.5 49t59.5 32t80 11.5q41 0 76 -14t60.5 -39.5t39.5 -60.5t14 -76v-280h-100l-20 45
q-17 -14 -38 -25q-18 -10 -42.5 -17.5t-54.5 -7.5zM220 95q38 0 61.5 23.5t23.5 61.5v20q-43 0 -70.5 -4.5t-43 -12.5t-21 -19t-5.5 -24q0 -19 14.5 -32t40.5 -13zM105 645h135l65 -130h-105z" />
    <glyph glyph-name="aacute" unicode="&#xe1;" horiz-adv-x="485" 
d="M185 -5q-75 0 -115 36.5t-40 93.5q0 34 13.5 62.5t45.5 49t84.5 32t131.5 11.5q0 34 -17 52t-43 18q-19 0 -30.5 -7.5t-18.5 -15.5q-8 -10 -11 -22l-135 10q6 34 21 62.5t39.5 49t59.5 32t80 11.5q41 0 76 -14t60.5 -39.5t39.5 -60.5t14 -76v-280h-100l-20 45
q-17 -14 -38 -25q-18 -10 -42.5 -17.5t-54.5 -7.5zM220 95q38 0 61.5 23.5t23.5 61.5v20q-43 0 -70.5 -4.5t-43 -12.5t-21 -19t-5.5 -24q0 -19 14.5 -32t40.5 -13zM260 650h135l-95 -130h-105z" />
    <glyph glyph-name="acircumflex" unicode="&#xe2;" horiz-adv-x="485" 
d="M185 -5q-75 0 -115 36.5t-40 93.5q0 34 13.5 62.5t45.5 49t84.5 32t131.5 11.5q0 34 -17 52t-43 18q-19 0 -30.5 -7.5t-18.5 -15.5q-8 -10 -11 -22l-135 10q6 34 21 62.5t39.5 49t59.5 32t80 11.5q41 0 76 -14t60.5 -39.5t39.5 -60.5t14 -76v-280h-100l-20 45
q-17 -14 -38 -25q-18 -10 -42.5 -17.5t-54.5 -7.5zM220 95q38 0 61.5 23.5t23.5 61.5v20q-43 0 -70.5 -4.5t-43 -12.5t-21 -19t-5.5 -24q0 -19 14.5 -32t40.5 -13zM195 645h120l100 -130h-115l-45 60l-45 -60h-115z" />
    <glyph glyph-name="atilde" unicode="&#xe3;" horiz-adv-x="485" 
d="M185 -5q-75 0 -115 36.5t-40 93.5q0 34 13.5 62.5t45.5 49t84.5 32t131.5 11.5q0 34 -17 52t-43 18q-19 0 -30.5 -7.5t-18.5 -15.5q-8 -10 -11 -22l-135 10q6 34 21 62.5t39.5 49t59.5 32t80 11.5q41 0 76 -14t60.5 -39.5t39.5 -60.5t14 -76v-280h-100l-20 45
q-17 -14 -38 -25q-18 -10 -42.5 -17.5t-54.5 -7.5zM220 95q38 0 61.5 23.5t23.5 61.5v20q-43 0 -70.5 -4.5t-43 -12.5t-21 -19t-5.5 -24q0 -19 14.5 -32t40.5 -13zM100 515q0 64 26 94.5t64 30.5q22 0 38 -7t28 -15.5t22.5 -15.5t21.5 -7q15 0 25 11t10 34l75 -10
q0 -64 -26 -94.5t-64 -30.5q-23 0 -38.5 7t-27.5 15.5t-22.5 15.5t-21.5 7q-14 0 -24.5 -11t-10.5 -34z" />
    <glyph glyph-name="adieresis" unicode="&#xe4;" horiz-adv-x="485" 
d="M185 -5q-75 0 -115 36.5t-40 93.5q0 34 13.5 62.5t45.5 49t84.5 32t131.5 11.5q0 34 -17 52t-43 18q-19 0 -30.5 -7.5t-18.5 -15.5q-8 -10 -11 -22l-135 10q6 34 21 62.5t39.5 49t59.5 32t80 11.5q41 0 76 -14t60.5 -39.5t39.5 -60.5t14 -76v-280h-100l-20 45
q-17 -14 -38 -25q-18 -10 -42.5 -17.5t-54.5 -7.5zM220 95q38 0 61.5 23.5t23.5 61.5v20q-43 0 -70.5 -4.5t-43 -12.5t-21 -19t-5.5 -24q0 -19 14.5 -32t40.5 -13zM163 510q-30 0 -50 20t-20 50t20 50t50 20t50 -20t20 -50t-20 -50t-50 -20zM348 510q-30 0 -50 20t-20 50
t20 50t50 20t50 -20t20 -50t-20 -50t-50 -20z" />
    <glyph glyph-name="aring" unicode="&#xe5;" horiz-adv-x="485" 
d="M185 -5q-75 0 -115 36.5t-40 93.5q0 34 13.5 62.5t45.5 49t84.5 32t131.5 11.5q0 34 -17 52t-43 18q-19 0 -30.5 -7.5t-18.5 -15.5q-8 -10 -11 -22l-135 10q6 34 21 62.5t39.5 49t59.5 32t80 11.5q41 0 76 -14t60.5 -39.5t39.5 -60.5t14 -76v-280h-100l-20 45
q-17 -14 -38 -25q-18 -10 -42.5 -17.5t-54.5 -7.5zM220 95q38 0 61.5 23.5t23.5 61.5v20q-43 0 -70.5 -4.5t-43 -12.5t-21 -19t-5.5 -24q0 -19 14.5 -32t40.5 -13zM250 500q-45 0 -72.5 26.5t-27.5 68.5t27.5 68.5t72.5 26.5t72.5 -26.5t27.5 -68.5t-27.5 -68.5t-72.5 -26.5
zM250 560q15 0 25 10t10 25t-10 25t-25 10t-25 -10t-10 -25t10 -25t25 -10z" />
    <glyph glyph-name="ae" unicode="&#xe6;" horiz-adv-x="785" 
d="M215 -10q-45 0 -79.5 11t-58 30t-35.5 43.5t-12 50.5q0 34 13.5 62.5t45.5 49t84.5 32t131.5 11.5q0 34 -17 52t-43 18q-19 0 -30.5 -7.5t-18.5 -15.5q-8 -10 -11 -22l-135 10q6 34 21 62.5t39.5 49t59.5 32t80 11.5q39 0 67 -8t45 -17q20 -11 33 -25q14 14 34 25
q17 9 43.5 17t62.5 8q47 0 88 -18t71.5 -49.5t48 -76t17.5 -96.5q0 -10 -1 -18t-2 -14q-1 -7 -2 -13h-315q7 -20 19 -35q11 -14 29 -24.5t47 -10.5q19 0 32.5 4.5t21.5 10.5q10 6 16 15l140 -10q-9 -28 -28 -54t-46 -46.5t-62.5 -32.5t-78.5 -12q-38 0 -65 9.5t-45 20.5
q-21 13 -35 30q-18 -17 -44 -30q-22 -11 -53 -20.5t-73 -9.5zM220 95q38 0 61.5 23.5t23.5 61.5v20q-43 0 -70.5 -4.5t-43 -12.5t-21 -19t-5.5 -24q0 -19 14.5 -32t40.5 -13zM620 275q-4 30 -28 52.5t-62 22.5t-62 -22.5t-28 -52.5h180z" />
    <glyph glyph-name="ccedilla" unicode="&#xe7;" horiz-adv-x="510" 
d="M245 -200q-25 0 -43 5q-10 2 -17 5v50q5 -2 12 -3q5 -1 12.5 -1.5t15.5 -0.5q26 0 38 10t12 25q0 11 -11 20.5t-34 9.5q-8 0 -16 -2.5t-9 -2.5l31 77q-44 5 -81.5 25t-65 52t-43.5 73t-16 88q0 51 18.5 94.5t50.5 76t74.5 51t91.5 18.5q34 0 62 -7.5t50 -20.5t38.5 -29
t28.5 -33q28 -40 41 -90l-135 -10q-7 18 -18 32q-10 12 -26.5 22.5t-40.5 10.5q-42 0 -71 -31t-29 -84t29 -84t71 -31q24 0 40.5 10t26.5 22q11 14 18 33l135 -10q-11 -45 -35 -82q-21 -32 -58 -60.5t-96 -35.5l-16 -32q24 -4 42 -14q16 -8 29.5 -24t13.5 -42q0 -34 -28 -57
t-92 -23z" />
    <glyph glyph-name="egrave" unicode="&#xe8;" horiz-adv-x="515" 
d="M260 -10q-47 0 -88.5 18.5t-73 51t-50 76t-18.5 94.5t18.5 94.5t50.5 76t74.5 51t91.5 18.5q47 0 88 -17t71.5 -48.5t48 -76t17.5 -98.5q0 -8 -1 -15.5t-2 -14.5q-1 -8 -2 -15h-315q8 -26 32.5 -48t62.5 -22q19 0 32.5 4.5t21.5 10.5q10 6 16 15l140 -10q-9 -28 -27 -54
t-45 -46.5t-62.5 -32.5t-80.5 -12zM360 270q-8 30 -32.5 52.5t-62.5 22.5t-62.5 -22.5t-32.5 -52.5h190zM120 645h135l65 -130h-105z" />
    <glyph glyph-name="eacute" unicode="&#xe9;" horiz-adv-x="515" 
d="M260 -10q-47 0 -88.5 18.5t-73 51t-50 76t-18.5 94.5t18.5 94.5t50.5 76t74.5 51t91.5 18.5q47 0 88 -17t71.5 -48.5t48 -76t17.5 -98.5q0 -8 -1 -15.5t-2 -14.5q-1 -8 -2 -15h-315q8 -26 32.5 -48t62.5 -22q19 0 32.5 4.5t21.5 10.5q10 6 16 15l140 -10q-9 -28 -27 -54
t-45 -46.5t-62.5 -32.5t-80.5 -12zM360 270q-8 30 -32.5 52.5t-62.5 22.5t-62.5 -22.5t-32.5 -52.5h190zM275 645h135l-95 -130h-105z" />
    <glyph glyph-name="ecircumflex" unicode="&#xea;" horiz-adv-x="515" 
d="M260 -10q-47 0 -88.5 18.5t-73 51t-50 76t-18.5 94.5t18.5 94.5t50.5 76t74.5 51t91.5 18.5q47 0 88 -17t71.5 -48.5t48 -76t17.5 -98.5q0 -8 -1 -15.5t-2 -14.5q-1 -8 -2 -15h-315q8 -26 32.5 -48t62.5 -22q19 0 32.5 4.5t21.5 10.5q10 6 16 15l140 -10q-9 -28 -27 -54
t-45 -46.5t-62.5 -32.5t-80.5 -12zM360 270q-8 30 -32.5 52.5t-62.5 22.5t-62.5 -22.5t-32.5 -52.5h190zM205 645h120l100 -130h-115l-45 60l-45 -60h-115z" />
    <glyph glyph-name="edieresis" unicode="&#xeb;" horiz-adv-x="515" 
d="M260 -10q-47 0 -88.5 18.5t-73 51t-50 76t-18.5 94.5t18.5 94.5t50.5 76t74.5 51t91.5 18.5q47 0 88 -17t71.5 -48.5t48 -76t17.5 -98.5q0 -8 -1 -15.5t-2 -14.5q-1 -8 -2 -15h-315q8 -26 32.5 -48t62.5 -22q19 0 32.5 4.5t21.5 10.5q10 6 16 15l140 -10q-9 -28 -27 -54
t-45 -46.5t-62.5 -32.5t-80.5 -12zM360 270q-8 30 -32.5 52.5t-62.5 22.5t-62.5 -22.5t-32.5 -52.5h190zM175 510q-30 0 -50 20t-20 50t20 50t50 20t50 -20t20 -50t-20 -50t-50 -20zM360 510q-30 0 -50 20t-20 50t20 50t50 20t50 -20t20 -50t-20 -50t-50 -20z" />
    <glyph glyph-name="igrave" unicode="&#xec;" horiz-adv-x="235" 
d="M50 460h135v-460h-135v460zM-30 645h135l65 -130h-105z" />
    <glyph glyph-name="iacute" unicode="&#xed;" horiz-adv-x="235" 
d="M50 460h135v-460h-135v460zM130 645h135l-95 -130h-105z" />
    <glyph glyph-name="icircumflex" unicode="&#xee;" horiz-adv-x="235" 
d="M50 460h135v-460h-135v460zM55 645h120l100 -130h-115l-45 60l-45 -60h-115z" />
    <glyph glyph-name="idieresis" unicode="&#xef;" horiz-adv-x="235" 
d="M50 460h135v-460h-135v460zM25 510q-30 0 -50 20t-20 50t20 50t50 20t50 -20t20 -50t-20 -50t-50 -20zM210 510q-30 0 -50 20t-20 50t20 50t50 20t50 -20t20 -50t-20 -50t-50 -20z" />
    <glyph glyph-name="eth" unicode="&#xf0;" horiz-adv-x="555" 
d="M270 -5q-53 0 -97 17.5t-75.5 48t-49.5 71.5t-18 88t17.5 88t47.5 71.5t70 48t85 17.5q32 0 55 -7.5t37 -15.5q17 -10 28 -22q-10 28 -23 50t-26 36q-15 17 -31 29l-65 -45l-50 70l40 25q-11 6 -23 11q-11 5 -24 10t-28 9l35 100q32 -8 58 -17.5t44 -17.5q21 -10 38 -20
l80 55l50 -70l-55 -40q35 -34 62 -81q23 -40 43 -98.5t20 -135.5q0 -64 -18.5 -115t-51.5 -86.5t-78 -54.5t-97 -19zM270 120q22 0 41.5 8t33.5 21.5t22 31.5t8 39t-8 39t-22 31.5t-33.5 21.5t-41.5 8q-23 0 -42 -8t-33 -21.5t-22 -31.5t-8 -39t8 -39t22 -31.5t33 -21.5
t42 -8z" />
    <glyph glyph-name="ntilde" unicode="&#xf1;" 
d="M50 460h100l20 -45q16 14 37 25q18 9 43 17t55 8q41 0 75 -13.5t58.5 -39t38 -61.5t13.5 -81v-270h-135v245q0 45 -23.5 70t-61.5 25t-61.5 -25t-23.5 -70v-245h-135v460zM120 515q0 64 26 94.5t64 30.5q22 0 38 -7t28 -15.5t22.5 -15.5t21.5 -7q15 0 25 11t10 34l75 -10
q0 -64 -26 -94.5t-64 -30.5q-23 0 -38.5 7t-27.5 15.5t-22.5 15.5t-21.5 7q-14 0 -24.5 -11t-10.5 -34z" />
    <glyph glyph-name="ograve" unicode="&#xf2;" horiz-adv-x="530" 
d="M265 -10q-49 0 -91.5 18.5t-74.5 51t-50.5 76t-18.5 94.5t18.5 94.5t50.5 76t74.5 51t91.5 18.5t91.5 -18.5t74.5 -51t50.5 -76t18.5 -94.5t-18.5 -94.5t-50.5 -76t-74.5 -51t-91.5 -18.5zM265 115q42 0 71 31t29 84t-29 84t-71 31t-71 -31t-29 -84t29 -84t71 -31z
M120 645h135l65 -130h-105z" />
    <glyph glyph-name="oacute" unicode="&#xf3;" horiz-adv-x="530" 
d="M265 -10q-49 0 -91.5 18.5t-74.5 51t-50.5 76t-18.5 94.5t18.5 94.5t50.5 76t74.5 51t91.5 18.5t91.5 -18.5t74.5 -51t50.5 -76t18.5 -94.5t-18.5 -94.5t-50.5 -76t-74.5 -51t-91.5 -18.5zM265 115q42 0 71 31t29 84t-29 84t-71 31t-71 -31t-29 -84t29 -84t71 -31z
M280 645h135l-95 -130h-105z" />
    <glyph glyph-name="ocircumflex" unicode="&#xf4;" horiz-adv-x="530" 
d="M265 -10q-49 0 -91.5 18.5t-74.5 51t-50.5 76t-18.5 94.5t18.5 94.5t50.5 76t74.5 51t91.5 18.5t91.5 -18.5t74.5 -51t50.5 -76t18.5 -94.5t-18.5 -94.5t-50.5 -76t-74.5 -51t-91.5 -18.5zM265 115q42 0 71 31t29 84t-29 84t-71 31t-71 -31t-29 -84t29 -84t71 -31z
M205 645h120l100 -130h-115l-45 60l-45 -60h-115z" />
    <glyph glyph-name="otilde" unicode="&#xf5;" horiz-adv-x="530" 
d="M265 -10q-49 0 -91.5 18.5t-74.5 51t-50.5 76t-18.5 94.5t18.5 94.5t50.5 76t74.5 51t91.5 18.5t91.5 -18.5t74.5 -51t50.5 -76t18.5 -94.5t-18.5 -94.5t-50.5 -76t-74.5 -51t-91.5 -18.5zM265 115q42 0 71 31t29 84t-29 84t-71 31t-71 -31t-29 -84t29 -84t71 -31z
M110 515q0 64 26 94.5t64 30.5q22 0 38 -7t28 -15.5t22.5 -15.5t21.5 -7q15 0 25 11t10 34l75 -10q0 -64 -26 -94.5t-64 -30.5q-23 0 -38.5 7t-27.5 15.5t-22.5 15.5t-21.5 7q-14 0 -24.5 -11t-10.5 -34z" />
    <glyph glyph-name="odieresis" unicode="&#xf6;" horiz-adv-x="530" 
d="M265 -10q-49 0 -91.5 18.5t-74.5 51t-50.5 76t-18.5 94.5t18.5 94.5t50.5 76t74.5 51t91.5 18.5t91.5 -18.5t74.5 -51t50.5 -76t18.5 -94.5t-18.5 -94.5t-50.5 -76t-74.5 -51t-91.5 -18.5zM265 115q42 0 71 31t29 84t-29 84t-71 31t-71 -31t-29 -84t29 -84t71 -31z
M175 510q-30 0 -50 20t-20 50t20 50t50 20t50 -20t20 -50t-20 -50t-50 -20zM360 510q-30 0 -50 20t-20 50t20 50t50 20t50 -20t20 -50t-20 -50t-50 -20z" />
    <glyph glyph-name="divide" unicode="&#xf7;" horiz-adv-x="470" 
d="M235 15q-30 0 -50 20t-20 50t20 50t50 20t50 -20t20 -50t-20 -50t-50 -20zM35 315h400v-120h-400v120zM235 355q-30 0 -50 20t-20 50t20 50t50 20t50 -20t20 -50t-20 -50t-50 -20z" />
    <glyph glyph-name="oslash" unicode="&#xf8;" horiz-adv-x="540" 
d="M270 -10q-32 0 -57 7t-42 15q-20 10 -36 23l-40 -35l-70 75l40 35q-9 16 -15 34q-6 16 -10.5 38t-4.5 48q0 51 18.5 94.5t50.5 76t74.5 51t91.5 18.5q32 0 57 -7.5t42 -15.5q20 -10 36 -22l40 35l70 -75l-40 -35q8 -17 15 -36q5 -17 10 -38.5t5 -45.5q0 -51 -18.5 -94.5
t-50.5 -76t-74.5 -51t-91.5 -18.5zM270 115q42 0 71 31t29 84q0 5 -1 10.5t-2 10.5t-2 9l-140 -135q4 -3 11 -5q12 -5 34 -5zM315 335q-5 2 -11 5q-6 2 -14.5 3.5t-19.5 1.5q-42 0 -71 -31t-29 -84q0 -6 0.5 -11t1.5 -10t3 -9z" />
    <glyph glyph-name="ugrave" unicode="&#xf9;" 
d="M230 -5q-41 0 -75 13.5t-58.5 39t-38 61.5t-13.5 81v270h135v-245q0 -45 23.5 -70t61.5 -25t61.5 25t23.5 70v245h135v-460h-100l-20 45q-17 -14 -38 -25q-18 -10 -42.5 -17.5t-54.5 -7.5zM125 645h135l65 -130h-105z" />
    <glyph glyph-name="uacute" unicode="&#xfa;" 
d="M230 -5q-41 0 -75 13.5t-58.5 39t-38 61.5t-13.5 81v270h135v-245q0 -45 23.5 -70t61.5 -25t61.5 25t23.5 70v245h135v-460h-100l-20 45q-17 -14 -38 -25q-18 -10 -42.5 -17.5t-54.5 -7.5zM275 645h135l-95 -130h-105z" />
    <glyph glyph-name="ucircumflex" unicode="&#xfb;" 
d="M230 -5q-41 0 -75 13.5t-58.5 39t-38 61.5t-13.5 81v270h135v-245q0 -45 23.5 -70t61.5 -25t61.5 25t23.5 70v245h135v-460h-100l-20 45q-17 -14 -38 -25q-18 -10 -42.5 -17.5t-54.5 -7.5zM205 645h120l100 -130h-115l-45 60l-45 -60h-115z" />
    <glyph glyph-name="udieresis" unicode="&#xfc;" 
d="M230 -5q-41 0 -75 13.5t-58.5 39t-38 61.5t-13.5 81v270h135v-245q0 -45 23.5 -70t61.5 -25t61.5 25t23.5 70v245h135v-460h-100l-20 45q-17 -14 -38 -25q-18 -10 -42.5 -17.5t-54.5 -7.5zM175 510q-30 0 -50 20t-20 50t20 50t50 20t50 -20t20 -50t-20 -50t-50 -20z
M360 510q-30 0 -50 20t-20 50t20 50t50 20t50 -20t20 -50t-20 -50t-50 -20z" />
    <glyph glyph-name="yacute" unicode="&#xfd;" horiz-adv-x="490" 
d="M125 -165q-8 0 -15.5 0.5t-14.5 1.5q-8 1 -15 3v115q42 0 63 17.5t32 47.5l-175 440h145l100 -285l100 285h145l-185 -460q-35 -86 -75.5 -125.5t-104.5 -39.5zM260 645h135l-95 -130h-105z" />
    <glyph glyph-name="thorn" unicode="&#xfe;" horiz-adv-x="545" 
d="M50 630h135v-205q13 11 31 20q15 8 36.5 14t47.5 6q43 0 82 -17.5t68.5 -49t47 -74.5t17.5 -94t-17.5 -94t-47 -74.5t-68.5 -49t-82 -17.5q-26 0 -47.5 6t-36.5 14q-18 9 -31 20v-195h-135v790zM280 120q42 0 71 30.5t29 79.5t-29 79.5t-71 30.5t-71 -30.5t-29 -79.5
t29 -79.5t71 -30.5z" />
    <glyph glyph-name="ydieresis" unicode="&#xff;" horiz-adv-x="490" 
d="M125 -165q-8 0 -15.5 0.5t-14.5 1.5q-8 1 -15 3v115q42 0 63 17.5t32 47.5l-175 440h145l100 -285l100 285h145l-185 -460q-35 -86 -75.5 -125.5t-104.5 -39.5zM160 510q-30 0 -50 20t-20 50t20 50t50 20t50 -20t20 -50t-20 -50t-50 -20zM345 510q-30 0 -50 20t-20 50
t20 50t50 20t50 -20t20 -50t-20 -50t-50 -20z" />
    <glyph glyph-name="Amacron" unicode="&#x100;" horiz-adv-x="590" 
d="M220 630h150l225 -630h-150l-40 120h-220l-40 -120h-150zM365 245l-70 210l-70 -210h140zM165 805h265v-105h-265v105z" />
    <glyph glyph-name="amacron" unicode="&#x101;" horiz-adv-x="485" 
d="M185 -5q-75 0 -115 36.5t-40 93.5q0 34 13.5 62.5t45.5 49t84.5 32t131.5 11.5q0 34 -17 52t-43 18q-19 0 -30.5 -7.5t-18.5 -15.5q-8 -10 -11 -22l-135 10q6 34 21 62.5t39.5 49t59.5 32t80 11.5q41 0 76 -14t60.5 -39.5t39.5 -60.5t14 -76v-280h-100l-20 45
q-17 -14 -38 -25q-18 -10 -42.5 -17.5t-54.5 -7.5zM220 95q38 0 61.5 23.5t23.5 61.5v20q-43 0 -70.5 -4.5t-43 -12.5t-21 -19t-5.5 -24q0 -19 14.5 -32t40.5 -13zM120 625h265v-105h-265v105z" />
    <glyph glyph-name="Abreve" unicode="&#x102;" horiz-adv-x="590" 
d="M220 630h150l225 -630h-150l-40 120h-220l-40 -120h-150zM365 245l-70 210l-70 -210h140zM295 690q-30 0 -55 10t-44 27t-30.5 41t-15.5 52h95q4 -23 17.5 -36.5t32.5 -13.5t32.5 13.5t17.5 36.5h95q-8 -56 -46.5 -93t-98.5 -37z" />
    <glyph glyph-name="abreve" unicode="&#x103;" horiz-adv-x="485" 
d="M185 -5q-75 0 -115 36.5t-40 93.5q0 34 13.5 62.5t45.5 49t84.5 32t131.5 11.5q0 34 -17 52t-43 18q-19 0 -30.5 -7.5t-18.5 -15.5q-8 -10 -11 -22l-135 10q6 34 21 62.5t39.5 49t59.5 32t80 11.5q41 0 76 -14t60.5 -39.5t39.5 -60.5t14 -76v-280h-100l-20 45
q-17 -14 -38 -25q-18 -10 -42.5 -17.5t-54.5 -7.5zM220 95q38 0 61.5 23.5t23.5 61.5v20q-43 0 -70.5 -4.5t-43 -12.5t-21 -19t-5.5 -24q0 -19 14.5 -32t40.5 -13zM255 510q-30 0 -55 10t-44 27t-30.5 41t-15.5 52h95q4 -23 17.5 -36.5t32.5 -13.5t32.5 13.5t17.5 36.5h95
q-8 -56 -46.5 -93t-98.5 -37z" />
    <glyph glyph-name="Aogonek" unicode="&#x104;" horiz-adv-x="590" 
d="M510 -190q-53 0 -81.5 26t-28.5 64q0 20 7 38.5t15 32.5q10 16 23 29l-40 120h-220l-40 -120h-150l225 630h150l225 -630h-75q-9 -13 -15 -25q-6 -11 -10.5 -24t-4.5 -26q0 -19 13 -32t32 -13q9 0 16.5 0.5t12.5 1.5q6 1 11 3v-65q-8 -3 -18 -5q-18 -5 -47 -5zM365 245
l-70 210l-70 -210h140z" />
    <glyph glyph-name="aogonek" unicode="&#x105;" horiz-adv-x="485" 
d="M405 -190q-53 0 -81.5 26t-28.5 64q0 20 7 38.5t15 32.5q10 16 23 29l-20 45q-17 -14 -38 -25q-18 -10 -42.5 -17.5t-54.5 -7.5q-75 0 -115 36.5t-40 93.5q0 34 13.5 62.5t45.5 49t84.5 32t131.5 11.5q0 34 -17 52t-43 18q-19 0 -30.5 -7.5t-18.5 -15.5q-8 -10 -11 -22
l-135 10q6 34 21 62.5t39.5 49t59.5 32t80 11.5q41 0 76 -14t60.5 -39.5t39.5 -60.5t14 -76v-280h-25q-9 -13 -15 -25q-6 -11 -10.5 -24t-4.5 -26q0 -19 13 -32t32 -13q9 0 16.5 0.5t12.5 1.5q6 1 11 3v-65q-8 -3 -18 -5q-18 -5 -47 -5zM220 95q38 0 61.5 23.5t23.5 61.5v20
q-43 0 -70.5 -4.5t-43 -12.5t-21 -19t-5.5 -24q0 -19 14.5 -32t40.5 -13z" />
    <glyph glyph-name="Cacute" unicode="&#x106;" horiz-adv-x="650" 
d="M340 -5q-64 0 -120.5 24.5t-98.5 68t-66.5 101.5t-24.5 126q0 67 24.5 125.5t66.5 102t98.5 68t120.5 24.5q56 0 103.5 -18.5t84 -49t61.5 -71.5t36 -86l-150 -10q-6 19 -17 36t-28 30t-39.5 21t-50.5 8q-34 0 -64 -13.5t-52.5 -37.5t-35.5 -57t-13 -72t13 -72t35.5 -57
t52.5 -37.5t64 -13.5q60 0 94.5 28.5t45.5 66.5l150 -10q-11 -45 -36 -86t-62 -71.5t-85.5 -49t-106.5 -18.5zM355 825h135l-95 -130h-105z" />
    <glyph glyph-name="cacute" unicode="&#x107;" horiz-adv-x="510" 
d="M265 -10q-49 0 -91.5 18.5t-74.5 51t-50.5 76t-18.5 94.5t18.5 94.5t50.5 76t74.5 51t91.5 18.5q34 0 62 -7.5t50 -20.5t38.5 -29t28.5 -33q28 -40 41 -90l-135 -10q-7 18 -18 32q-10 12 -26.5 22.5t-40.5 10.5q-42 0 -71 -31t-29 -84t29 -84t71 -31q24 0 40.5 10
t26.5 22q11 14 18 33l135 -10q-13 -50 -41 -90q-12 -17 -28.5 -33t-38.5 -29t-50 -20.5t-62 -7.5zM275 645h135l-95 -130h-105z" />
    <glyph glyph-name="Ccircumflex" unicode="&#x108;" horiz-adv-x="650" 
d="M340 -5q-64 0 -120.5 24.5t-98.5 68t-66.5 101.5t-24.5 126q0 67 24.5 125.5t66.5 102t98.5 68t120.5 24.5q56 0 103.5 -18.5t84 -49t61.5 -71.5t36 -86l-150 -10q-6 19 -17 36t-28 30t-39.5 21t-50.5 8q-34 0 -64 -13.5t-52.5 -37.5t-35.5 -57t-13 -72t13 -72t35.5 -57
t52.5 -37.5t64 -13.5q60 0 94.5 28.5t45.5 66.5l150 -10q-11 -45 -36 -86t-62 -71.5t-85.5 -49t-106.5 -18.5zM285 825h120l100 -130h-115l-45 60l-45 -60h-115z" />
    <glyph glyph-name="ccircumflex" unicode="&#x109;" horiz-adv-x="510" 
d="M265 -10q-49 0 -91.5 18.5t-74.5 51t-50.5 76t-18.5 94.5t18.5 94.5t50.5 76t74.5 51t91.5 18.5q34 0 62 -7.5t50 -20.5t38.5 -29t28.5 -33q28 -40 41 -90l-135 -10q-7 18 -18 32q-10 12 -26.5 22.5t-40.5 10.5q-42 0 -71 -31t-29 -84t29 -84t71 -31q24 0 40.5 10
t26.5 22q11 14 18 33l135 -10q-13 -50 -41 -90q-12 -17 -28.5 -33t-38.5 -29t-50 -20.5t-62 -7.5zM205 645h120l100 -130h-115l-45 60l-45 -60h-115z" />
    <glyph glyph-name="Cdotaccent" unicode="&#x10a;" horiz-adv-x="650" 
d="M340 -5q-64 0 -120.5 24.5t-98.5 68t-66.5 101.5t-24.5 126q0 67 24.5 125.5t66.5 102t98.5 68t120.5 24.5q56 0 103.5 -18.5t84 -49t61.5 -71.5t36 -86l-150 -10q-6 19 -17 36t-28 30t-39.5 21t-50.5 8q-34 0 -64 -13.5t-52.5 -37.5t-35.5 -57t-13 -72t13 -72t35.5 -57
t52.5 -37.5t64 -13.5q60 0 94.5 28.5t45.5 66.5l150 -10q-11 -45 -36 -86t-62 -71.5t-85.5 -49t-106.5 -18.5zM340 690q-30 0 -52.5 22.5t-22.5 52.5t22.5 52.5t52.5 22.5t52.5 -22.5t22.5 -52.5t-22.5 -52.5t-52.5 -22.5z" />
    <glyph glyph-name="cdotaccent" unicode="&#x10b;" horiz-adv-x="510" 
d="M265 -10q-49 0 -91.5 18.5t-74.5 51t-50.5 76t-18.5 94.5t18.5 94.5t50.5 76t74.5 51t91.5 18.5q34 0 62 -7.5t50 -20.5t38.5 -29t28.5 -33q28 -40 41 -90l-135 -10q-7 18 -18 32q-10 12 -26.5 22.5t-40.5 10.5q-42 0 -71 -31t-29 -84t29 -84t71 -31q24 0 40.5 10
t26.5 22q11 14 18 33l135 -10q-13 -50 -41 -90q-12 -17 -28.5 -33t-38.5 -29t-50 -20.5t-62 -7.5zM265 510q-30 0 -52.5 22.5t-22.5 52.5t22.5 52.5t52.5 22.5t52.5 -22.5t22.5 -52.5t-22.5 -52.5t-52.5 -22.5z" />
    <glyph glyph-name="Ccaron" unicode="&#x10c;" horiz-adv-x="650" 
d="M340 -5q-64 0 -120.5 24.5t-98.5 68t-66.5 101.5t-24.5 126q0 67 24.5 125.5t66.5 102t98.5 68t120.5 24.5q56 0 103.5 -18.5t84 -49t61.5 -71.5t36 -86l-150 -10q-6 19 -17 36t-28 30t-39.5 21t-50.5 8q-34 0 -64 -13.5t-52.5 -37.5t-35.5 -57t-13 -72t13 -72t35.5 -57
t52.5 -37.5t64 -13.5q60 0 94.5 28.5t45.5 66.5l150 -10q-11 -45 -36 -86t-62 -71.5t-85.5 -49t-106.5 -18.5zM185 825h115l45 -60l45 60h115l-100 -130h-120z" />
    <glyph glyph-name="ccaron" unicode="&#x10d;" horiz-adv-x="510" 
d="M265 -10q-49 0 -91.5 18.5t-74.5 51t-50.5 76t-18.5 94.5t18.5 94.5t50.5 76t74.5 51t91.5 18.5q34 0 62 -7.5t50 -20.5t38.5 -29t28.5 -33q28 -40 41 -90l-135 -10q-7 18 -18 32q-10 12 -26.5 22.5t-40.5 10.5q-42 0 -71 -31t-29 -84t29 -84t71 -31q24 0 40.5 10
t26.5 22q11 14 18 33l135 -10q-13 -50 -41 -90q-12 -17 -28.5 -33t-38.5 -29t-50 -20.5t-62 -7.5zM105 645h115l45 -60l45 60h115l-100 -130h-120z" />
    <glyph glyph-name="Dcaron" unicode="&#x10e;" horiz-adv-x="620" 
d="M60 630h215q66 0 123 -24.5t100 -67.5t67.5 -100t24.5 -123t-24.5 -123t-67.5 -100t-100 -67.5t-123 -24.5h-215v630zM275 140q36 0 67 13.5t54 36.5t36 55t13 70q0 37 -13 69.5t-36 55.5t-54 36.5t-67 13.5h-70v-350h70zM144 825h115l45 -60l45 60h115l-100 -130h-120z
" />
    <glyph glyph-name="dcaron" unicode="&#x10f;" horiz-adv-x="660" 
d="M580 630h125l-65 -130h-95zM245 -5q-43 0 -82 17.5t-68.5 49t-47 74.5t-17.5 94t17.5 94t47 74.5t68.5 49t82 17.5q26 0 47.5 -6t36.5 -14q18 -9 31 -20v205h135v-630h-100l-20 45q-16 -14 -35 -25q-17 -10 -41 -17.5t-54 -7.5zM265 120q42 0 71 30.5t29 79.5t-29 79.5
t-71 30.5t-71 -30.5t-29 -79.5t29 -79.5t71 -30.5z" />
    <glyph glyph-name="Dcroat" unicode="&#x110;" horiz-adv-x="650" 
d="M90 250h-70v120h70v260h215q66 0 123 -24.5t100 -67.5t67.5 -100t24.5 -123t-24.5 -123t-67.5 -100t-100 -67.5t-123 -24.5h-215v250zM305 140q36 0 67 13.5t54 36.5t36 55t13 70q0 37 -13 69.5t-36 55.5t-54 36.5t-67 13.5h-70v-120h100v-120h-100v-110h70z" />
    <glyph glyph-name="dcroat" unicode="&#x111;" horiz-adv-x="560" 
d="M235 -5q-41 0 -78.5 16.5t-65.5 46t-44.5 68.5t-16.5 84t16.5 84t44.5 68.5t65.5 46t78.5 16.5q28 0 50 -6t36 -14q17 -9 29 -20v75h-115v110h115v60h135v-60h65v-110h-65v-460h-100l-20 45q-16 -14 -35 -25q-17 -10 -41 -17.5t-54 -7.5zM260 120q42 0 68.5 26t26.5 64
t-26.5 64t-68.5 26t-68.5 -26t-26.5 -64t26.5 -64t68.5 -26z" />
    <glyph glyph-name="Emacron" unicode="&#x112;" horiz-adv-x="560" 
d="M60 630h450v-140h-305v-100h280v-140h-280v-110h315v-140h-460v630zM160 805h265v-105h-265v105z" />
    <glyph glyph-name="emacron" unicode="&#x113;" horiz-adv-x="515" 
d="M260 -10q-47 0 -88.5 18.5t-73 51t-50 76t-18.5 94.5t18.5 94.5t50.5 76t74.5 51t91.5 18.5q47 0 88 -17t71.5 -48.5t48 -76t17.5 -98.5q0 -8 -1 -15.5t-2 -14.5q-1 -8 -2 -15h-315q8 -26 32.5 -48t62.5 -22q19 0 32.5 4.5t21.5 10.5q10 6 16 15l140 -10q-9 -28 -27 -54
t-45 -46.5t-62.5 -32.5t-80.5 -12zM360 270q-8 30 -32.5 52.5t-62.5 22.5t-62.5 -22.5t-32.5 -52.5h190zM135 625h265v-105h-265v105z" />
    <glyph glyph-name="Ebreve" unicode="&#x114;" horiz-adv-x="560" 
d="M60 630h450v-140h-305v-100h280v-140h-280v-110h315v-140h-460v630zM290 690q-30 0 -55 10t-44 27t-30.5 41t-15.5 52h95q4 -23 17.5 -36.5t32.5 -13.5t32.5 13.5t17.5 36.5h95q-8 -56 -46.5 -93t-98.5 -37z" />
    <glyph glyph-name="ebreve" unicode="&#x115;" horiz-adv-x="515" 
d="M260 -10q-47 0 -88.5 18.5t-73 51t-50 76t-18.5 94.5t18.5 94.5t50.5 76t74.5 51t91.5 18.5q47 0 88 -17t71.5 -48.5t48 -76t17.5 -98.5q0 -8 -1 -15.5t-2 -14.5q-1 -8 -2 -15h-315q8 -26 32.5 -48t62.5 -22q19 0 32.5 4.5t21.5 10.5q10 6 16 15l140 -10q-9 -28 -27 -54
t-45 -46.5t-62.5 -32.5t-80.5 -12zM360 270q-8 30 -32.5 52.5t-62.5 22.5t-62.5 -22.5t-32.5 -52.5h190zM265 510q-30 0 -55 10t-44 27t-30.5 41t-15.5 52h95q4 -23 17.5 -36.5t32.5 -13.5t32.5 13.5t17.5 36.5h95q-8 -56 -46.5 -93t-98.5 -37z" />
    <glyph glyph-name="Edotaccent" unicode="&#x116;" horiz-adv-x="560" 
d="M60 630h450v-140h-305v-100h280v-140h-280v-110h315v-140h-460v630zM290 690q-30 0 -52.5 22.5t-22.5 52.5t22.5 52.5t52.5 22.5t52.5 -22.5t22.5 -52.5t-22.5 -52.5t-52.5 -22.5z" />
    <glyph glyph-name="edotaccent" unicode="&#x117;" horiz-adv-x="515" 
d="M260 -10q-47 0 -88.5 18.5t-73 51t-50 76t-18.5 94.5t18.5 94.5t50.5 76t74.5 51t91.5 18.5q47 0 88 -17t71.5 -48.5t48 -76t17.5 -98.5q0 -8 -1 -15.5t-2 -14.5q-1 -8 -2 -15h-315q8 -26 32.5 -48t62.5 -22q19 0 32.5 4.5t21.5 10.5q10 6 16 15l140 -10q-9 -28 -27 -54
t-45 -46.5t-62.5 -32.5t-80.5 -12zM360 270q-8 30 -32.5 52.5t-62.5 22.5t-62.5 -22.5t-32.5 -52.5h190zM265 510q-30 0 -52.5 22.5t-22.5 52.5t22.5 52.5t52.5 22.5t52.5 -22.5t22.5 -52.5t-22.5 -52.5t-52.5 -22.5z" />
    <glyph glyph-name="Eogonek" unicode="&#x118;" horiz-adv-x="560" 
d="M510 -190q-53 0 -81.5 26t-28.5 64q0 20 7 38.5t15 32.5q10 16 23 29h-385v630h450v-140h-305v-100h280v-140h-280v-110h315v-140q-9 -13 -15 -25q-6 -11 -10.5 -24t-4.5 -26q0 -19 13 -32t32 -13q9 0 16.5 0.5t12.5 1.5q6 1 11 3v-65q-8 -3 -18 -5q-18 -5 -47 -5z" />
    <glyph glyph-name="eogonek" unicode="&#x119;" horiz-adv-x="515" 
d="M300 -190q-53 0 -81.5 26t-28.5 64q0 32 14 56.5t24 35.5q-42 6 -78 26.5t-62.5 52t-42 72t-15.5 87.5q0 51 18.5 94.5t50.5 76t74.5 51t91.5 18.5q47 0 88 -17t71.5 -48.5t48 -76t17.5 -98.5q0 -8 -1 -15.5t-2 -14.5q-1 -8 -2 -15h-315q8 -26 32.5 -48t62.5 -22
q19 0 32.5 4.5t21.5 10.5q10 6 16 15l140 -10q-8 -24 -22.5 -47t-35.5 -42t-49 -32.5t-63 -19.5q-6 -10 -15.5 -29.5t-9.5 -39.5q0 -19 13 -32t32 -13q9 0 16.5 0.5t12.5 1.5q6 1 11 3v-65q-8 -3 -18 -5q-18 -5 -47 -5zM360 270q-8 30 -32.5 52.5t-62.5 22.5t-62.5 -22.5
t-32.5 -52.5h190z" />
    <glyph glyph-name="Ecaron" unicode="&#x11a;" horiz-adv-x="560" 
d="M60 630h450v-140h-305v-100h280v-140h-280v-110h315v-140h-460v630zM130 825h115l45 -60l45 60h115l-100 -130h-120z" />
    <glyph glyph-name="ecaron" unicode="&#x11b;" horiz-adv-x="515" 
d="M260 -10q-47 0 -88.5 18.5t-73 51t-50 76t-18.5 94.5t18.5 94.5t50.5 76t74.5 51t91.5 18.5q47 0 88 -17t71.5 -48.5t48 -76t17.5 -98.5q0 -8 -1 -15.5t-2 -14.5q-1 -8 -2 -15h-315q8 -26 32.5 -48t62.5 -22q19 0 32.5 4.5t21.5 10.5q10 6 16 15l140 -10q-9 -28 -27 -54
t-45 -46.5t-62.5 -32.5t-80.5 -12zM360 270q-8 30 -32.5 52.5t-62.5 22.5t-62.5 -22.5t-32.5 -52.5h190zM105 645h115l45 -60l45 60h115l-100 -130h-120z" />
    <glyph glyph-name="Gcircumflex" unicode="&#x11c;" horiz-adv-x="695" 
d="M340 -5q-64 0 -120.5 24.5t-98.5 68t-66.5 101.5t-24.5 126q0 67 24.5 125.5t66.5 102t98.5 68t120.5 24.5q56 0 103.5 -18t84 -48.5t61.5 -70.5t36 -83l-150 -10q-6 17 -17 33t-28 29t-39.5 20.5t-50.5 7.5q-34 0 -64 -13.5t-52.5 -37.5t-35.5 -57t-13 -72t13 -72
t35.5 -57t52.5 -37.5t64 -13.5q30 0 53.5 7.5t41 20t28.5 27.5t17 30h-140v120h305v-340h-100l-25 60q-22 -19 -49 -33q-23 -12 -56 -22t-75 -10zM290 825h120l100 -130h-115l-45 60l-45 -60h-115z" />
    <glyph glyph-name="gcircumflex" unicode="&#x11d;" horiz-adv-x="540" 
d="M260 -170q-64 0 -105.5 24t-65.5 53q-29 34 -44 78l135 10q6 -13 17 -23q9 -8 24.5 -15t38.5 -7q42 0 68.5 26t26.5 64v25q-11 -11 -28 -20q-14 -8 -35.5 -14t-51.5 -6q-43 0 -81.5 17t-67 46.5t-45 69.5t-16.5 87t16.5 87t45 69.5t67 46.5t81.5 17q30 0 54 -8t41 -17
q19 -11 35 -25l20 45h100v-420q0 -45 -16.5 -83.5t-46.5 -66.5t-72.5 -44t-94.5 -16zM260 150q42 0 68.5 26.5t26.5 68.5t-26.5 68.5t-68.5 26.5t-68.5 -26.5t-26.5 -68.5t26.5 -68.5t68.5 -26.5zM210 645h120l100 -130h-115l-45 60l-45 -60h-115z" />
    <glyph glyph-name="Gbreve" unicode="&#x11e;" horiz-adv-x="695" 
d="M340 -5q-64 0 -120.5 24.5t-98.5 68t-66.5 101.5t-24.5 126q0 67 24.5 125.5t66.5 102t98.5 68t120.5 24.5q56 0 103.5 -18t84 -48.5t61.5 -70.5t36 -83l-150 -10q-6 17 -17 33t-28 29t-39.5 20.5t-50.5 7.5q-34 0 -64 -13.5t-52.5 -37.5t-35.5 -57t-13 -72t13 -72
t35.5 -57t52.5 -37.5t64 -13.5q30 0 53.5 7.5t41 20t28.5 27.5t17 30h-140v120h305v-340h-100l-25 60q-22 -19 -49 -33q-23 -12 -56 -22t-75 -10zM350 690q-30 0 -55 10t-44 27t-30.5 41t-15.5 52h95q4 -23 17.5 -36.5t32.5 -13.5t32.5 13.5t17.5 36.5h95q-8 -56 -46.5 -93
t-98.5 -37z" />
    <glyph glyph-name="gbreve" unicode="&#x11f;" horiz-adv-x="540" 
d="M260 -170q-64 0 -105.5 24t-65.5 53q-29 34 -44 78l135 10q6 -13 17 -23q9 -8 24.5 -15t38.5 -7q42 0 68.5 26t26.5 64v25q-11 -11 -28 -20q-14 -8 -35.5 -14t-51.5 -6q-43 0 -81.5 17t-67 46.5t-45 69.5t-16.5 87t16.5 87t45 69.5t67 46.5t81.5 17q30 0 54 -8t41 -17
q19 -11 35 -25l20 45h100v-420q0 -45 -16.5 -83.5t-46.5 -66.5t-72.5 -44t-94.5 -16zM260 150q42 0 68.5 26.5t26.5 68.5t-26.5 68.5t-68.5 26.5t-68.5 -26.5t-26.5 -68.5t26.5 -68.5t68.5 -26.5zM270 510q-30 0 -55 10t-44 27t-30.5 41t-15.5 52h95q4 -23 17.5 -36.5
t32.5 -13.5t32.5 13.5t17.5 36.5h95q-8 -56 -46.5 -93t-98.5 -37z" />
    <glyph glyph-name="Gdotaccent" unicode="&#x120;" horiz-adv-x="695" 
d="M340 -5q-64 0 -120.5 24.5t-98.5 68t-66.5 101.5t-24.5 126q0 67 24.5 125.5t66.5 102t98.5 68t120.5 24.5q56 0 103.5 -18t84 -48.5t61.5 -70.5t36 -83l-150 -10q-6 17 -17 33t-28 29t-39.5 20.5t-50.5 7.5q-34 0 -64 -13.5t-52.5 -37.5t-35.5 -57t-13 -72t13 -72
t35.5 -57t52.5 -37.5t64 -13.5q30 0 53.5 7.5t41 20t28.5 27.5t17 30h-140v120h305v-340h-100l-25 60q-22 -19 -49 -33q-23 -12 -56 -22t-75 -10zM345 690q-30 0 -52.5 22.5t-22.5 52.5t22.5 52.5t52.5 22.5t52.5 -22.5t22.5 -52.5t-22.5 -52.5t-52.5 -22.5z" />
    <glyph glyph-name="gdotaccent" unicode="&#x121;" horiz-adv-x="540" 
d="M260 -170q-64 0 -105.5 24t-65.5 53q-29 34 -44 78l135 10q6 -13 17 -23q9 -8 24.5 -15t38.5 -7q42 0 68.5 26t26.5 64v25q-11 -11 -28 -20q-14 -8 -35.5 -14t-51.5 -6q-43 0 -81.5 17t-67 46.5t-45 69.5t-16.5 87t16.5 87t45 69.5t67 46.5t81.5 17q30 0 54 -8t41 -17
q19 -11 35 -25l20 45h100v-420q0 -45 -16.5 -83.5t-46.5 -66.5t-72.5 -44t-94.5 -16zM260 150q42 0 68.5 26.5t26.5 68.5t-26.5 68.5t-68.5 26.5t-68.5 -26.5t-26.5 -68.5t26.5 -68.5t68.5 -26.5zM270 510q-30 0 -52.5 22.5t-22.5 52.5t22.5 52.5t52.5 22.5t52.5 -22.5
t22.5 -52.5t-22.5 -52.5t-52.5 -22.5z" />
    <glyph glyph-name="uni0122" unicode="&#x122;" horiz-adv-x="695" 
d="M340 -5q-64 0 -120.5 24.5t-98.5 68t-66.5 101.5t-24.5 126q0 67 24.5 125.5t66.5 102t98.5 68t120.5 24.5q56 0 103.5 -18t84 -48.5t61.5 -70.5t36 -83l-150 -10q-6 17 -17 33t-28 29t-39.5 20.5t-50.5 7.5q-34 0 -64 -13.5t-52.5 -37.5t-35.5 -57t-13 -72t13 -72
t35.5 -57t52.5 -37.5t64 -13.5q30 0 53.5 7.5t41 20t28.5 27.5t17 30h-140v120h305v-340h-100l-25 60q-22 -19 -49 -33q-23 -12 -56 -22t-75 -10zM300 -260q11 7 21 17q8 8 16.5 20.5t12.5 27.5q-30 0 -50 20t-20 50t20 50t50 20t50 -20.5t20 -54.5q0 -40 -15.5 -69.5
t-34.5 -49.5q-22 -24 -50 -41z" />
    <glyph glyph-name="uni0123" unicode="&#x123;" horiz-adv-x="540" 
d="M271 510q-30 0 -50 20.5t-20 54.5q0 39 15.5 69t34.5 50q22 24 50 41l20 -30q-11 -8 -21 -18q-8 -8 -16.5 -20t-12.5 -27q30 0 50 -20t20 -50t-20 -50t-50 -20zM260 -170q-64 0 -105.5 24t-65.5 53q-29 34 -44 78l135 10q6 -13 17 -23q9 -8 24.5 -15t38.5 -7
q42 0 68.5 26t26.5 64v25q-11 -11 -28 -20q-14 -8 -35.5 -14t-51.5 -6q-43 0 -81.5 17t-67 46.5t-45 69.5t-16.5 87t16.5 87t45 69.5t67 46.5t81.5 17q30 0 54 -8t41 -17q19 -11 35 -25l20 45h100v-420q0 -45 -16.5 -83.5t-46.5 -66.5t-72.5 -44t-94.5 -16zM260 150
q42 0 68.5 26.5t26.5 68.5t-26.5 68.5t-68.5 26.5t-68.5 -26.5t-26.5 -68.5t26.5 -68.5t68.5 -26.5z" />
    <glyph glyph-name="Hcircumflex" unicode="&#x124;" horiz-adv-x="650" 
d="M60 630h145v-240h240v240h145v-630h-145v250h-240v-250h-145v630zM265 825h120l100 -130h-115l-45 60l-45 -60h-115z" />
    <glyph glyph-name="hcircumflex" unicode="&#x125;" 
d="M50 630h135v-215q13 14 31 25q16 9 40.5 17t58.5 8q37 0 69.5 -13.5t55.5 -39t36.5 -61.5t13.5 -81v-270h-135v245q0 45 -23.5 70t-61.5 25t-61.5 -25t-23.5 -70v-245h-135v630zM210 825h120l100 -130h-115l-45 60l-45 -60h-115z" />
    <glyph glyph-name="Hbar" unicode="&#x126;" horiz-adv-x="700" 
d="M85 440h-70v120h70v70h145v-70h240v70h145v-70h70v-120h-70v-440h-145v250h-240v-250h-145v440zM470 390v50h-240v-50h240z" />
    <glyph glyph-name="hbar" unicode="&#x127;" horiz-adv-x="560" 
d="M75 460h-70v110h70v60h135v-60h110v-110h-110v-90q13 14 31 25q16 9 40.5 17t58.5 8q37 0 69.5 -13.5t55.5 -39t36.5 -61.5t13.5 -81v-225h-135v200q0 45 -23.5 70t-61.5 25t-61.5 -25t-23.5 -70v-200h-135v460z" />
    <glyph glyph-name="Itilde" unicode="&#x128;" horiz-adv-x="265" 
d="M60 630h145v-630h-145v630zM-25 695q0 64 26 94.5t64 30.5q22 0 38 -7t28 -15.5t22.5 -15.5t21.5 -7q15 0 25 11t10 34l75 -10q0 -64 -26 -94.5t-64 -30.5q-23 0 -38.5 7t-27.5 15.5t-22.5 15.5t-21.5 7q-14 0 -24.5 -11t-10.5 -34z" />
    <glyph glyph-name="itilde" unicode="&#x129;" horiz-adv-x="235" 
d="M50 460h135v-460h-135v460zM-40 520q0 64 26 94.5t64 30.5q22 0 38 -7t28 -15.5t22.5 -15.5t21.5 -7q15 0 25 11t10 34l75 -10q0 -64 -26 -94.5t-64 -30.5q-23 0 -38.5 7t-27.5 15.5t-22.5 15.5t-21.5 7q-14 0 -24.5 -11t-10.5 -34z" />
    <glyph glyph-name="Imacron" unicode="&#x12a;" horiz-adv-x="265" 
d="M60 630h145v-630h-145v630zM0 805h265v-105h-265v105z" />
    <glyph glyph-name="imacron" unicode="&#x12b;" horiz-adv-x="235" 
d="M50 460h135v-460h-135v460zM-15 625h265v-105h-265v105z" />
    <glyph glyph-name="Ibreve" unicode="&#x12c;" horiz-adv-x="265" 
d="M60 630h145v-630h-145v630zM135 690q-30 0 -55 10t-44 27t-30.5 41t-15.5 52h95q4 -23 17.5 -36.5t32.5 -13.5t32.5 13.5t17.5 36.5h95q-8 -56 -46.5 -93t-98.5 -37z" />
    <glyph glyph-name="ibreve" unicode="&#x12d;" horiz-adv-x="235" 
d="M50 460h135v-460h-135v460zM115 510q-30 0 -55 10t-44 27t-30.5 41t-15.5 52h95q4 -23 17.5 -36.5t32.5 -13.5t32.5 13.5t17.5 36.5h95q-8 -56 -46.5 -93t-98.5 -37z" />
    <glyph glyph-name="Iogonek" unicode="&#x12e;" horiz-adv-x="265" 
d="M125 -190q-53 0 -81.5 26t-28.5 64q0 20 7 38.5t15 32.5q10 16 23 29v630h145v-630h-70q-9 -13 -15 -25q-6 -11 -10.5 -24t-4.5 -26q0 -19 13 -32t32 -13q9 0 16.5 0.5t12.5 1.5q6 1 11 3v-65q-8 -3 -18 -5q-18 -5 -47 -5z" />
    <glyph glyph-name="iogonek" unicode="&#x12f;" horiz-adv-x="235" 
d="M115 -190q-53 0 -81.5 26t-28.5 64q0 20 7 38.5t15 32.5q10 16 23 29v460h135v-460h-60q-9 -13 -15 -25q-6 -11 -10.5 -24t-4.5 -26q0 -19 13 -32t32 -13q9 0 16.5 0.5t12.5 1.5q6 1 11 3v-65q-8 -3 -18 -5q-18 -5 -47 -5zM120 510q-30 0 -52.5 22.5t-22.5 52.5
t22.5 52.5t52.5 22.5t52.5 -22.5t22.5 -52.5t-22.5 -52.5t-52.5 -22.5z" />
    <glyph glyph-name="Idotaccent" unicode="&#x130;" horiz-adv-x="265" 
d="M60 630h145v-630h-145v630zM135 690q-30 0 -52.5 22.5t-22.5 52.5t22.5 52.5t52.5 22.5t52.5 -22.5t22.5 -52.5t-22.5 -52.5t-52.5 -22.5z" />
    <glyph glyph-name="dotlessi" unicode="&#x131;" horiz-adv-x="235" 
d="M50 460h135v-460h-135v460z" />
    <glyph glyph-name="IJ" unicode="&#x132;" horiz-adv-x="730" 
d="M60 630h145v-630h-145v630zM465 -5q-49 0 -88.5 15t-67.5 42.5t-43.5 65t-15.5 82.5q18 1 42.5 2.5t47.5 3.5q26 2 55 4q0 -34 20 -54.5t50 -20.5t50 20.5t20 54.5v420h145v-420q0 -49 -15.5 -88.5t-43.5 -67.5t-67.5 -43.5t-88.5 -15.5z" />
    <glyph glyph-name="ij" unicode="&#x133;" horiz-adv-x="480" 
d="M50 460h135v-460h-135v460zM265 -165q-26 0 -46 5q-11 2 -19 5v120q5 -2 10 -3t11 -1.5t14 -0.5q26 0 43 17.5t17 47.5v435h135v-455q0 -83 -43 -126.5t-122 -43.5zM120 510q-30 0 -52.5 22.5t-22.5 52.5t22.5 52.5t52.5 22.5t52.5 -22.5t22.5 -52.5t-22.5 -52.5
t-52.5 -22.5zM365 510q-30 0 -52.5 22.5t-22.5 52.5t22.5 52.5t52.5 22.5t52.5 -22.5t22.5 -52.5t-22.5 -52.5t-52.5 -22.5z" />
    <glyph glyph-name="Jcircumflex" unicode="&#x134;" horiz-adv-x="485" 
d="M220 -5q-49 0 -88.5 15t-67.5 42.5t-43.5 65t-15.5 82.5q18 1 42.5 2.5t47.5 3.5q26 2 55 4q0 -34 20 -54.5t50 -20.5t50 20.5t20 54.5v420h145v-420q0 -49 -15.5 -88.5t-43.5 -67.5t-67.5 -43.5t-88.5 -15.5zM300 825h120l100 -130h-115l-45 60l-45 -60h-115z" />
    <glyph glyph-name="jcircumflex" unicode="&#x135;" horiz-adv-x="235" 
d="M20 -165q-26 0 -46 5q-11 2 -19 5v120q5 -2 10 -3t11 -1.5t14 -0.5q26 0 43 17.5t17 47.5v435h135v-455q0 -83 -43 -126.5t-122 -43.5zM55 645h120l100 -130h-115l-45 60l-45 -60h-115z" />
    <glyph glyph-name="uni0136" unicode="&#x136;" horiz-adv-x="565" 
d="M60 630h145v-270l190 270h165l-222 -310l237 -320h-165l-205 280v-280h-145v630zM250 -260q11 7 21 17q8 8 16.5 20.5t12.5 27.5q-30 0 -50 20t-20 50t20 50t50 20t50 -20.5t20 -54.5q0 -40 -15.5 -69.5t-34.5 -49.5q-22 -24 -50 -41z" />
    <glyph glyph-name="uni0137" unicode="&#x137;" horiz-adv-x="470" 
d="M50 630h135v-355l125 185h155l-155 -220l170 -240h-155l-140 205v-205h-135v630zM205 -260q11 7 21 17q8 8 16.5 20.5t12.5 27.5q-30 0 -50 20t-20 50t20 50t50 20t50 -20.5t20 -54.5q0 -40 -15.5 -69.5t-34.5 -49.5q-22 -24 -50 -41z" />
    <glyph glyph-name="Lacute" unicode="&#x139;" horiz-adv-x="500" 
d="M60 630h145v-490h285v-140h-430v630zM145 825h135l-95 -130h-105z" />
    <glyph glyph-name="lacute" unicode="&#x13a;" horiz-adv-x="240" 
d="M50 630h135v-630h-135v630zM130 825h135l-95 -130h-105z" />
    <glyph glyph-name="uni013B" unicode="&#x13b;" horiz-adv-x="500" 
d="M60 630h145v-490h285v-140h-430v630zM235 -260q11 7 21 17q8 8 16.5 20.5t12.5 27.5q-30 0 -50 20t-20 50t20 50t50 20t50 -20.5t20 -54.5q0 -40 -15.5 -69.5t-34.5 -49.5q-22 -24 -50 -41z" />
    <glyph glyph-name="uni013C" unicode="&#x13c;" horiz-adv-x="240" 
d="M50 630h135v-630h-135v630zM70 -260q11 7 21 17q8 8 16.5 20.5t12.5 27.5q-30 0 -50 20t-20 50t20 50t50 20t50 -20.5t20 -54.5q0 -40 -15.5 -69.5t-34.5 -49.5q-22 -24 -50 -41z" />
    <glyph glyph-name="Lcaron" unicode="&#x13d;" horiz-adv-x="500" 
d="M290 630h125l-65 -130h-95zM60 630h145v-490h285v-140h-430v630z" />
    <glyph glyph-name="lcaron" unicode="&#x13e;" horiz-adv-x="350" 
d="M270 630h125l-65 -130h-95zM50 630h135v-630h-135v630z" />
    <glyph glyph-name="Ldot" unicode="&#x13f;" horiz-adv-x="500" 
d="M60 630h145v-490h285v-140h-430v630z" />
    <glyph glyph-name="ldot" unicode="&#x140;" horiz-adv-x="400" 
d="M50 630h135v-630h-135v630z" />
    <glyph glyph-name="Lslash" unicode="&#x141;" horiz-adv-x="520" 
d="M80 165l-70 -45v130l70 45v335h145v-240l125 80v-130l-125 -80v-120h285v-140h-430v165z" />
    <glyph glyph-name="lslash" unicode="&#x142;" horiz-adv-x="315" 
d="M90 210l-75 -50v130l75 50v290h135v-195l75 50v-130l-75 -50v-305h-135v210z" />
    <glyph glyph-name="Nacute" unicode="&#x143;" horiz-adv-x="650" 
d="M60 630h130l255 -370v370h145v-630h-130l-255 370v-370h-145v630zM335 825h135l-95 -130h-105z" />
    <glyph glyph-name="nacute" unicode="&#x144;" 
d="M50 460h100l20 -45q16 14 37 25q18 9 43 17t55 8q41 0 75 -13.5t58.5 -39t38 -61.5t13.5 -81v-270h-135v245q0 45 -23.5 70t-61.5 25t-61.5 -25t-23.5 -70v-245h-135v460zM285 645h135l-95 -130h-105z" />
    <glyph glyph-name="uni0145" unicode="&#x145;" horiz-adv-x="650" 
d="M60 630h130l255 -370v370h145v-630h-130l-255 370v-370h-145v630zM280 -260q11 7 21 17q8 8 16.5 20.5t12.5 27.5q-30 0 -50 20t-20 50t20 50t50 20t50 -20.5t20 -54.5q0 -40 -15.5 -69.5t-34.5 -49.5q-22 -24 -50 -41z" />
    <glyph glyph-name="uni0146" unicode="&#x146;" 
d="M50 460h100l20 -45q16 14 37 25q18 9 43 17t55 8q41 0 75 -13.5t58.5 -39t38 -61.5t13.5 -81v-270h-135v245q0 45 -23.5 70t-61.5 25t-61.5 -25t-23.5 -70v-245h-135v460zM220 -260q11 7 21 17q8 8 16.5 20.5t12.5 27.5q-30 0 -50 20t-20 50t20 50t50 20t50 -20.5
t20 -54.5q0 -40 -15.5 -69.5t-34.5 -49.5q-22 -24 -50 -41z" />
    <glyph glyph-name="Ncaron" unicode="&#x147;" horiz-adv-x="650" 
d="M60 630h130l255 -370v370h145v-630h-130l-255 370v-370h-145v630zM165 825h115l45 -60l45 60h115l-100 -130h-120z" />
    <glyph glyph-name="ncaron" unicode="&#x148;" 
d="M50 460h100l20 -45q16 14 37 25q18 9 43 17t55 8q41 0 75 -13.5t58.5 -39t38 -61.5t13.5 -81v-270h-135v245q0 45 -23.5 70t-61.5 25t-61.5 -25t-23.5 -70v-245h-135v460zM120 645h115l45 -60l45 60h115l-100 -130h-120z" />
    <glyph glyph-name="napostrophe" unicode="&#x149;" horiz-adv-x="605" 
d="M120 460h100l20 -45q16 14 37 25q18 9 43 17t55 8q41 0 75 -13.5t58.5 -39t38 -61.5t13.5 -81v-270h-135v245q0 45 -23.5 70t-61.5 25t-61.5 -25t-23.5 -70v-245h-135v460z" />
    <glyph glyph-name="Eng" unicode="&#x14a;" horiz-adv-x="650" 
d="M380 -240q-43 0 -80 15t-64 40.5t-43 60.5t-18 74l145 10q0 -30 17 -47.5t43 -17.5q30 0 47.5 17.5t17.5 47.5v62l-240 348v-370h-145v630h130l255 -370v370h145v-670q0 -43 -15 -79.5t-43 -63.5t-66.5 -42t-85.5 -15z" />
    <glyph glyph-name="eng" unicode="&#x14b;" 
d="M325 -170q-29 0 -48 7q-10 4 -17 8v110q4 -2 9 -3t10 -1.5t11 -0.5q30 0 47.5 17.5t17.5 47.5v230q0 45 -23.5 70t-61.5 25t-61.5 -25t-23.5 -70v-245h-135v460h100l20 -45q16 14 37 25q18 9 43 17t55 8q41 0 75 -13.5t58.5 -39t38 -61.5t13.5 -81v-265q0 -83 -45 -129
t-120 -46z" />
    <glyph glyph-name="Omacron" unicode="&#x14c;" horiz-adv-x="680" 
d="M340 -5q-64 0 -120.5 24.5t-98.5 68t-66.5 101.5t-24.5 126q0 67 24.5 125.5t66.5 102t98.5 68t120.5 24.5t120.5 -24.5t98.5 -68t66.5 -102t24.5 -125.5q0 -68 -24.5 -126t-66.5 -101.5t-98.5 -68t-120.5 -24.5zM340 135q34 0 64 13.5t52.5 37.5t35.5 57t13 72t-13 72
t-35.5 57t-52.5 37.5t-64 13.5t-64 -13.5t-52.5 -37.5t-35.5 -57t-13 -72t13 -72t35.5 -57t52.5 -37.5t64 -13.5zM210 805h265v-105h-265v105z" />
    <glyph glyph-name="omacron" unicode="&#x14d;" horiz-adv-x="530" 
d="M265 -10q-49 0 -91.5 18.5t-74.5 51t-50.5 76t-18.5 94.5t18.5 94.5t50.5 76t74.5 51t91.5 18.5t91.5 -18.5t74.5 -51t50.5 -76t18.5 -94.5t-18.5 -94.5t-50.5 -76t-74.5 -51t-91.5 -18.5zM265 115q42 0 71 31t29 84t-29 84t-71 31t-71 -31t-29 -84t29 -84t71 -31z
M135 625h265v-105h-265v105z" />
    <glyph glyph-name="Obreve" unicode="&#x14e;" horiz-adv-x="680" 
d="M340 -5q-64 0 -120.5 24.5t-98.5 68t-66.5 101.5t-24.5 126q0 67 24.5 125.5t66.5 102t98.5 68t120.5 24.5t120.5 -24.5t98.5 -68t66.5 -102t24.5 -125.5q0 -68 -24.5 -126t-66.5 -101.5t-98.5 -68t-120.5 -24.5zM340 135q34 0 64 13.5t52.5 37.5t35.5 57t13 72t-13 72
t-35.5 57t-52.5 37.5t-64 13.5t-64 -13.5t-52.5 -37.5t-35.5 -57t-13 -72t13 -72t35.5 -57t52.5 -37.5t64 -13.5zM340 690q-30 0 -55 10t-44 27t-30.5 41t-15.5 52h95q4 -23 17.5 -36.5t32.5 -13.5t32.5 13.5t17.5 36.5h95q-8 -56 -46.5 -93t-98.5 -37z" />
    <glyph glyph-name="obreve" unicode="&#x14f;" horiz-adv-x="530" 
d="M265 -10q-49 0 -91.5 18.5t-74.5 51t-50.5 76t-18.5 94.5t18.5 94.5t50.5 76t74.5 51t91.5 18.5t91.5 -18.5t74.5 -51t50.5 -76t18.5 -94.5t-18.5 -94.5t-50.5 -76t-74.5 -51t-91.5 -18.5zM265 115q42 0 71 31t29 84t-29 84t-71 31t-71 -31t-29 -84t29 -84t71 -31z
M265 510q-30 0 -55 10t-44 27t-30.5 41t-15.5 52h95q4 -23 17.5 -36.5t32.5 -13.5t32.5 13.5t17.5 36.5h95q-8 -56 -46.5 -93t-98.5 -37z" />
    <glyph glyph-name="Ohungarumlaut" unicode="&#x150;" horiz-adv-x="680" 
d="M340 -5q-64 0 -120.5 24.5t-98.5 68t-66.5 101.5t-24.5 126q0 67 24.5 125.5t66.5 102t98.5 68t120.5 24.5t120.5 -24.5t98.5 -68t66.5 -102t24.5 -125.5q0 -68 -24.5 -126t-66.5 -101.5t-98.5 -68t-120.5 -24.5zM340 135q34 0 64 13.5t52.5 37.5t35.5 57t13 72t-13 72
t-35.5 57t-52.5 37.5t-64 13.5t-64 -13.5t-52.5 -37.5t-35.5 -57t-13 -72t13 -72t35.5 -57t52.5 -37.5t64 -13.5zM270 825h135l-100 -130h-105zM445 825h135l-100 -130h-105z" />
    <glyph glyph-name="ohungarumlaut" unicode="&#x151;" horiz-adv-x="530" 
d="M265 -10q-49 0 -91.5 18.5t-74.5 51t-50.5 76t-18.5 94.5t18.5 94.5t50.5 76t74.5 51t91.5 18.5t91.5 -18.5t74.5 -51t50.5 -76t18.5 -94.5t-18.5 -94.5t-50.5 -76t-74.5 -51t-91.5 -18.5zM265 115q42 0 71 31t29 84t-29 84t-71 31t-71 -31t-29 -84t29 -84t71 -31z
M195 645h135l-100 -130h-105zM370 645h135l-100 -130h-105z" />
    <glyph glyph-name="OE" unicode="&#x152;" horiz-adv-x="855" 
d="M345 0q-66 0 -123 24.5t-100 67.5t-67.5 100t-24.5 123t24.5 123t67.5 100t100 67.5t123 24.5h460v-140h-270v-100h245v-140h-245v-110h280v-140h-470zM390 140v350h-45q-36 0 -67 -13.5t-54 -36.5t-36 -55.5t-13 -69.5q0 -38 13 -70t36 -55t54 -36.5t67 -13.5h45z" />
    <glyph glyph-name="oe" unicode="&#x153;" horiz-adv-x="830" 
d="M255 -10q-47 0 -88 18t-71.5 49.5t-48 75.5t-17.5 97q0 52 17.5 96.5t48 76t71.5 49.5t88 18q43 0 75 -12t53 -26q25 -17 42 -37q17 20 40 37q20 14 48.5 26t66.5 12q47 0 88 -18t71.5 -49.5t48 -76t17.5 -96.5q0 -10 -1 -18t-2 -14q-1 -7 -2 -13h-315q7 -20 19 -35
q11 -14 29 -24.5t47 -10.5q19 0 32.5 4.5t21.5 10.5q10 6 16 15l140 -10q-9 -28 -27 -54t-44.5 -46.5t-61 -32.5t-77.5 -12q-40 0 -68.5 11.5t-48.5 25.5q-23 17 -38 38q-18 -21 -44 -38q-22 -14 -53 -25.5t-73 -11.5zM255 115q38 0 66.5 31t28.5 84t-28.5 84t-66.5 31
t-66.5 -31t-28.5 -84t28.5 -84t66.5 -31zM665 275q-4 30 -28 52.5t-62 22.5t-62 -22.5t-28 -52.5h180z" />
    <glyph glyph-name="Racute" unicode="&#x154;" horiz-adv-x="580" 
d="M60 630h255q49 0 89.5 -16t69.5 -43t45 -63.5t16 -77.5q0 -53 -18.5 -89t-41 -58.5t-41.5 -32.5l-19 -10l140 -240h-160l-115 210h-75v-210h-145v630zM315 350q38 0 59 20t21 50t-21 50t-59 20h-110v-140h110zM300 825h135l-95 -130h-105z" />
    <glyph glyph-name="racute" unicode="&#x155;" horiz-adv-x="340" 
d="M50 460h100l20 -50q12 15 29 27q14 11 34.5 19.5t46.5 8.5q9 0 16.5 -1t12.5 -2q6 -1 11 -2v-140q-6 2 -14 5q-7 2 -16 3.5t-20 1.5q-38 0 -61.5 -25t-23.5 -70v-235h-135v460zM200 645h135l-95 -130h-105z" />
    <glyph glyph-name="uni0156" unicode="&#x156;" horiz-adv-x="580" 
d="M60 630h255q49 0 89.5 -16t69.5 -43t45 -63.5t16 -77.5q0 -53 -18.5 -89t-41 -58.5t-41.5 -32.5l-19 -10l140 -240h-160l-115 210h-75v-210h-145v630zM315 350q38 0 59 20t21 50t-21 50t-59 20h-110v-140h110zM255 -260q11 7 21 17q8 8 16.5 20.5t12.5 27.5q-30 0 -50 20
t-20 50t20 50t50 20t50 -20.5t20 -54.5q0 -40 -15.5 -69.5t-34.5 -49.5q-22 -24 -50 -41z" />
    <glyph glyph-name="uni0157" unicode="&#x157;" horiz-adv-x="340" 
d="M50 460h100l20 -50q12 15 29 27q14 11 34.5 19.5t46.5 8.5q9 0 16.5 -1t12.5 -2q6 -1 11 -2v-140q-6 2 -14 5q-7 2 -16 3.5t-20 1.5q-38 0 -61.5 -25t-23.5 -70v-235h-135v460zM70 -260q11 7 21 17q8 8 16.5 20.5t12.5 27.5q-30 0 -50 20t-20 50t20 50t50 20t50 -20.5
t20 -54.5q0 -40 -15.5 -69.5t-34.5 -49.5q-22 -24 -50 -41z" />
    <glyph glyph-name="Rcaron" unicode="&#x158;" horiz-adv-x="580" 
d="M60 630h255q49 0 89.5 -16t69.5 -43t45 -63.5t16 -77.5q0 -53 -18.5 -89t-41 -58.5t-41.5 -32.5l-19 -10l140 -240h-160l-115 210h-75v-210h-145v630zM315 350q38 0 59 20t21 50t-21 50t-59 20h-110v-140h110zM135 825h115l45 -60l45 60h115l-100 -130h-120z" />
    <glyph glyph-name="rcaron" unicode="&#x159;" horiz-adv-x="340" 
d="M50 460h100l20 -50q12 15 29 27q14 11 34.5 19.5t46.5 8.5q9 0 16.5 -1t12.5 -2q6 -1 11 -2v-140q-6 2 -14 5q-7 2 -16 3.5t-20 1.5q-38 0 -61.5 -25t-23.5 -70v-235h-135v460zM30 645h115l45 -60l45 60h115l-100 -130h-120z" />
    <glyph glyph-name="Sacute" unicode="&#x15a;" horiz-adv-x="525" 
d="M260 -5q-54 0 -97 15t-72.5 42.5t-45 65t-15.5 82.5l140 10q0 -85 90 -85q42 0 63.5 19.5t21.5 45.5q0 24 -23 37t-57.5 24t-74.5 23t-74.5 33.5t-57.5 56.5t-23 91q0 36 15.5 68.5t44.5 57t70.5 39.5t94.5 15q51 0 91.5 -15t69 -42t44 -63.5t15.5 -79.5l-140 -10
q0 38 -21 59t-59 21q-34 0 -54.5 -18.5t-20.5 -41.5t23 -35t57.5 -22.5t74.5 -22.5t74.5 -34t57.5 -58t23 -93q0 -38 -15.5 -71.5t-45.5 -58.5t-74 -40t-100 -15zM275 825h135l-95 -130h-105z" />
    <glyph glyph-name="sacute" unicode="&#x15b;" horiz-adv-x="445" 
d="M230 -10q-94 0 -141.5 41t-58.5 109l130 10q4 -23 19 -36.5t41 -13.5t40.5 12.5t14.5 27.5q0 12 -17.5 19.5t-43.5 15t-56.5 17.5t-56.5 26.5t-43.5 43.5t-17.5 68q0 28 12 53.5t34.5 44.5t55 30.5t73.5 11.5q90 0 137 -40t58 -100l-130 -10q-4 15 -18 27.5t-37 12.5
t-34 -10t-11 -25q0 -13 17.5 -20t43.5 -14.5t56.5 -17.5t56.5 -26.5t43.5 -43.5t17.5 -68q0 -28 -12.5 -54t-36.5 -46.5t-58.5 -32.5t-77.5 -12zM230 645h135l-95 -130h-105z" />
    <glyph glyph-name="Scircumflex" unicode="&#x15c;" horiz-adv-x="525" 
d="M260 -5q-54 0 -97 15t-72.5 42.5t-45 65t-15.5 82.5l140 10q0 -85 90 -85q42 0 63.5 19.5t21.5 45.5q0 24 -23 37t-57.5 24t-74.5 23t-74.5 33.5t-57.5 56.5t-23 91q0 36 15.5 68.5t44.5 57t70.5 39.5t94.5 15q51 0 91.5 -15t69 -42t44 -63.5t15.5 -79.5l-140 -10
q0 38 -21 59t-59 21q-34 0 -54.5 -18.5t-20.5 -41.5t23 -35t57.5 -22.5t74.5 -22.5t74.5 -34t57.5 -58t23 -93q0 -38 -15.5 -71.5t-45.5 -58.5t-74 -40t-100 -15zM200 825h120l100 -130h-115l-45 60l-45 -60h-115z" />
    <glyph glyph-name="scircumflex" unicode="&#x15d;" horiz-adv-x="445" 
d="M230 -10q-94 0 -141.5 41t-58.5 109l130 10q4 -23 19 -36.5t41 -13.5t40.5 12.5t14.5 27.5q0 12 -17.5 19.5t-43.5 15t-56.5 17.5t-56.5 26.5t-43.5 43.5t-17.5 68q0 28 12 53.5t34.5 44.5t55 30.5t73.5 11.5q90 0 137 -40t58 -100l-130 -10q-4 15 -18 27.5t-37 12.5
t-34 -10t-11 -25q0 -13 17.5 -20t43.5 -14.5t56.5 -17.5t56.5 -26.5t43.5 -43.5t17.5 -68q0 -28 -12.5 -54t-36.5 -46.5t-58.5 -32.5t-77.5 -12zM165 645h120l100 -130h-115l-45 60l-45 -60h-115z" />
    <glyph glyph-name="Scedilla" unicode="&#x15e;" horiz-adv-x="525" 
d="M235 -200q-25 0 -43 5q-10 2 -17 5v50q5 -2 12 -3q5 -1 12.5 -1.5t15.5 -0.5q26 0 38 10t12 25q0 11 -11 20.5t-34 9.5q-8 0 -16 -2.5t-9 -2.5l33 82q-47 4 -83.5 20.5t-62 43.5t-39 62t-13.5 77l140 10q0 -85 90 -85q42 0 63.5 19.5t21.5 45.5q0 24 -23 37t-57.5 24
t-74.5 23t-74.5 33.5t-57.5 56.5t-23 91q0 36 15.5 68.5t44.5 57t70.5 39.5t94.5 15q51 0 91.5 -15t69 -42t44 -63.5t15.5 -79.5l-140 -10q0 38 -21 59t-59 21q-34 0 -54.5 -18.5t-20.5 -41.5t23 -35t57.5 -22.5t74.5 -22.5t74.5 -34t57.5 -58t23 -93q0 -35 -14 -67
t-40 -56.5t-65 -40.5t-88 -20l-18 -36q24 -4 42 -14q16 -8 29.5 -24t13.5 -42q0 -34 -28 -57t-92 -23z" />
    <glyph glyph-name="scedilla" unicode="&#x15f;" horiz-adv-x="445" 
d="M205 -200q-25 0 -43 5q-10 2 -17 5v50q5 -2 12 -3q5 -1 12.5 -1.5t15.5 -0.5q26 0 38 10t12 25q0 11 -11 20.5t-34 9.5q-8 0 -16 -2.5t-9 -2.5l31 77q-77 8 -116.5 47t-49.5 101l130 10q4 -23 19 -36.5t41 -13.5t40.5 12.5t14.5 27.5q0 12 -17.5 19.5t-43.5 15
t-56.5 17.5t-56.5 26.5t-43.5 43.5t-17.5 68q0 28 12 53.5t34.5 44.5t55 30.5t73.5 11.5q90 0 137 -40t58 -100l-130 -10q-4 15 -18 27.5t-37 12.5t-34 -10t-11 -25q0 -13 17.5 -20t43.5 -14.5t56.5 -17.5t56.5 -26.5t43.5 -43.5t17.5 -68q0 -26 -11 -50.5t-31.5 -44
t-50.5 -33t-67 -16.5l-15 -31q24 -4 42 -14q16 -8 29.5 -24t13.5 -42q0 -34 -28 -57t-92 -23z" />
    <glyph glyph-name="Scaron" unicode="&#x160;" horiz-adv-x="525" 
d="M260 -5q-54 0 -97 15t-72.5 42.5t-45 65t-15.5 82.5l140 10q0 -85 90 -85q42 0 63.5 19.5t21.5 45.5q0 24 -23 37t-57.5 24t-74.5 23t-74.5 33.5t-57.5 56.5t-23 91q0 36 15.5 68.5t44.5 57t70.5 39.5t94.5 15q51 0 91.5 -15t69 -42t44 -63.5t15.5 -79.5l-140 -10
q0 38 -21 59t-59 21q-34 0 -54.5 -18.5t-20.5 -41.5t23 -35t57.5 -22.5t74.5 -22.5t74.5 -34t57.5 -58t23 -93q0 -38 -15.5 -71.5t-45.5 -58.5t-74 -40t-100 -15zM100 825h115l45 -60l45 60h115l-100 -130h-120z" />
    <glyph glyph-name="scaron" unicode="&#x161;" horiz-adv-x="445" 
d="M230 -10q-94 0 -141.5 41t-58.5 109l130 10q4 -23 19 -36.5t41 -13.5t40.5 12.5t14.5 27.5q0 12 -17.5 19.5t-43.5 15t-56.5 17.5t-56.5 26.5t-43.5 43.5t-17.5 68q0 28 12 53.5t34.5 44.5t55 30.5t73.5 11.5q90 0 137 -40t58 -100l-130 -10q-4 15 -18 27.5t-37 12.5
t-34 -10t-11 -25q0 -13 17.5 -20t43.5 -14.5t56.5 -17.5t56.5 -26.5t43.5 -43.5t17.5 -68q0 -28 -12.5 -54t-36.5 -46.5t-58.5 -32.5t-77.5 -12zM65 645h115l45 -60l45 60h115l-100 -130h-120z" />
    <glyph glyph-name="uni0162" unicode="&#x162;" horiz-adv-x="525" 
d="M190 490h-180v140h505v-140h-180v-490h-145v490zM215 -260q11 7 21 17q8 8 16.5 20.5t12.5 27.5q-30 0 -50 20t-20 50t20 50t50 20t50 -20.5t20 -54.5q0 -40 -15.5 -69.5t-34.5 -49.5q-22 -24 -50 -41z" />
    <glyph glyph-name="uni0163" unicode="&#x163;" horiz-adv-x="365" 
d="M255 -5q-79 0 -122 43.5t-43 126.5v170h-70v115h35q55 0 55 55v65h115v-110h95v-125h-95v-150q0 -30 17 -47.5t43 -17.5q8 0 14 0.5t11 1.5t10 3v-120q-8 -3 -18 -5q-20 -5 -47 -5zM160 -260q11 7 21 17q8 8 16.5 20.5t12.5 27.5q-30 0 -50 20t-20 50t20 50t50 20
t50 -20.5t20 -54.5q0 -40 -15.5 -69.5t-34.5 -49.5q-22 -24 -50 -41z" />
    <glyph glyph-name="Tcaron" unicode="&#x164;" horiz-adv-x="525" 
d="M190 490h-180v140h505v-140h-180v-490h-145v490zM100 825h115l45 -60l45 60h115l-100 -130h-120z" />
    <glyph glyph-name="tcaron" unicode="&#x165;" horiz-adv-x="412" 
d="M337 630h125l-65 -130h-95zM255 -5q-79 0 -122 43.5t-43 126.5v170h-70v115h35q55 0 55 55v65h115v-110h95v-125h-95v-150q0 -30 17 -47.5t43 -17.5q8 0 14 0.5t11 1.5t10 3v-120q-8 -3 -18 -5q-20 -5 -47 -5z" />
    <glyph glyph-name="Tbar" unicode="&#x166;" horiz-adv-x="525" 
d="M190 265h-90v115h90v110h-180v140h505v-140h-180v-110h90v-115h-90v-265h-145v265z" />
    <glyph glyph-name="tbar" unicode="&#x167;" horiz-adv-x="365" 
d="M255 -5q-79 0 -122 43.5t-43 126.5v55h-70v95h70v40h-70v95h35q55 0 55 55v65h115v-110h95v-105h-95v-40h95v-95h-95v-35q0 -30 17 -47.5t43 -17.5q8 0 14 0.5t11 1.5t10 3v-120q-8 -3 -18 -5q-20 -5 -47 -5z" />
    <glyph glyph-name="Utilde" unicode="&#x168;" horiz-adv-x="620" 
d="M310 -5q-58 0 -106 19t-82 53t-53 82t-19 106v375h145v-375q0 -57 31 -88.5t84 -31.5t84 31.5t31 88.5v375h145v-375q0 -58 -19 -106t-53 -82t-82 -53t-106 -19zM155 695q0 64 26 94.5t64 30.5q22 0 38 -7t28 -15.5t22.5 -15.5t21.5 -7q15 0 25 11t10 34l75 -10
q0 -64 -26 -94.5t-64 -30.5q-23 0 -38.5 7t-27.5 15.5t-22.5 15.5t-21.5 7q-14 0 -24.5 -11t-10.5 -34z" />
    <glyph glyph-name="utilde" unicode="&#x169;" 
d="M230 -5q-41 0 -75 13.5t-58.5 39t-38 61.5t-13.5 81v270h135v-245q0 -45 23.5 -70t61.5 -25t61.5 25t23.5 70v245h135v-460h-100l-20 45q-17 -14 -38 -25q-18 -10 -42.5 -17.5t-54.5 -7.5zM110 520q0 64 26 94.5t64 30.5q22 0 38 -7t28 -15.5t22.5 -15.5t21.5 -7
q15 0 25 11t10 34l75 -10q0 -64 -26 -94.5t-64 -30.5q-23 0 -38.5 7t-27.5 15.5t-22.5 15.5t-21.5 7q-14 0 -24.5 -11t-10.5 -34z" />
    <glyph glyph-name="Umacron" unicode="&#x16a;" horiz-adv-x="620" 
d="M310 -5q-58 0 -106 19t-82 53t-53 82t-19 106v375h145v-375q0 -57 31 -88.5t84 -31.5t84 31.5t31 88.5v375h145v-375q0 -58 -19 -106t-53 -82t-82 -53t-106 -19zM180 805h265v-105h-265v105z" />
    <glyph glyph-name="umacron" unicode="&#x16b;" 
d="M230 -5q-41 0 -75 13.5t-58.5 39t-38 61.5t-13.5 81v270h135v-245q0 -45 23.5 -70t61.5 -25t61.5 25t23.5 70v245h135v-460h-100l-20 45q-17 -14 -38 -25q-18 -10 -42.5 -17.5t-54.5 -7.5zM135 625h265v-105h-265v105z" />
    <glyph glyph-name="Ubreve" unicode="&#x16c;" horiz-adv-x="620" 
d="M310 -5q-58 0 -106 19t-82 53t-53 82t-19 106v375h145v-375q0 -57 31 -88.5t84 -31.5t84 31.5t31 88.5v375h145v-375q0 -58 -19 -106t-53 -82t-82 -53t-106 -19zM310 690q-30 0 -55 10t-44 27t-30.5 41t-15.5 52h95q4 -23 17.5 -36.5t32.5 -13.5t32.5 13.5t17.5 36.5h95
q-8 -56 -46.5 -93t-98.5 -37z" />
    <glyph glyph-name="ubreve" unicode="&#x16d;" 
d="M230 -5q-41 0 -75 13.5t-58.5 39t-38 61.5t-13.5 81v270h135v-245q0 -45 23.5 -70t61.5 -25t61.5 25t23.5 70v245h135v-460h-100l-20 45q-17 -14 -38 -25q-18 -10 -42.5 -17.5t-54.5 -7.5zM265 510q-30 0 -55 10t-44 27t-30.5 41t-15.5 52h95q4 -23 17.5 -36.5
t32.5 -13.5t32.5 13.5t17.5 36.5h95q-8 -56 -46.5 -93t-98.5 -37z" />
    <glyph glyph-name="Uring" unicode="&#x16e;" horiz-adv-x="620" 
d="M310 -5q-58 0 -106 19t-82 53t-53 82t-19 106v375h145v-375q0 -57 31 -88.5t84 -31.5t84 31.5t31 88.5v375h145v-375q0 -58 -19 -106t-53 -82t-82 -53t-106 -19zM310 675q-45 0 -72.5 26.5t-27.5 68.5t27.5 68.5t72.5 26.5t72.5 -26.5t27.5 -68.5t-27.5 -68.5
t-72.5 -26.5zM310 735q15 0 25 10t10 25t-10 25t-25 10t-25 -10t-10 -25t10 -25t25 -10z" />
    <glyph glyph-name="uring" unicode="&#x16f;" 
d="M230 -5q-41 0 -75 13.5t-58.5 39t-38 61.5t-13.5 81v270h135v-245q0 -45 23.5 -70t61.5 -25t61.5 25t23.5 70v245h135v-460h-100l-20 45q-17 -14 -38 -25q-18 -10 -42.5 -17.5t-54.5 -7.5zM265 500q-45 0 -72.5 26.5t-27.5 68.5t27.5 68.5t72.5 26.5t72.5 -26.5
t27.5 -68.5t-27.5 -68.5t-72.5 -26.5zM265 560q15 0 25 10t10 25t-10 25t-25 10t-25 -10t-10 -25t10 -25t25 -10z" />
    <glyph glyph-name="Uhungarumlaut" unicode="&#x170;" horiz-adv-x="620" 
d="M310 -5q-58 0 -106 19t-82 53t-53 82t-19 106v375h145v-375q0 -57 31 -88.5t84 -31.5t84 31.5t31 88.5v375h145v-375q0 -58 -19 -106t-53 -82t-82 -53t-106 -19zM235 825h135l-100 -130h-105zM410 825h135l-100 -130h-105z" />
    <glyph glyph-name="uhungarumlaut" unicode="&#x171;" 
d="M230 -5q-41 0 -75 13.5t-58.5 39t-38 61.5t-13.5 81v270h135v-245q0 -45 23.5 -70t61.5 -25t61.5 25t23.5 70v245h135v-460h-100l-20 45q-17 -14 -38 -25q-18 -10 -42.5 -17.5t-54.5 -7.5zM190 645h135l-100 -130h-105zM365 645h135l-100 -130h-105z" />
    <glyph glyph-name="Uogonek" unicode="&#x172;" horiz-adv-x="620" 
d="M350 -190q-53 0 -81.5 26t-28.5 64q0 17 5 32.5t11.5 28.5t13.5 22t11 13q-52 4 -94.5 24.5t-73 54.5t-47 79.5t-16.5 100.5v375h145v-375q0 -57 31 -88.5t84 -31.5t84 31.5t31 88.5v375h145v-375q0 -52 -15 -95.5t-43 -77t-66.5 -55t-86.5 -28.5q-2 -3 -6.5 -10.5
t-9.5 -17.5t-9 -22t-4 -24q0 -19 13 -32t32 -13q9 0 16.5 0.5t12.5 1.5q6 1 11 3v-65q-8 -3 -18 -5q-18 -5 -47 -5z" />
    <glyph glyph-name="uogonek" unicode="&#x173;" 
d="M450 -190q-53 0 -81.5 26t-28.5 64q0 20 7 38.5t15 32.5q10 16 23 29l-20 45q-17 -14 -38 -25q-18 -10 -42.5 -17.5t-54.5 -7.5q-41 0 -75 13.5t-58.5 39t-38 61.5t-13.5 81v270h135v-245q0 -45 23.5 -70t61.5 -25t61.5 25t23.5 70v245h135v-460h-25q-9 -13 -15 -25
q-6 -11 -10.5 -24t-4.5 -26q0 -19 13 -32t32 -13q9 0 16.5 0.5t12.5 1.5q6 1 11 3v-65q-8 -3 -18 -5q-18 -5 -47 -5z" />
    <glyph glyph-name="Wcircumflex" unicode="&#x174;" horiz-adv-x="860" 
d="M5 630h140l120 -390l120 390h90l120 -390l120 390h140l-200 -630h-110l-115 370l-115 -370h-110zM370 825h120l100 -130h-115l-45 60l-45 -60h-115z" />
    <glyph glyph-name="wcircumflex" unicode="&#x175;" horiz-adv-x="700" 
d="M0 460h140l80 -270l85 270h90l85 -270l80 270h140l-155 -460h-115l-80 255l-80 -255h-115zM290 645h120l100 -130h-115l-45 60l-45 -60h-115z" />
    <glyph glyph-name="Ycircumflex" unicode="&#x176;" horiz-adv-x="565" 
d="M210 235l-210 395h155l128 -250l127 250h155l-210 -395v-235h-145v235zM225 825h120l100 -130h-115l-45 60l-45 -60h-115z" />
    <glyph glyph-name="ycircumflex" unicode="&#x177;" horiz-adv-x="490" 
d="M125 -165q-8 0 -15.5 0.5t-14.5 1.5q-8 1 -15 3v115q42 0 63 17.5t32 47.5l-175 440h145l100 -285l100 285h145l-185 -460q-35 -86 -75.5 -125.5t-104.5 -39.5zM190 645h120l100 -130h-115l-45 60l-45 -60h-115z" />
    <glyph glyph-name="Ydieresis" unicode="&#x178;" horiz-adv-x="565" 
d="M210 235l-210 395h155l128 -250l127 250h155l-210 -395v-235h-145v235zM190 690q-30 0 -50 20t-20 50t20 50t50 20t50 -20t20 -50t-20 -50t-50 -20zM375 690q-30 0 -50 20t-20 50t20 50t50 20t50 -20t20 -50t-20 -50t-50 -20z" />
    <glyph glyph-name="Zacute" unicode="&#x179;" horiz-adv-x="530" 
d="M30 120l270 370h-260v140h445v-120l-270 -370h285v-140h-470v120zM275 825h135l-95 -130h-105z" />
    <glyph glyph-name="zacute" unicode="&#x17a;" horiz-adv-x="435" 
d="M30 110l190 220h-190v130h365v-110l-190 -220h200v-130h-375v110zM225 645h135l-95 -130h-105z" />
    <glyph glyph-name="Zdotaccent" unicode="&#x17b;" horiz-adv-x="530" 
d="M30 120l270 370h-260v140h445v-120l-270 -370h285v-140h-470v120zM265 690q-30 0 -52.5 22.5t-22.5 52.5t22.5 52.5t52.5 22.5t52.5 -22.5t22.5 -52.5t-22.5 -52.5t-52.5 -22.5z" />
    <glyph glyph-name="zdotaccent" unicode="&#x17c;" horiz-adv-x="435" 
d="M30 110l190 220h-190v130h365v-110l-190 -220h200v-130h-375v110zM220 510q-30 0 -52.5 22.5t-22.5 52.5t22.5 52.5t52.5 22.5t52.5 -22.5t22.5 -52.5t-22.5 -52.5t-52.5 -22.5z" />
    <glyph glyph-name="Zcaron" unicode="&#x17d;" horiz-adv-x="530" 
d="M30 120l270 370h-260v140h445v-120l-270 -370h285v-140h-470v120zM105 825h115l45 -60l45 60h115l-100 -130h-120z" />
    <glyph glyph-name="zcaron" unicode="&#x17e;" horiz-adv-x="435" 
d="M30 110l190 220h-190v130h365v-110l-190 -220h200v-130h-375v110zM55 645h115l45 -60l45 60h115l-100 -130h-120z" />
    <glyph glyph-name="uni018F" unicode="&#x18f;" horiz-adv-x="675" 
d="M335 -5q-66 0 -122 23.5t-96.5 65.5t-63.5 101t-23 130q0 8 0.5 14t1.5 11t3 10h465q-6 32 -20.5 59.5t-36 47.5t-49 31.5t-59.5 11.5q-28 0 -49 -6t-37 -16.5t-28 -24t-21 -28.5l-155 10q13 39 37.5 75.5t60.5 64t84 44t108 16.5q64 0 120.5 -24.5t98.5 -68t66.5 -102
t24.5 -125.5q0 -68 -24.5 -126t-66.5 -101.5t-98.5 -68t-120.5 -24.5zM335 130q30 0 55 9.5t45 26t33.5 38.5t21.5 46h-305q4 -24 16 -46t31 -38.5t45 -26t58 -9.5z" />
    <glyph glyph-name="florin" unicode="&#x192;" horiz-adv-x="385" 
d="M15 -165q-26 0 -48 5q-11 2 -22 5l30 120q5 -2 10 -3t11 -1.5t14 -0.5q50 0 65 60l45 245h-75l25 130h75q3 17 6 33q2 14 4.5 28.5t4.5 23.5q15 75 58.5 115t126.5 40q13 0 25.5 -1.5t22.5 -3.5q11 -3 22 -5l-30 -120l-10 2t-11 2t-14 1q-50 0 -65 -60q-2 -7 -3.5 -16
t-3.5 -18q-2 -11 -3 -21h95l-25 -130h-95l-50 -275q-14 -75 -58 -115t-127 -40z" />
    <glyph glyph-name="Ohorn" unicode="&#x1a0;" horiz-adv-x="680" 
d="M340 -5q-64 0 -120.5 24.5t-98.5 68t-66.5 101.5t-24.5 126q0 67 24.5 125.5t66.5 102t98.5 68t120.5 24.5q42 0 75 -9.5t56 -20.5q27 -13 49 -30h25q19 0 29.5 10t10.5 25q0 11 -2.5 21t-5.5 18q-4 9 -7 16h85q6 -8 10 -18q4 -8 7 -20t3 -27q0 -32 -13.5 -50.5
t-29.5 -28.5q-18 -11 -42 -16q17 -23 30 -52q11 -25 20.5 -60t9.5 -78q0 -68 -24.5 -126t-66.5 -101.5t-98.5 -68t-120.5 -24.5zM340 135q34 0 64 13.5t52.5 37.5t35.5 57t13 72t-13 72t-35.5 57t-52.5 37.5t-64 13.5t-64 -13.5t-52.5 -37.5t-35.5 -57t-13 -72t13 -72
t35.5 -57t52.5 -37.5t64 -13.5z" />
    <glyph glyph-name="ohorn" unicode="&#x1a1;" horiz-adv-x="550" 
d="M265 -10q-49 0 -91.5 18.5t-74.5 51t-50.5 76t-18.5 94.5t18.5 94.5t50.5 76t74.5 51t91.5 18.5q35 0 63 -8.5t48 -19.5q23 -12 39 -27h15q19 0 29.5 10t10.5 25q0 11 -2.5 21t-5.5 18q-4 9 -7 16h85q6 -8 10 -18q4 -8 7 -20t3 -27q0 -32 -14 -50.5t-31 -28.5
q-20 -11 -45 -16q8 -13 15 -31q5 -15 10 -36.5t5 -47.5q0 -51 -18.5 -94.5t-50.5 -76t-74.5 -51t-91.5 -18.5zM265 115q42 0 71 31t29 84t-29 84t-71 31t-71 -31t-29 -84t29 -84t71 -31z" />
    <glyph glyph-name="Uhorn" unicode="&#x1af;" horiz-adv-x="705" 
d="M310 -5q-58 0 -106 19t-82 53t-53 82t-19 106v375h145v-375q0 -57 31 -88.5t84 -31.5t84 31.5t31 88.5v375h145v-55h15q19 0 29.5 10t10.5 25q0 11 -2.5 21t-5.5 18q-4 9 -7 16h85q6 -8 10 -18q4 -8 7 -20t3 -27q0 -42 -28.5 -68.5t-81.5 -26.5q-6 0 -12 0.5t-11 1.5
q-6 1 -12 3v-255q0 -58 -19 -106t-53 -82t-82 -53t-106 -19z" />
    <glyph glyph-name="uhorn" unicode="&#x1b0;" horiz-adv-x="620" 
d="M230 -5q-41 0 -75 13.5t-58.5 39t-38 61.5t-13.5 81v270h135v-245q0 -45 23.5 -70t61.5 -25t61.5 25t23.5 70v245h135v-45h15q19 0 29.5 10t10.5 25q0 11 -2.5 21t-5.5 18q-4 9 -7 16h85q6 -8 10 -18q4 -8 7 -20t3 -27q0 -42 -28.5 -68.5t-81.5 -26.5q-6 0 -12 0.5
t-11 1.5q-6 1 -12 3v-350h-100l-20 45q-17 -14 -38 -25q-18 -10 -42.5 -17.5t-54.5 -7.5z" />
    <glyph glyph-name="uni01F4" unicode="&#x1f4;" horiz-adv-x="695" 
d="M340 -5q-64 0 -120.5 24.5t-98.5 68t-66.5 101.5t-24.5 126q0 67 24.5 125.5t66.5 102t98.5 68t120.5 24.5q56 0 103.5 -18t84 -48.5t61.5 -70.5t36 -83l-150 -10q-6 17 -17 33t-28 29t-39.5 20.5t-50.5 7.5q-34 0 -64 -13.5t-52.5 -37.5t-35.5 -57t-13 -72t13 -72
t35.5 -57t52.5 -37.5t64 -13.5q30 0 53.5 7.5t41 20t28.5 27.5t17 30h-140v120h305v-340h-100l-25 60q-22 -19 -49 -33q-23 -12 -56 -22t-75 -10zM355 825h135l-95 -130h-105z" />
    <glyph glyph-name="uni01F5" unicode="&#x1f5;" horiz-adv-x="540" 
d="M260 -170q-64 0 -105.5 24t-65.5 53q-29 34 -44 78l135 10q6 -13 17 -23q9 -8 24.5 -15t38.5 -7q42 0 68.5 26t26.5 64v25q-11 -11 -28 -20q-14 -8 -35.5 -14t-51.5 -6q-43 0 -81.5 17t-67 46.5t-45 69.5t-16.5 87t16.5 87t45 69.5t67 46.5t81.5 17q30 0 54 -8t41 -17
q19 -11 35 -25l20 45h100v-420q0 -45 -16.5 -83.5t-46.5 -66.5t-72.5 -44t-94.5 -16zM260 150q42 0 68.5 26.5t26.5 68.5t-26.5 68.5t-68.5 26.5t-68.5 -26.5t-26.5 -68.5t26.5 -68.5t68.5 -26.5zM285 645h135l-95 -130h-105z" />
    <glyph glyph-name="Aringacute" unicode="&#x1fa;" horiz-adv-x="590" 
d="M220 630h10q-35 27 -35 75q0 42 27.5 68.5t72.5 26.5t72.5 -26.5t27.5 -68.5q0 -48 -36 -75h11l225 -630h-150l-40 120h-220l-40 -120h-150zM365 245l-70 210l-70 -210h140zM295 670q15 0 25 10t10 25t-10 25t-25 10t-25 -10t-10 -25t10 -25t25 -10zM315 930h135
l-85 -110h-105z" />
    <glyph glyph-name="aringacute" unicode="&#x1fb;" horiz-adv-x="485" 
d="M185 -5q-75 0 -115 36.5t-40 93.5q0 34 13.5 62.5t45.5 49t84.5 32t131.5 11.5q0 34 -17 52t-43 18q-19 0 -30.5 -7.5t-18.5 -15.5q-8 -10 -11 -22l-135 10q10 62 52 103.5t118 49.5q-32 8 -51 32.5t-19 59.5q0 42 27.5 68.5t72.5 26.5t72.5 -26.5t27.5 -68.5
q0 -35 -19.5 -59.5t-53.5 -32.5q36 -5 66 -20.5t51.5 -40.5t33.5 -57.5t12 -69.5v-280h-100l-20 45q-17 -14 -38 -25q-18 -10 -42.5 -17.5t-54.5 -7.5zM220 95q38 0 61.5 23.5t23.5 61.5v20q-43 0 -70.5 -4.5t-43 -12.5t-21 -19t-5.5 -24q0 -19 14.5 -32t40.5 -13zM250 525
q15 0 25 10t10 25t-10 25t-25 10t-25 -10t-10 -25t10 -25t25 -10zM255 790h140l-90 -120h-110z" />
    <glyph glyph-name="AEacute" unicode="&#x1fc;" horiz-adv-x="855" 
d="M300 630h505v-140h-275v-100h250v-140h-250v-110h285v-140h-430v120h-185l-60 -120h-165zM385 260v230l-115 -230h115zM475 825h135l-95 -130h-105z" />
    <glyph glyph-name="aeacute" unicode="&#x1fd;" horiz-adv-x="785" 
d="M215 -10q-45 0 -79.5 11t-58 30t-35.5 43.5t-12 50.5q0 34 13.5 62.5t45.5 49t84.5 32t131.5 11.5q0 34 -17 52t-43 18q-19 0 -30.5 -7.5t-18.5 -15.5q-8 -10 -11 -22l-135 10q6 34 21 62.5t39.5 49t59.5 32t80 11.5q39 0 67 -8t45 -17q20 -11 33 -25q14 14 34 25
q17 9 43.5 17t62.5 8q47 0 88 -18t71.5 -49.5t48 -76t17.5 -96.5q0 -10 -1 -18t-2 -14q-1 -7 -2 -13h-315q7 -20 19 -35q11 -14 29 -24.5t47 -10.5q19 0 32.5 4.5t21.5 10.5q10 6 16 15l140 -10q-9 -28 -28 -54t-46 -46.5t-62.5 -32.5t-78.5 -12q-38 0 -65 9.5t-45 20.5
q-21 13 -35 30q-18 -17 -44 -30q-22 -11 -53 -20.5t-73 -9.5zM220 95q38 0 61.5 23.5t23.5 61.5v20q-43 0 -70.5 -4.5t-43 -12.5t-21 -19t-5.5 -24q0 -19 14.5 -32t40.5 -13zM620 275q-4 30 -28 52.5t-62 22.5t-62 -22.5t-28 -52.5h180zM395 645h135l-95 -130h-105z" />
    <glyph glyph-name="Oslashacute" unicode="&#x1fe;" horiz-adv-x="700" 
d="M350 -5q-38 0 -70 8t-55 19q-27 12 -50 28l-55 -50l-95 100l55 55q-11 20 -20 46q-8 22 -14 51t-6 63q0 67 24.5 125.5t66.5 102t98.5 68t120.5 24.5q38 0 70 -8.5t55 -19.5q27 -12 50 -27l55 50l95 -100l-55 -55q11 -19 20 -44q8 -21 14 -51t6 -65q0 -68 -24.5 -126
t-66.5 -101.5t-98.5 -68t-120.5 -24.5zM350 135q34 0 64 13.5t52.5 37.5t35.5 57t13 72q0 15 -1 25t-2 17q-1 8 -2 13l-230 -220q7 -4 18 -8q9 -3 22 -5t30 -2zM420 480q-7 3 -18 7q-9 3 -22 5.5t-30 2.5q-34 0 -64 -13.5t-52.5 -37.5t-35.5 -57t-13 -72q0 -15 0.5 -25.5
t1.5 -17.5q1 -8 3 -12zM365 825h135l-95 -130h-105z" />
    <glyph glyph-name="oslashacute" unicode="&#x1ff;" horiz-adv-x="540" 
d="M270 -10q-32 0 -57 7t-42 15q-20 10 -36 23l-40 -35l-70 75l40 35q-9 16 -15 34q-6 16 -10.5 38t-4.5 48q0 51 18.5 94.5t50.5 76t74.5 51t91.5 18.5q32 0 57 -7.5t42 -15.5q20 -10 36 -22l40 35l70 -75l-40 -35q8 -17 15 -36q5 -17 10 -38.5t5 -45.5q0 -51 -18.5 -94.5
t-50.5 -76t-74.5 -51t-91.5 -18.5zM270 115q42 0 71 31t29 84q0 5 -1 10.5t-2 10.5t-2 9l-140 -135q4 -3 11 -5q12 -5 34 -5zM315 335q-5 2 -11 5q-6 2 -14.5 3.5t-19.5 1.5q-42 0 -71 -31t-29 -84q0 -6 0.5 -11t1.5 -10t3 -9zM285 645h135l-95 -130h-105z" />
    <glyph glyph-name="uni0218" unicode="&#x218;" horiz-adv-x="525" 
d="M260 -5q-54 0 -97 15t-72.5 42.5t-45 65t-15.5 82.5l140 10q0 -85 90 -85q42 0 63.5 19.5t21.5 45.5q0 24 -23 37t-57.5 24t-74.5 23t-74.5 33.5t-57.5 56.5t-23 91q0 36 15.5 68.5t44.5 57t70.5 39.5t94.5 15q51 0 91.5 -15t69 -42t44 -63.5t15.5 -79.5l-140 -10
q0 38 -21 59t-59 21q-34 0 -54.5 -18.5t-20.5 -41.5t23 -35t57.5 -22.5t74.5 -22.5t74.5 -34t57.5 -58t23 -93q0 -38 -15.5 -71.5t-45.5 -58.5t-74 -40t-100 -15zM220 -260q11 7 21 17q8 8 16.5 20.5t12.5 27.5q-30 0 -50 20t-20 50t20 50t50 20t50 -20.5t20 -54.5
q0 -40 -15.5 -69.5t-34.5 -49.5q-22 -24 -50 -41z" />
    <glyph glyph-name="uni0219" unicode="&#x219;" horiz-adv-x="445" 
d="M230 -10q-94 0 -141.5 41t-58.5 109l130 10q4 -23 19 -36.5t41 -13.5t40.5 12.5t14.5 27.5q0 12 -17.5 19.5t-43.5 15t-56.5 17.5t-56.5 26.5t-43.5 43.5t-17.5 68q0 28 12 53.5t34.5 44.5t55 30.5t73.5 11.5q90 0 137 -40t58 -100l-130 -10q-4 15 -18 27.5t-37 12.5
t-34 -10t-11 -25q0 -13 17.5 -20t43.5 -14.5t56.5 -17.5t56.5 -26.5t43.5 -43.5t17.5 -68q0 -28 -12.5 -54t-36.5 -46.5t-58.5 -32.5t-77.5 -12zM175 -260q11 7 21 17q8 8 16.5 20.5t12.5 27.5q-30 0 -50 20t-20 50t20 50t50 20t50 -20.5t20 -54.5q0 -40 -15.5 -69.5
t-34.5 -49.5q-22 -24 -50 -41z" />
    <glyph glyph-name="uni021A" unicode="&#x21a;" horiz-adv-x="525" 
d="M190 490h-180v140h505v-140h-180v-490h-145v490zM215 -260q11 7 21 17q8 8 16.5 20.5t12.5 27.5q-30 0 -50 20t-20 50t20 50t50 20t50 -20.5t20 -54.5q0 -40 -15.5 -69.5t-34.5 -49.5q-22 -24 -50 -41z" />
    <glyph glyph-name="uni021B" unicode="&#x21b;" horiz-adv-x="365" 
d="M255 -5q-79 0 -122 43.5t-43 126.5v170h-70v115h35q55 0 55 55v65h115v-110h95v-125h-95v-150q0 -30 17 -47.5t43 -17.5q8 0 14 0.5t11 1.5t10 3v-120q-8 -3 -18 -5q-20 -5 -47 -5zM160 -260q11 7 21 17q8 8 16.5 20.5t12.5 27.5q-30 0 -50 20t-20 50t20 50t50 20
t50 -20.5t20 -54.5q0 -40 -15.5 -69.5t-34.5 -49.5q-22 -24 -50 -41z" />
    <glyph glyph-name="uni0232" unicode="&#x232;" horiz-adv-x="565" 
d="M210 235l-210 395h155l128 -250l127 250h155l-210 -395v-235h-145v235zM150 805h265v-105h-265v105z" />
    <glyph glyph-name="uni0233" unicode="&#x233;" horiz-adv-x="490" 
d="M125 -165q-8 0 -15.5 0.5t-14.5 1.5q-8 1 -15 3v115q42 0 63 17.5t32 47.5l-175 440h145l100 -285l100 285h145l-185 -460q-35 -86 -75.5 -125.5t-104.5 -39.5zM115 625h265v-105h-265v105z" />
    <glyph glyph-name="uni0244" unicode="&#x244;" horiz-adv-x="680" 
d="M340 -5q-58 0 -106 19t-82 53t-53 82t-19 106v70h-70v115h70v190h145v-190h230v190h145v-190h70v-115h-70v-70q0 -58 -19 -106t-53 -82t-82 -53t-106 -19zM340 135q53 0 84 31.5t31 88.5v70h-230v-70q0 -57 31 -88.5t84 -31.5z" />
    <glyph glyph-name="uni0259" unicode="&#x259;" horiz-adv-x="515" 
d="M250 -10q-47 0 -88 17t-71.5 48.5t-48 76t-17.5 98.5q0 8 0.5 15.5t1.5 14.5q1 8 3 15h315q-8 26 -32.5 48t-62.5 22q-19 0 -32.5 -5t-21.5 -10q-10 -7 -16 -15l-140 10q9 28 27 54t45 46.5t62.5 32.5t80.5 12q47 0 88.5 -18.5t73 -51t50 -76t18.5 -94.5t-18.5 -94.5
t-50.5 -76t-74.5 -51t-91.5 -18.5zM250 115q38 0 62.5 22.5t32.5 52.5h-190q8 -30 32.5 -52.5t62.5 -22.5z" />
    <glyph glyph-name="uni0289" unicode="&#x289;" horiz-adv-x="560" 
d="M245 -5q-41 0 -75 13.5t-58.5 39t-38 61.5t-13.5 81v40h-50v100h50v130h135v-130h170v130h135v-130h50v-100h-50v-230h-100l-20 45q-17 -14 -38 -25q-18 -10 -42.5 -17.5t-54.5 -7.5zM280 120q38 0 61.5 25t23.5 70v15h-170v-15q0 -45 23.5 -70t61.5 -25z" />
    <glyph glyph-name="uni02BC" unicode="&#x2bc;" horiz-adv-x="200" 
d="M50 435q11 7 21 17q8 8 16.5 20.5t12.5 27.5q-30 0 -50 20t-20 50t20 50t50 20t50 -20.5t20 -54.5q0 -40 -15.5 -69.5t-34.5 -49.5q-22 -24 -50 -41z" />
    <glyph glyph-name="circumflex" unicode="&#x2c6;" horiz-adv-x="380" 
d="M130 635h120l100 -130h-115l-45 60l-45 -60h-115z" />
    <glyph glyph-name="caron" unicode="&#x2c7;" horiz-adv-x="380" 
d="M30 635h115l45 -60l45 60h115l-100 -130h-120z" />
    <glyph glyph-name="breve" unicode="&#x2d8;" horiz-adv-x="350" 
d="M175 505q-30 0 -55 10t-44 27t-30.5 41t-15.5 52h95q4 -23 17.5 -36.5t32.5 -13.5t32.5 13.5t17.5 36.5h95q-8 -56 -46.5 -93t-98.5 -37z" />
    <glyph glyph-name="dotaccent" unicode="&#x2d9;" horiz-adv-x="210" 
d="M105 505q-30 0 -52.5 22.5t-22.5 52.5t22.5 52.5t52.5 22.5t52.5 -22.5t22.5 -52.5t-22.5 -52.5t-52.5 -22.5z" />
    <glyph glyph-name="ring" unicode="&#x2da;" horiz-adv-x="260" 
d="M130 485q-45 0 -72.5 26.5t-27.5 68.5t27.5 68.5t72.5 26.5t72.5 -26.5t27.5 -68.5t-27.5 -68.5t-72.5 -26.5zM130 545q15 0 25 10t10 25t-10 25t-25 10t-25 -10t-10 -25t10 -25t25 -10z" />
    <glyph glyph-name="ogonek" unicode="&#x2db;" horiz-adv-x="235" 
d="M140 -190q-53 0 -81.5 26t-28.5 64q0 20 7 38.5t15 32.5q10 16 23 29h75q-9 -13 -15 -25q-6 -11 -10.5 -24t-4.5 -26q0 -19 13 -32t32 -13q9 0 16.5 0.5t12.5 1.5q6 1 11 3v-65q-8 -3 -18 -5q-18 -5 -47 -5z" />
    <glyph glyph-name="tilde" unicode="&#x2dc;" horiz-adv-x="370" 
d="M30 515q0 64 26 94.5t64 30.5q22 0 38 -7t28 -15.5t22.5 -15.5t21.5 -7q15 0 25 11t10 34l75 -10q0 -64 -26 -94.5t-64 -30.5q-23 0 -38.5 7t-27.5 15.5t-22.5 15.5t-21.5 7q-14 0 -24.5 -11t-10.5 -34z" />
    <glyph glyph-name="hungarumlaut" unicode="&#x2dd;" horiz-adv-x="440" 
d="M100 635h135l-100 -130h-105zM275 635h135l-100 -130h-105z" />
    <glyph glyph-name="acutecomb" unicode="&#x301;" horiz-adv-x="0" 
d="M-315 825h135l-95 -130h-105z" />
    <glyph glyph-name="uni0302" unicode="&#x302;" horiz-adv-x="0" 
d="M-385 825h120l100 -130h-115l-45 60l-45 -60h-115z" />
    <glyph glyph-name="uni0304" unicode="&#x304;" horiz-adv-x="0" 
d="M-460 805h265v-105h-265v105z" />
    <glyph glyph-name="uni0306" unicode="&#x306;" horiz-adv-x="0" 
d="M-330 690q-30 0 -55 10t-44 27t-30.5 41t-15.5 52h95q4 -23 17.5 -36.5t32.5 -13.5t32.5 13.5t17.5 36.5h95q-8 -56 -46.5 -93t-98.5 -37z" />
    <glyph glyph-name="uni0308" unicode="&#x308;" horiz-adv-x="0" 
d="M-420 690q-30 0 -50 20t-20 50t20 50t50 20t50 -20t20 -50t-20 -50t-50 -20zM-235 690q-30 0 -50 20t-20 50t20 50t50 20t50 -20t20 -50t-20 -50t-50 -20z" />
    <glyph glyph-name="hookabovecomb" unicode="&#x309;" horiz-adv-x="225" 
d="M80 520q7 9 12 19q5 8 9 19t4 22q0 19 -13.5 32t-36.5 13q-6 0 -10.5 -1t-7.5 -2q-4 -1 -7 -2v65q6 2 14 5q7 2 17 3.5t24 1.5q53 0 81.5 -26t28.5 -64q0 -21 -6 -36.5t-14 -26.5q-9 -12 -20 -22h-75v0z" />
    <glyph glyph-name="uni030A" unicode="&#x30a;" horiz-adv-x="0" 
d="M-325 670q-45 0 -72.5 26.5t-27.5 68.5t27.5 68.5t72.5 26.5t72.5 -26.5t27.5 -68.5t-27.5 -68.5t-72.5 -26.5zM-325 730q15 0 25 10t10 25t-10 25t-25 10t-25 -10t-10 -25t10 -25t25 -10z" />
    <glyph glyph-name="uni030C" unicode="&#x30c;" horiz-adv-x="0" 
d="M-485 825h115l45 -60l45 60h115l-100 -130h-120z" />
    <glyph glyph-name="uni031B" unicode="&#x31b;" horiz-adv-x="205" 
d="M65 345q-6 0 -12 0.5t-11 1.5q-6 1 -12 3v65h15q19 0 29.5 10t10.5 25q0 11 -2.5 21t-5.5 18q-4 9 -7 16h85q6 -8 10 -18q4 -8 7 -20t3 -27q0 -42 -28.5 -68.5t-81.5 -26.5z" />
    <glyph glyph-name="dotbelowcomb" unicode="&#x323;" horiz-adv-x="210" 
d="M105 -185q-30 0 -52.5 22.5t-22.5 52.5t22.5 52.5t52.5 22.5t52.5 -22.5t22.5 -52.5t-22.5 -52.5t-52.5 -22.5z" />
    <glyph glyph-name="uni0400" unicode="&#x400;" horiz-adv-x="560" 
d="M60 630h450v-140h-305v-100h280v-140h-280v-110h315v-140h-460v630zM155 825h135l65 -130h-105z" />
    <glyph glyph-name="uni0401" unicode="&#x401;" horiz-adv-x="560" 
d="M60 630h450v-140h-305v-100h280v-140h-280v-110h315v-140h-460v630zM200 690q-30 0 -50 20t-20 50t20 50t50 20t50 -20t20 -50t-20 -50t-50 -20zM385 690q-30 0 -50 20t-20 50t20 50t50 20t50 -20t20 -50t-20 -50t-50 -20z" />
    <glyph glyph-name="uni0402" unicode="&#x402;" horiz-adv-x="660" 
d="M370 85q57 0 86 27.5t29 72.5t-27.5 72.5t-72.5 27.5t-72.5 -27.5t-27.5 -72.5v-185h-145v490h-135v140h420v-140h-140v-130q14 15 34 27q17 11 42 19.5t59 8.5q47 0 85.5 -15.5t66.5 -45t43 -72.5t15 -97q0 -109 -66 -172t-194 -63v135z" />
    <glyph glyph-name="uni0403" unicode="&#x403;" horiz-adv-x="480" 
d="M60 630h410v-140h-265v-490h-145v630zM275 825h135l-95 -130h-105z" />
    <glyph glyph-name="uni0404" unicode="&#x404;" horiz-adv-x="645" 
d="M340 -5q-64 0 -120.5 24.5t-98.5 68t-66.5 101.5t-24.5 126q0 67 24.5 125.5t66.5 102t98.5 68t120.5 24.5q56 0 102.5 -17.5t82.5 -47t60 -68.5t35 -82l-150 -10q-15 34 -46 59.5t-84 25.5q-30 0 -56 -10.5t-46 -27t-33.5 -38.5t-19.5 -44h205v-120h-205q7 -24 21 -46
t34 -38.5t45 -26t55 -9.5q56 0 88 25t47 55l150 -10q-11 -41 -35.5 -79t-60.5 -67t-83.5 -46.5t-105.5 -17.5z" />
    <glyph glyph-name="uni0405" unicode="&#x405;" horiz-adv-x="525" 
d="M260 -5q-54 0 -97 15t-72.5 42.5t-45 65t-15.5 82.5l140 10q0 -85 90 -85q42 0 63.5 19.5t21.5 45.5q0 24 -23 37t-57.5 24t-74.5 23t-74.5 33.5t-57.5 56.5t-23 91q0 36 15.5 68.5t44.5 57t70.5 39.5t94.5 15q51 0 91.5 -15t69 -42t44 -63.5t15.5 -79.5l-140 -10
q0 38 -21 59t-59 21q-34 0 -54.5 -18.5t-20.5 -41.5t23 -35t57.5 -22.5t74.5 -22.5t74.5 -34t57.5 -58t23 -93q0 -38 -15.5 -71.5t-45.5 -58.5t-74 -40t-100 -15z" />
    <glyph glyph-name="uni0406" unicode="&#x406;" horiz-adv-x="265" 
d="M60 630h145v-630h-145v630z" />
    <glyph glyph-name="uni0407" unicode="&#x407;" horiz-adv-x="265" 
d="M60 630h145v-630h-145v630zM40 690q-30 0 -50 20t-20 50t20 50t50 20t50 -20t20 -50t-20 -50t-50 -20zM225 690q-30 0 -50 20t-20 50t20 50t50 20t50 -20t20 -50t-20 -50t-50 -20z" />
    <glyph glyph-name="uni0408" unicode="&#x408;" horiz-adv-x="485" 
d="M220 -5q-49 0 -88.5 15t-67.5 42.5t-43.5 65t-15.5 82.5q18 1 42.5 2.5t47.5 3.5q26 2 55 4q0 -34 20 -54.5t50 -20.5t50 20.5t20 54.5v420h145v-420q0 -49 -15.5 -88.5t-43.5 -67.5t-67.5 -43.5t-88.5 -15.5z" />
    <glyph glyph-name="uni0409" unicode="&#x409;" horiz-adv-x="920" 
d="M60 -5q-12 0 -23 0.5t-19 1.5q-10 1 -18 3v125h20q34 0 57.5 25t27.5 70l35 410h430v-200h105q49 0 90 -16.5t71 -46t47 -68.5t17 -84t-17 -84t-47 -68.5t-71 -46t-90 -16.5h-250v490h-155l-25 -300q-8 -94 -57 -144.5t-128 -50.5zM675 140q34 0 57 22.5t23 52.5
t-23 52.5t-57 22.5h-105v-150h105z" />
    <glyph glyph-name="uni040A" unicode="&#x40a;" horiz-adv-x="925" 
d="M60 630h145v-200h225v200h145v-200h105q49 0 90 -16.5t71 -46t47 -68.5t17 -84t-17 -84t-47 -68.5t-71 -46t-90 -16.5h-250v290h-225v-290h-145v630zM680 140q34 0 57 22.5t23 52.5t-23 52.5t-57 22.5h-105v-150h105z" />
    <glyph glyph-name="uni040B" unicode="&#x40b;" horiz-adv-x="665" 
d="M140 490h-135v140h420v-140h-140v-130q14 15 34 27q17 11 42 19.5t59 8.5q43 0 79.5 -15.5t63.5 -45t42 -72.5t15 -97v-185h-145v185q0 45 -26.5 72.5t-68.5 27.5t-68.5 -27.5t-26.5 -72.5v-185h-145v490z" />
    <glyph glyph-name="uni040C" unicode="&#x40c;" horiz-adv-x="565" 
d="M60 630h145v-270l190 270h165l-222 -310l237 -320h-165l-205 280v-280h-145v630zM310 825h135l-95 -130h-105z" />
    <glyph glyph-name="uni040D" unicode="&#x40d;" horiz-adv-x="650" 
d="M60 630h145v-375l255 375h130v-630h-145v375l-255 -375h-130v630zM190 825h135l65 -130h-105z" />
    <glyph glyph-name="uni040E" unicode="&#x40e;" horiz-adv-x="545" 
d="M140 -10q-26 0 -46 5q-11 2 -19 5v130q6 -2 13 -3q6 -1 14 -1.5t18 -0.5q23 0 38.5 8t26.5 19q12 12 20 28l-205 450h150l125 -280l125 280h150l-200 -450q-24 -54 -46 -90.5t-46 -58.5t-52.5 -31.5t-65.5 -9.5zM275 690q-30 0 -55 10t-44 27t-30.5 41t-15.5 52h95
q4 -23 17.5 -36.5t32.5 -13.5t32.5 13.5t17.5 36.5h95q-8 -56 -46.5 -93t-98.5 -37z" />
    <glyph glyph-name="uni040F" unicode="&#x40f;" horiz-adv-x="645" 
d="M250 0h-190v630h145v-490h235v490h145v-630h-190v-120h-145v120z" />
    <glyph glyph-name="uni0410" unicode="&#x410;" horiz-adv-x="590" 
d="M220 630h150l225 -630h-150l-40 120h-220l-40 -120h-150zM365 245l-70 210l-70 -210h140z" />
    <glyph glyph-name="uni0411" unicode="&#x411;" horiz-adv-x="580" 
d="M60 630h440v-140h-295v-90h125q49 0 89.5 -16t69.5 -43t45 -63.5t16 -77.5t-16 -77.5t-45 -63.5t-69.5 -43t-89.5 -16h-270v630zM325 125q34 0 57 22.5t23 52.5t-23 52.5t-57 22.5h-120v-150h120z" />
    <glyph glyph-name="uni0412" unicode="&#x412;" horiz-adv-x="580" 
d="M60 630h270q43 0 79 -14t61.5 -38t40 -55.5t14.5 -67.5q0 -32 -12 -55t-26 -37q-17 -17 -37 -28q28 -13 50 -34q19 -18 34.5 -46t15.5 -70q0 -38 -15 -71.5t-42.5 -58.5t-65 -40t-82.5 -15h-285v630zM330 120q34 0 57 22.5t23 52.5t-23 52.5t-57 22.5h-125v-150h125z
M315 380q30 0 50 19.5t20 45.5t-20 45.5t-50 19.5h-110v-130h110z" />
    <glyph glyph-name="uni0413" unicode="&#x413;" horiz-adv-x="480" 
d="M60 630h410v-140h-265v-490h-145v630z" />
    <glyph glyph-name="uni0414" unicode="&#x414;" horiz-adv-x="655" 
d="M0 140h40q16 7 29 20q11 11 21.5 30.5t14.5 49.5l45 390h420v-490h70v-260h-145v120h-350v-120h-145v260zM425 140v350h-150l-30 -250q-4 -30 -12.5 -49.5t-16.5 -30.5q-10 -13 -21 -20h230z" />
    <glyph glyph-name="uni0415" unicode="&#x415;" horiz-adv-x="560" 
d="M60 630h450v-140h-305v-100h280v-140h-280v-110h315v-140h-460v630z" />
    <glyph glyph-name="uni0416" unicode="&#x416;" horiz-adv-x="815" 
d="M202 320l-197 310h165l165 -270v270h145v-270l165 270h165l-197 -310l212 -320h-165l-180 280v-280h-145v280l-180 -280h-165z" />
    <glyph glyph-name="uni0417" unicode="&#x417;" horiz-adv-x="525" 
d="M265 -5q-56 0 -100 15t-75 41t-48.5 62t-21.5 77l145 10q8 -30 32.5 -52.5t62.5 -22.5q42 0 63.5 20t21.5 50q0 26 -21.5 45.5t-63.5 19.5h-65v120h60q42 0 61 17t19 43t-21 45.5t-59 19.5q-34 0 -55 -20t-25 -50l-145 10q2 39 18.5 74t46 60.5t71 40.5t94.5 15
q51 0 91.5 -14.5t69 -39t44 -56t15.5 -65.5t-13 -58.5t-29 -40.5q-18 -18 -42 -31q27 -13 49 -34q19 -18 34.5 -48t15.5 -73q0 -36 -15.5 -68.5t-45 -57t-72.5 -39.5t-97 -15z" />
    <glyph glyph-name="uni0418" unicode="&#x418;" horiz-adv-x="650" 
d="M60 630h145v-375l255 375h130v-630h-145v375l-255 -375h-130v630z" />
    <glyph glyph-name="uni0419" unicode="&#x419;" horiz-adv-x="650" 
d="M60 630h145v-375l255 375h130v-630h-145v375l-255 -375h-130v630zM325 690q-30 0 -55 10t-44 27t-30.5 41t-15.5 52h95q4 -23 17.5 -36.5t32.5 -13.5t32.5 13.5t17.5 36.5h95q-8 -56 -46.5 -93t-98.5 -37z" />
    <glyph glyph-name="uni041A" unicode="&#x41a;" horiz-adv-x="565" 
d="M60 630h145v-270l190 270h165l-222 -310l237 -320h-165l-205 280v-280h-145v630z" />
    <glyph glyph-name="uni041B" unicode="&#x41b;" horiz-adv-x="645" 
d="M60 -5q-12 0 -23 0.5t-19 1.5q-10 1 -18 3v125h20q34 0 57.5 25t27.5 70l35 410h445v-630h-145v490h-170l-25 -300q-8 -94 -57 -144.5t-128 -50.5z" />
    <glyph glyph-name="uni041C" unicode="&#x41c;" horiz-adv-x="790" 
d="M60 630h130l205 -445l205 445h130v-630h-145v315l-145 -315h-90l-145 315v-315h-145v630z" />
    <glyph glyph-name="uni041D" unicode="&#x41d;" horiz-adv-x="650" 
d="M60 630h145v-240h240v240h145v-630h-145v250h-240v-250h-145v630z" />
    <glyph glyph-name="uni041E" unicode="&#x41e;" horiz-adv-x="680" 
d="M340 -5q-64 0 -120.5 24.5t-98.5 68t-66.5 101.5t-24.5 126q0 67 24.5 125.5t66.5 102t98.5 68t120.5 24.5t120.5 -24.5t98.5 -68t66.5 -102t24.5 -125.5q0 -68 -24.5 -126t-66.5 -101.5t-98.5 -68t-120.5 -24.5zM340 135q34 0 64 13.5t52.5 37.5t35.5 57t13 72t-13 72
t-35.5 57t-52.5 37.5t-64 13.5t-64 -13.5t-52.5 -37.5t-35.5 -57t-13 -72t13 -72t35.5 -57t52.5 -37.5t64 -13.5z" />
    <glyph glyph-name="uni041F" unicode="&#x41f;" horiz-adv-x="655" 
d="M60 630h535v-630h-145v490h-245v-490h-145v630z" />
    <glyph glyph-name="uni0420" unicode="&#x420;" horiz-adv-x="560" 
d="M60 630h245q49 0 90 -16.5t71 -46t47 -68.5t17 -84t-17 -84t-47 -68.5t-71 -46t-90 -16.5h-100v-200h-145v630zM305 340q34 0 57 22.5t23 52.5t-23 52.5t-57 22.5h-100v-150h100z" />
    <glyph glyph-name="uni0421" unicode="&#x421;" horiz-adv-x="650" 
d="M340 -5q-64 0 -120.5 24.5t-98.5 68t-66.5 101.5t-24.5 126q0 67 24.5 125.5t66.5 102t98.5 68t120.5 24.5q56 0 103.5 -18.5t84 -49t61.5 -71.5t36 -86l-150 -10q-6 19 -17 36t-28 30t-39.5 21t-50.5 8q-34 0 -64 -13.5t-52.5 -37.5t-35.5 -57t-13 -72t13 -72t35.5 -57
t52.5 -37.5t64 -13.5q60 0 94.5 28.5t45.5 66.5l150 -10q-11 -45 -36 -86t-62 -71.5t-85.5 -49t-106.5 -18.5z" />
    <glyph glyph-name="uni0422" unicode="&#x422;" horiz-adv-x="525" 
d="M190 490h-180v140h505v-140h-180v-490h-145v490z" />
    <glyph glyph-name="uni0423" unicode="&#x423;" horiz-adv-x="545" 
d="M140 -10q-26 0 -46 5q-11 2 -19 5v130q6 -2 13 -3q6 -1 14 -1.5t18 -0.5q23 0 38.5 8t26.5 19q12 12 20 28l-205 450h150l125 -280l125 280h150l-200 -450q-24 -54 -46 -90.5t-46 -58.5t-52.5 -31.5t-65.5 -9.5z" />
    <glyph glyph-name="uni0424" unicode="&#x424;" horiz-adv-x="755" 
d="M305 70q-64 4 -115.5 25t-88 55.5t-56.5 79t-20 95.5t20 95.5t56.5 79t88 55.5t115.5 25v55h145v-55q64 -4 115.5 -25t88 -55.5t56.5 -79t20 -95.5t-20 -95.5t-56.5 -79t-88 -55.5t-115.5 -25v-75h-145v75zM305 445q-64 -4 -99.5 -37.5t-35.5 -82.5t35.5 -82.5
t99.5 -37.5v240zM450 205q64 4 99.5 37.5t35.5 82.5t-35.5 82.5t-99.5 37.5v-240z" />
    <glyph glyph-name="uni0425" unicode="&#x425;" horiz-adv-x="580" 
d="M200 320l-190 310h160l120 -205l120 205h160l-190 -310l200 -320h-160l-130 215l-130 -215h-160z" />
    <glyph glyph-name="uni0426" unicode="&#x426;" horiz-adv-x="660" 
d="M500 0h-440v630h145v-490h225v490h145v-490h70v-260h-145v120z" />
    <glyph glyph-name="uni0427" unicode="&#x427;" horiz-adv-x="615" 
d="M410 210q-18 -10 -39 -18q-18 -7 -43 -12t-53 -5q-51 0 -92.5 16t-71 45.5t-45.5 71t-16 92.5v230h145v-220q0 -105 105 -105q23 0 42.5 4.5t34.5 10.5q18 6 33 15v295h145v-630h-145v210z" />
    <glyph glyph-name="uni0428" unicode="&#x428;" horiz-adv-x="875" 
d="M60 630h145v-490h160v490h145v-490h160v490h145v-630h-755v630z" />
    <glyph glyph-name="uni0429" unicode="&#x429;" horiz-adv-x="900" 
d="M740 0h-680v630h145v-490h160v490h145v-490h160v490h145v-490h70v-260h-145v120z" />
    <glyph glyph-name="uni042A" unicode="&#x42a;" horiz-adv-x="620" 
d="M125 490h-125v140h270v-200h105q49 0 90 -16.5t71 -46t47 -68.5t17 -84t-17 -84t-47 -68.5t-71 -46t-90 -16.5h-250v490zM375 140q34 0 57 22.5t23 52.5t-23 52.5t-57 22.5h-105v-150h105z" />
    <glyph glyph-name="uni042B" unicode="&#x42b;" horiz-adv-x="790" 
d="M60 630h145v-200h95q49 0 90 -16.5t71 -46t47 -68.5t17 -84t-17 -84t-47 -68.5t-71 -46t-90 -16.5h-240v630zM300 140q34 0 57 22.5t23 52.5t-23 52.5t-57 22.5h-95v-150h95zM585 630h145v-630h-145v630z" />
    <glyph glyph-name="uni042C" unicode="&#x42c;" horiz-adv-x="555" 
d="M60 630h145v-200h105q49 0 90 -16.5t71 -46t47 -68.5t17 -84t-17 -84t-47 -68.5t-71 -46t-90 -16.5h-250v630zM310 140q34 0 57 22.5t23 52.5t-23 52.5t-57 22.5h-105v-150h105z" />
    <glyph glyph-name="uni042D" unicode="&#x42d;" horiz-adv-x="645" 
d="M305 -5q-58 0 -105.5 17.5t-83.5 46.5t-60.5 67t-35.5 79l150 10q15 -30 47 -55t88 -25q30 0 55 9.5t45 26t33.5 38.5t21.5 46h-205v120h205q-6 22 -19.5 44t-33.5 38.5t-46 27t-56 10.5q-53 0 -84 -25.5t-46 -59.5l-150 10q11 43 35 82t60 68.5t82.5 47t102.5 17.5
q64 0 120.5 -24.5t98.5 -68t66.5 -102t24.5 -125.5q0 -68 -24.5 -126t-66.5 -101.5t-98.5 -68t-120.5 -24.5z" />
    <glyph glyph-name="uni042E" unicode="&#x42e;" horiz-adv-x="885" 
d="M560 -5q-56 0 -103.5 19.5t-84 52.5t-61.5 77.5t-36 95.5h-70v-240h-145v630h145v-250h65q9 52 34.5 98.5t63.5 81.5t87 55t105 20q60 0 113.5 -24t94 -66.5t64 -101.5t23.5 -128t-23.5 -128t-64 -101.5t-94 -66.5t-113.5 -24zM560 135q30 0 57 12.5t48 36t33 57t12 74.5
t-12 74.5t-33 57t-48 36t-57 12.5t-57 -12.5t-48 -36t-33 -57t-12 -74.5t12 -74.5t33 -57t48 -36t57 -12.5z" />
    <glyph glyph-name="uni042F" unicode="&#x42f;" horiz-adv-x="575" 
d="M160 245l-18 9t-39.5 31t-39.5 57t-18 88q0 41 16 77.5t45 63.5t69.5 43t89.5 16h250v-630h-145v210h-75l-120 -210h-160zM370 350v140h-105q-38 0 -59 -20t-21 -50t21 -50t59 -20h105z" />
    <glyph glyph-name="uni0430" unicode="&#x430;" horiz-adv-x="485" 
d="M185 -5q-75 0 -115 36.5t-40 93.5q0 34 13.5 62.5t45.5 49t84.5 32t131.5 11.5q0 34 -17 52t-43 18q-19 0 -30.5 -7.5t-18.5 -15.5q-8 -10 -11 -22l-135 10q6 34 21 62.5t39.5 49t59.5 32t80 11.5q41 0 76 -14t60.5 -39.5t39.5 -60.5t14 -76v-280h-100l-20 45
q-17 -14 -38 -25q-18 -10 -42.5 -17.5t-54.5 -7.5zM220 95q38 0 61.5 23.5t23.5 61.5v20q-43 0 -70.5 -4.5t-43 -12.5t-21 -19t-5.5 -24q0 -19 14.5 -32t40.5 -13z" />
    <glyph glyph-name="uni0431" unicode="&#x431;" horiz-adv-x="540" 
d="M275 -10q-51 0 -94.5 19.5t-76 56.5t-51 91t-18.5 123q0 97 21 166.5t69.5 114t127 66t192.5 23.5v-120q-75 -2 -124.5 -12.5t-81 -29t-48.5 -45.5t-26 -63q14 17 34 30q17 11 42.5 20.5t58.5 9.5q45 0 83.5 -16t66.5 -45.5t44 -71t16 -92.5q0 -47 -17.5 -88t-49 -71.5
t-74.5 -48t-94 -17.5zM275 115q42 0 71 29t29 71t-29 71t-71 29t-71 -29t-29 -71t29 -71t71 -29z" />
    <glyph glyph-name="uni0432" unicode="&#x432;" horiz-adv-x="475" 
d="M50 460h235q72 0 111 -36t39 -89q0 -25 -8.5 -42.5t-19.5 -29.5q-12 -14 -27 -23q19 -10 35 -25q13 -14 24 -34.5t11 -50.5q0 -26 -11 -49.5t-30.5 -41.5t-47 -28.5t-61.5 -10.5h-250v460zM270 100q19 0 32 13t13 32t-13 32t-32 13h-85v-90h85zM255 280q45 0 45 40
t-45 40h-70v-80h70z" />
    <glyph glyph-name="uni0433" unicode="&#x433;" horiz-adv-x="390" 
d="M50 460h330v-130h-195v-330h-135v460z" />
    <glyph glyph-name="uni0434" unicode="&#x434;" horiz-adv-x="525" 
d="M0 130h32q12 4 22 14q8 8 16 21.5t10 34.5l30 260h345v-330h60v-230h-135v100h-245v-100h-135v230zM320 130v200h-95l-15 -130q-2 -21 -8 -34.5t-12 -21.5q-7 -10 -15 -14h145z" />
    <glyph glyph-name="uni0435" unicode="&#x435;" horiz-adv-x="515" 
d="M260 -10q-47 0 -88.5 18.5t-73 51t-50 76t-18.5 94.5t18.5 94.5t50.5 76t74.5 51t91.5 18.5q47 0 88 -17t71.5 -48.5t48 -76t17.5 -98.5q0 -8 -1 -15.5t-2 -14.5q-1 -8 -2 -15h-315q8 -26 32.5 -48t62.5 -22q19 0 32.5 4.5t21.5 10.5q10 6 16 15l140 -10q-9 -28 -27 -54
t-45 -46.5t-62.5 -32.5t-80.5 -12zM360 270q-8 30 -32.5 52.5t-62.5 22.5t-62.5 -22.5t-32.5 -52.5h190z" />
    <glyph glyph-name="uni0436" unicode="&#x436;" horiz-adv-x="685" 
d="M160 240l-155 220h155l115 -185v185h135v-185l115 185h155l-155 -220l165 -240h-155l-125 205v-205h-135v205l-125 -205h-155z" />
    <glyph glyph-name="uni0437" unicode="&#x437;" horiz-adv-x="440" 
d="M220 -10q-45 0 -80.5 12.5t-61 33.5t-40 49t-18.5 60q9 0 20 1q9 1 20 1.5t23 2.5q27 2 62 5q4 -23 21.5 -39t43.5 -16q30 0 45 13t15 32q0 15 -15 27.5t-45 12.5h-45v95h45q23 0 36.5 12.5t13.5 27.5t-13.5 27.5t-36.5 12.5q-26 0 -41 -13t-19 -32l-125 10q15 67 60 106
t135 39q41 0 74.5 -12t57 -31.5t36 -45t12.5 -51.5q0 -29 -9.5 -47t-20.5 -29q-13 -12 -30 -19q19 -10 35 -24q13 -12 24 -31t11 -45q0 -28 -13 -54t-37 -46.5t-59.5 -32.5t-80.5 -12z" />
    <glyph glyph-name="uni0438" unicode="&#x438;" 
d="M50 460h135v-255l175 255h125v-460h-135v255l-175 -255h-125v460z" />
    <glyph glyph-name="uni0439" unicode="&#x439;" 
d="M50 460h135v-255l175 255h125v-460h-135v255l-175 -255h-125v460zM270 505q-30 0 -55 10t-44 27t-30.5 41t-15.5 52h95q4 -23 17.5 -36.5t32.5 -13.5t32.5 13.5t17.5 36.5h95q-8 -56 -46.5 -93t-98.5 -37z" />
    <glyph glyph-name="uni043A" unicode="&#x43a;" horiz-adv-x="475" 
d="M50 460h135v-185l125 185h155l-155 -220l170 -240h-155l-140 205v-205h-135v460z" />
    <glyph glyph-name="uni043B" unicode="&#x43b;" horiz-adv-x="510" 
d="M40 -5q-10 0 -17 0.5t-12 1.5q-6 1 -11 3v115h15q30 0 43 13.5t17 51.5l25 280h360v-460h-135v330h-105l-15 -180q-6 -75 -48 -115t-117 -40z" />
    <glyph glyph-name="uni043C" unicode="&#x43c;" horiz-adv-x="630" 
d="M50 460h135l130 -275l130 275h135v-460h-135v220l-105 -220h-50l-105 220v-220h-135v460z" />
    <glyph glyph-name="uni043D" unicode="&#x43d;" horiz-adv-x="530" 
d="M50 460h135v-165h160v165h135v-460h-135v165h-160v-165h-135v460z" />
    <glyph glyph-name="uni043E" unicode="&#x43e;" horiz-adv-x="530" 
d="M265 -10q-49 0 -91.5 18.5t-74.5 51t-50.5 76t-18.5 94.5t18.5 94.5t50.5 76t74.5 51t91.5 18.5t91.5 -18.5t74.5 -51t50.5 -76t18.5 -94.5t-18.5 -94.5t-50.5 -76t-74.5 -51t-91.5 -18.5zM265 115q42 0 71 31t29 84t-29 84t-71 31t-71 -31t-29 -84t29 -84t71 -31z" />
    <glyph glyph-name="uni043F" unicode="&#x43f;" horiz-adv-x="530" 
d="M50 460h430v-460h-135v330h-160v-330h-135v460z" />
    <glyph glyph-name="uni0440" unicode="&#x440;" horiz-adv-x="545" 
d="M50 460h100l20 -45q15 14 35 25q17 9 41 17t54 8q43 0 82 -17.5t68.5 -49t47 -74.5t17.5 -94t-17.5 -94t-47 -74.5t-68.5 -49t-82 -17.5q-26 0 -47.5 6t-36.5 14q-18 9 -31 20v-195h-135v620zM280 120q42 0 71 30.5t29 79.5t-29 79.5t-71 30.5t-71 -30.5t-29 -79.5
t29 -79.5t71 -30.5z" />
    <glyph glyph-name="uni0441" unicode="&#x441;" horiz-adv-x="510" 
d="M265 -10q-49 0 -91.5 18.5t-74.5 51t-50.5 76t-18.5 94.5t18.5 94.5t50.5 76t74.5 51t91.5 18.5q34 0 62 -7.5t50 -20.5t38.5 -29t28.5 -33q28 -40 41 -90l-135 -10q-7 18 -18 32q-10 12 -26.5 22.5t-40.5 10.5q-42 0 -71 -31t-29 -84t29 -84t71 -31q24 0 40.5 10
t26.5 22q11 14 18 33l135 -10q-13 -50 -41 -90q-12 -17 -28.5 -33t-38.5 -29t-50 -20.5t-62 -7.5z" />
    <glyph glyph-name="uni0442" unicode="&#x442;" horiz-adv-x="425" 
d="M145 330h-135v130h405v-130h-135v-330h-135v330z" />
    <glyph glyph-name="uni0443" unicode="&#x443;" horiz-adv-x="490" 
d="M125 -165q-8 0 -15.5 0.5t-14.5 1.5q-8 1 -15 3v115q42 0 63 17.5t32 47.5l-175 440h145l100 -285l100 285h145l-185 -460q-35 -86 -75.5 -125.5t-104.5 -39.5z" />
    <glyph glyph-name="uni0444" unicode="&#x444;" horiz-adv-x="755" 
d="M310 20q-10 -8 -24 -13q-12 -5 -29 -8.5t-37 -3.5q-38 0 -72 16.5t-60.5 47t-42 74t-15.5 97.5t15.5 97.5t42 74t60.5 47t72 16.5q20 0 37 -4t29 -9q14 -5 24 -12v190h135v-190q10 7 24 12q12 5 28.5 9t37.5 4q37 0 71.5 -16.5t61 -47t42 -74t15.5 -97.5t-15.5 -97.5
t-42 -74t-61 -47t-71.5 -16.5q-21 0 -37.5 3.5t-28.5 8.5q-14 5 -24 13v-180h-135v180zM250 120q13 0 24 3t19 7q10 4 17 10v180q-7 6 -17 10q-8 4 -19 7t-24 3q-34 0 -59.5 -28.5t-25.5 -81.5t25.5 -81.5t59.5 -28.5zM505 120q34 0 59.5 28.5t25.5 81.5t-25.5 81.5
t-59.5 28.5q-14 0 -24.5 -3t-18.5 -7q-10 -4 -17 -10v-180q7 -6 17 -10q8 -4 18.5 -7t24.5 -3z" />
    <glyph glyph-name="uni0445" unicode="&#x445;" horiz-adv-x="460" 
d="M145 235l-140 225h150l75 -130l75 130h150l-140 -225l150 -235h-150l-85 140l-85 -140h-150z" />
    <glyph glyph-name="uni0446" unicode="&#x446;" horiz-adv-x="540" 
d="M395 0h-345v460h135v-330h150v330h135v-330h60v-230h-135v100z" />
    <glyph glyph-name="uni0447" unicode="&#x447;" horiz-adv-x="505" 
d="M320 145q-15 -8 -33 -13q-15 -5 -34.5 -8.5t-42.5 -3.5q-38 0 -69 12.5t-53.5 36t-35 57t-12.5 74.5v160h135v-140q0 -34 20 -54.5t50 -20.5q17 0 30.5 3.5t23.5 8.5q11 5 21 13v190h135v-460h-135v145z" />
    <glyph glyph-name="uni0448" unicode="&#x448;" horiz-adv-x="715" 
d="M50 460h135v-330h105v330h135v-330h105v330h135v-460h-615v460z" />
    <glyph glyph-name="uni0449" unicode="&#x449;" horiz-adv-x="735" 
d="M590 0h-540v460h135v-330h105v330h135v-330h105v330h135v-330h60v-230h-135v100z" />
    <glyph glyph-name="uni044A" unicode="&#x44a;" horiz-adv-x="520" 
d="M105 330h-95v130h230v-140h95q36 0 66 -12.5t52 -34t34.5 -50.5t12.5 -63t-12.5 -63t-34.5 -50.5t-52 -34t-66 -12.5h-230v330zM310 110q26 0 40.5 13.5t14.5 36.5t-14.5 36.5t-40.5 13.5h-70v-100h70z" />
    <glyph glyph-name="uni044B" unicode="&#x44b;" horiz-adv-x="660" 
d="M50 460h135v-140h85q36 0 66 -12.5t52 -34t34.5 -50.5t12.5 -63t-12.5 -63t-34.5 -50.5t-52 -34t-66 -12.5h-220v460zM245 110q26 0 40.5 13.5t14.5 36.5t-14.5 36.5t-40.5 13.5h-60v-100h60zM475 460h135v-460h-135v460z" />
    <glyph glyph-name="uni044C" unicode="&#x44c;" horiz-adv-x="465" 
d="M50 460h135v-140h95q36 0 66 -12.5t52 -34t34.5 -50.5t12.5 -63t-12.5 -63t-34.5 -50.5t-52 -34t-66 -12.5h-230v460zM255 110q26 0 40.5 13.5t14.5 36.5t-14.5 36.5t-40.5 13.5h-70v-100h70z" />
    <glyph glyph-name="uni044D" unicode="&#x44d;" horiz-adv-x="505" 
d="M240 -10q-34 0 -61 7t-48.5 19t-37.5 27.5t-28 31.5q-27 37 -40 85l135 10q6 -16 17 -28q9 -11 24.5 -19t38.5 -8q26 0 43.5 10t28 22.5t14.5 22.5l4 10h-130v95h130q-6 19 -17 35q-10 13 -27.5 24t-45.5 11q-23 0 -38.5 -8.5t-24.5 -19.5q-11 -12 -17 -27l-135 10
q13 47 40 85q12 16 28 31t37.5 27t48.5 19.5t61 7.5q49 0 91.5 -18.5t74.5 -51t50.5 -76t18.5 -94.5t-18.5 -94.5t-50.5 -76t-74.5 -51t-91.5 -18.5z" />
    <glyph glyph-name="uni044E" unicode="&#x44e;" horiz-adv-x="705" 
d="M450 -10q-41 0 -76.5 14t-63 38t-47 55.5t-28.5 67.5h-50v-165h-135v460h135v-174h45q7 35 27 68.5t49 59t66 41t78 15.5q45 0 86 -18.5t71.5 -51t49 -76t18.5 -94.5t-18.5 -94.5t-49 -76t-71.5 -51t-86 -18.5zM450 115q17 0 33 8t29 23t20.5 36.5t7.5 47.5t-7.5 47.5
t-20.5 36.5t-29 23t-33 8t-33 -8t-29 -23t-20.5 -36.5t-7.5 -47.5t7.5 -47.5t20.5 -36.5t29 -23t33 -8z" />
    <glyph glyph-name="uni044F" unicode="&#x44f;" horiz-adv-x="485" 
d="M120 165q-22 12 -40 30q-15 16 -27.5 41.5t-12.5 63.5q0 34 12.5 63t34.5 50.5t52 34t66 12.5h230v-460h-135v140h-55l-85 -140h-145zM310 250v100h-80q-26 0 -40.5 -13.5t-14.5 -36.5t14.5 -36.5t40.5 -13.5h80z" />
    <glyph glyph-name="uni0450" unicode="&#x450;" horiz-adv-x="515" 
d="M260 -10q-47 0 -88.5 18.5t-73 51t-50 76t-18.5 94.5t18.5 94.5t50.5 76t74.5 51t91.5 18.5q47 0 88 -17t71.5 -48.5t48 -76t17.5 -98.5q0 -8 -1 -15.5t-2 -14.5q-1 -8 -2 -15h-315q8 -26 32.5 -48t62.5 -22q19 0 32.5 4.5t21.5 10.5q10 6 16 15l140 -10q-9 -28 -27 -54
t-45 -46.5t-62.5 -32.5t-80.5 -12zM360 270q-8 30 -32.5 52.5t-62.5 22.5t-62.5 -22.5t-32.5 -52.5h190zM120 645h135l65 -130h-105z" />
    <glyph glyph-name="uni0451" unicode="&#x451;" horiz-adv-x="515" 
d="M260 -10q-47 0 -88.5 18.5t-73 51t-50 76t-18.5 94.5t18.5 94.5t50.5 76t74.5 51t91.5 18.5q47 0 88 -17t71.5 -48.5t48 -76t17.5 -98.5q0 -8 -1 -15.5t-2 -14.5q-1 -8 -2 -15h-315q8 -26 32.5 -48t62.5 -22q19 0 32.5 4.5t21.5 10.5q10 6 16 15l140 -10q-9 -28 -27 -54
t-45 -46.5t-62.5 -32.5t-80.5 -12zM360 270q-8 30 -32.5 52.5t-62.5 22.5t-62.5 -22.5t-32.5 -52.5h190zM170 510q-30 0 -50 20t-20 50t20 50t50 20t50 -20t20 -50t-20 -50t-50 -20zM355 510q-30 0 -50 20t-20 50t20 50t50 20t50 -20t20 -50t-20 -50t-50 -20z" />
    <glyph glyph-name="uni0452" unicode="&#x452;" horiz-adv-x="550" 
d="M280 70q45 0 72.5 30t27.5 90q0 53 -23.5 79t-61.5 26t-61.5 -25t-23.5 -70v-200h-135v460h-70v110h70v60h135v-60h110v-110h-110v-90q13 14 31 25q16 9 40.5 17t58.5 8q39 0 72 -14t57 -42.5t37.5 -72t13.5 -101.5q0 -121 -63.5 -185.5t-176.5 -64.5v130z" />
    <glyph glyph-name="uni0453" unicode="&#x453;" horiz-adv-x="390" 
d="M50 460h330v-130h-195v-330h-135v460zM225 645h135l-95 -130h-105z" />
    <glyph glyph-name="uni0454" unicode="&#x454;" horiz-adv-x="505" 
d="M265 -10q-49 0 -91.5 18.5t-74.5 51t-50.5 76t-18.5 94.5t18.5 94.5t50.5 76t74.5 51t91.5 18.5q34 0 61 -7.5t48.5 -19.5t37.5 -27t28 -31q27 -38 40 -85l-135 -10q-7 15 -18 27q-10 11 -24.5 19.5t-37.5 8.5q-29 0 -46 -11t-27 -24q-11 -16 -17 -35h130v-95h-130
q7 -19 19 -33q11 -12 28 -22t43 -10q23 0 37.5 8t24.5 19q11 12 18 28l135 -10q-13 -48 -40 -85q-12 -16 -28 -31.5t-37.5 -27.5t-48.5 -19t-61 -7z" />
    <glyph glyph-name="uni0455" unicode="&#x455;" horiz-adv-x="445" 
d="M230 -10q-94 0 -141.5 41t-58.5 109l130 10q4 -23 19 -36.5t41 -13.5t40.5 12.5t14.5 27.5q0 12 -17.5 19.5t-43.5 15t-56.5 17.5t-56.5 26.5t-43.5 43.5t-17.5 68q0 28 12 53.5t34.5 44.5t55 30.5t73.5 11.5q90 0 137 -40t58 -100l-130 -10q-4 15 -18 27.5t-37 12.5
t-34 -10t-11 -25q0 -13 17.5 -20t43.5 -14.5t56.5 -17.5t56.5 -26.5t43.5 -43.5t17.5 -68q0 -28 -12.5 -54t-36.5 -46.5t-58.5 -32.5t-77.5 -12z" />
    <glyph glyph-name="uni0456" unicode="&#x456;" horiz-adv-x="235" 
d="M50 460h135v-460h-135v460zM120 510q-30 0 -52.5 22.5t-22.5 52.5t22.5 52.5t52.5 22.5t52.5 -22.5t22.5 -52.5t-22.5 -52.5t-52.5 -22.5z" />
    <glyph glyph-name="uni0457" unicode="&#x457;" horiz-adv-x="235" 
d="M50 460h135v-460h-135v460zM25 510q-30 0 -50 20t-20 50t20 50t50 20t50 -20t20 -50t-20 -50t-50 -20zM210 510q-30 0 -50 20t-20 50t20 50t50 20t50 -20t20 -50t-20 -50t-50 -20z" />
    <glyph glyph-name="uni0458" unicode="&#x458;" horiz-adv-x="235" 
d="M20 -165q-26 0 -46 5q-11 2 -19 5v120q5 -2 10 -3t11 -1.5t14 -0.5q26 0 43 17.5t17 47.5v435h135v-455q0 -83 -43 -126.5t-122 -43.5zM120 510q-30 0 -52.5 22.5t-22.5 52.5t22.5 52.5t52.5 22.5t52.5 -22.5t22.5 -52.5t-22.5 -52.5t-52.5 -22.5z" />
    <glyph glyph-name="uni0459" unicode="&#x459;" horiz-adv-x="715" 
d="M40 -5q-10 0 -17 0.5t-12 1.5q-6 1 -11 3v115h15q30 0 43 13.5t17 51.5l25 280h340v-150h90q36 0 66 -12.5t52 -33.5t34.5 -49t12.5 -60t-12.5 -60t-34.5 -49t-52 -33.5t-66 -12.5h-225v330h-85l-15 -180q-6 -75 -48 -115t-117 -40zM505 110q26 0 40.5 13t14.5 32
t-14.5 32t-40.5 13h-65v-90h65z" />
    <glyph glyph-name="uni045A" unicode="&#x45a;" horiz-adv-x="755" 
d="M50 460h135v-150h160v150h135v-150h90q36 0 66 -12.5t52 -33.5t34.5 -49t12.5 -60t-12.5 -60t-34.5 -49t-52 -33.5t-66 -12.5h-225v180h-160v-180h-135v460zM545 110q26 0 40.5 13t14.5 32t-14.5 32t-40.5 13h-65v-90h65z" />
    <glyph glyph-name="uni045B" unicode="&#x45b;" horiz-adv-x="560" 
d="M75 460h-70v110h70v60h135v-60h110v-110h-110v-90q13 14 31 25q16 9 40.5 17t58.5 8q37 0 69.5 -13.5t55.5 -39t36.5 -61.5t13.5 -81v-225h-135v200q0 45 -23.5 70t-61.5 25t-61.5 -25t-23.5 -70v-200h-135v460z" />
    <glyph glyph-name="uni045C" unicode="&#x45c;" horiz-adv-x="450" 
d="M50 460h135v-185l125 185h155l-155 -220l170 -240h-155l-140 205v-205h-135v460zM255 645h135l-95 -130h-105z" />
    <glyph glyph-name="uni045D" unicode="&#x45d;" 
d="M50 460h135v-255l175 255h125v-460h-135v255l-175 -255h-125v460zM130 645h135l65 -130h-105z" />
    <glyph glyph-name="uni045E" unicode="&#x45e;" horiz-adv-x="490" 
d="M125 -165q-8 0 -15.5 0.5t-14.5 1.5q-8 1 -15 3v115q42 0 63 17.5t32 47.5l-175 440h145l100 -285l100 285h145l-185 -460q-35 -86 -75.5 -125.5t-104.5 -39.5zM245 505q-30 0 -55 10t-44 27t-30.5 41t-15.5 52h95q4 -23 17.5 -36.5t32.5 -13.5t32.5 13.5t17.5 36.5h95
q-8 -56 -46.5 -93t-98.5 -37z" />
    <glyph glyph-name="uni045F" unicode="&#x45f;" horiz-adv-x="525" 
d="M195 0h-145v460h135v-330h155v330h135v-460h-145v-100h-135v100z" />
    <glyph glyph-name="uni0462" unicode="&#x462;" horiz-adv-x="620" 
d="M125 460h-125v100h125v70h145v-70h155v-100h-155v-50h115q47 0 86.5 -14.5t68 -40t44.5 -61.5t16 -79t-16 -82t-44.5 -68.5t-68 -47t-86.5 -17.5h-260v460zM375 130q34 0 57 22.5t23 52.5t-23 52.5t-57 22.5h-105v-150h105z" />
    <glyph glyph-name="uni0463" unicode="&#x463;" horiz-adv-x="515" 
d="M100 380h-95v110h95v140h135v-140h130v-110h-130v-60h95q36 0 66 -12.5t52 -34t34.5 -50.5t12.5 -63t-12.5 -63t-34.5 -50.5t-52 -34t-66 -12.5h-230v380zM305 110q26 0 40.5 13.5t14.5 36.5t-14.5 36.5t-40.5 13.5h-70v-100h70z" />
    <glyph glyph-name="uni046A" unicode="&#x46a;" horiz-adv-x="815" 
d="M35 60q0 62 16.5 111t46 85.5t68.5 61t84 37.5l-175 175v100h665v-100l-175 -175q45 -13 84 -37.5t68.5 -61t46 -85.5t16.5 -111v-60h-145v60q0 87 -43.5 134.5t-111.5 55.5v-250h-145v250q-68 -8 -111.5 -55.5t-43.5 -134.5v-60h-145v60zM555 515h-295l147 -145z" />
    <glyph glyph-name="uni046B" unicode="&#x46b;" horiz-adv-x="645" 
d="M20 0q2 56 16 99t37 73.5t53 51t64 31.5l-135 125v80h535v-80l-135 -125q34 -11 64 -31.5t53 -51t37 -73.5t16 -99h-135q-2 41 -10 70t-21 47.5t-30.5 28.5t-38.5 14v-160h-135v160q-21 -4 -38.5 -14t-30.5 -28.5t-21 -47.5t-10 -70h-135zM435 360h-225l112 -100z" />
    <glyph glyph-name="uni0472" unicode="&#x472;" horiz-adv-x="680" 
d="M340 -5q-64 0 -120.5 24.5t-98.5 68t-66.5 101.5t-24.5 126q0 67 24.5 125.5t66.5 102t98.5 68t120.5 24.5t120.5 -24.5t98.5 -68t66.5 -102t24.5 -125.5q0 -68 -24.5 -126t-66.5 -101.5t-98.5 -68t-120.5 -24.5zM340 135q30 0 55 9.5t45 26t34 38.5t22 46q-11 -3 -22 -5
q-22 -5 -49 -5q-26 0 -47.5 4.5t-41 10.5t-39.5 10.5t-42 4.5q-15 0 -28.5 -2.5t-23.5 -5.5q-11 -4 -21 -7q7 -25 21 -47.5t34.5 -40t46.5 -27.5t56 -10zM425 355q15 0 28 2t23 5l22 8q-7 25 -21 47.5t-34.5 39.5t-46.5 27.5t-56 10.5t-55 -9.5t-45 -26t-34 -38.5t-22 -46
q11 2 22 5q10 2 22.5 3.5t26.5 1.5q26 0 47.5 -4.5t41 -10.5t39 -10.5t42.5 -4.5z" />
    <glyph glyph-name="uni0473" unicode="&#x473;" horiz-adv-x="530" 
d="M265 -10q-49 0 -91.5 18.5t-74.5 51t-50.5 76t-18.5 94.5t18.5 94.5t50.5 76t74.5 51t91.5 18.5t91.5 -18.5t74.5 -51t50.5 -76t18.5 -94.5t-18.5 -94.5t-50.5 -76t-74.5 -51t-91.5 -18.5zM265 110q42 0 67 23t33 57q-6 -3 -14 -5q-15 -5 -41 -5q-13 0 -24.5 3t-23.5 7
t-24.5 7t-27.5 3q-10 0 -18 -1.5t-14 -3.5q-7 -3 -13 -5q8 -34 33 -57t67 -23zM320 260q19 0 32 5q7 2 13 5q-8 34 -33 57t-67 23t-67 -23t-33 -57q6 2 14 5q7 2 17 3.5t24 1.5q13 0 24.5 -3t23.5 -7t24.5 -7t27.5 -3z" />
    <glyph glyph-name="uni0474" unicode="&#x474;" horiz-adv-x="635" 
d="M5 630h150l140 -435l95 295q23 72 69 113.5t121 41.5q19 0 34.5 -3t26.5 -7q13 -4 24 -10l-35 -130l-10 5q-5 2 -11 3.5t-14 1.5q-30 0 -47 -15.5t-28 -49.5l-150 -440h-150z" />
    <glyph glyph-name="uni0475" unicode="&#x475;" horiz-adv-x="520" 
d="M0 460h145l100 -300l55 165q28 83 65.5 117t94.5 34q19 0 33.5 -3.5t25.5 -7.5q12 -4 21 -10l-35 -115q-3 1 -7 2q-3 1 -8 2t-10 1q-19 0 -31.5 -12.5t-23.5 -42.5l-110 -290h-140z" />
    <glyph glyph-name="uni048A" unicode="&#x48a;" horiz-adv-x="680" 
d="M510 0h-65v375l-255 -375h-130v630h145v-375l255 375h130v-490h90v-25l-90 -235h-120zM325 690q-30 0 -55 10t-44 27t-30.5 41t-15.5 52h95q4 -23 17.5 -36.5t32.5 -13.5t32.5 13.5t17.5 36.5h95q-8 -56 -46.5 -93t-98.5 -37z" />
    <glyph glyph-name="uni048B" unicode="&#x48b;" horiz-adv-x="555" 
d="M410 0h-60v255l-175 -255h-125v460h135v-255l175 255h125v-330h80v-25l-75 -205h-105zM270 505q-30 0 -55 10t-44 27t-30.5 41t-15.5 52h95q4 -23 17.5 -36.5t32.5 -13.5t32.5 13.5t17.5 36.5h95q-8 -56 -46.5 -93t-98.5 -37z" />
    <glyph glyph-name="uni048C" unicode="&#x48c;" horiz-adv-x="620" 
d="M125 460h-125v100h125v70h145v-70h155v-100h-155v-50h115q47 0 86.5 -14.5t68 -40t44.5 -61.5t16 -79t-16 -82t-44.5 -68.5t-68 -47t-86.5 -17.5h-260v460zM375 130q34 0 57 22.5t23 52.5t-23 52.5t-57 22.5h-105v-150h105z" />
    <glyph glyph-name="uni048D" unicode="&#x48d;" horiz-adv-x="515" 
d="M100 380h-95v110h95v140h135v-140h130v-110h-130v-60h95q36 0 66 -12.5t52 -34t34.5 -50.5t12.5 -63t-12.5 -63t-34.5 -50.5t-52 -34t-66 -12.5h-230v380zM305 110q26 0 40.5 13.5t14.5 36.5t-14.5 36.5t-40.5 13.5h-70v-100h70z" />
    <glyph glyph-name="uni048E" unicode="&#x48e;" horiz-adv-x="560" 
d="M60 630h245q49 0 90 -16.5t71 -46t47 -68.5t17 -84q0 -40 -11 -69.5t-25 -49.5q-16 -24 -36 -41l47 -70l-75 -50l-51 76q-9 -3 -20 -6q-22 -5 -54 -5h-100v-200h-145v630zM292 340l-27 40l75 50l35 -52q2 5 5 11q2 5 3.5 11.5t1.5 14.5q0 30 -23 52.5t-57 22.5h-100v-150
h87z" />
    <glyph glyph-name="uni048F" unicode="&#x48f;" horiz-adv-x="545" 
d="M50 460h100l20 -45q15 14 35 25q17 9 41 17t54 8q43 0 82 -17.5t68.5 -49t47 -74.5t17.5 -94q0 -40 -10 -70.5t-21 -51.5q-14 -25 -31 -44l52 -69l-70 -50l-51 68q-12 -5 -25 -9q-11 -4 -26.5 -6.5t-32.5 -2.5q-26 0 -47.5 6t-36.5 14q-18 9 -31 20v-195h-135v620z
M280 120q13 0 17 1t6 2l-43 57l70 50l39 -53q2 5 5 13q2 7 4 16.5t2 23.5q0 49 -29 79.5t-71 30.5t-71 -30.5t-29 -79.5t29 -79.5t71 -30.5z" />
    <glyph glyph-name="uni0490" unicode="&#x490;" horiz-adv-x="480" 
d="M60 630h265v110h145v-250h-265v-490h-145v630z" />
    <glyph glyph-name="uni0491" unicode="&#x491;" horiz-adv-x="390" 
d="M50 460h195v85h135v-215h-195v-330h-135v460z" />
    <glyph glyph-name="uni0492" unicode="&#x492;" horiz-adv-x="515" 
d="M90 235h-70v125h70v270h410v-140h-265v-130h195v-125h-195v-235h-145v235z" />
    <glyph glyph-name="uni0493" unicode="&#x493;" horiz-adv-x="405" 
d="M60 145h-55v105h55v210h330v-130h-195v-80h140v-105h-140v-145h-135v145z" />
    <glyph glyph-name="uni0494" unicode="&#x494;" horiz-adv-x="580" 
d="M290 85q57 0 86 27.5t29 72.5t-27.5 72.5t-72.5 27.5t-72.5 -27.5t-27.5 -72.5v-185h-145v630h410v-135h-265v-135q14 15 34 27q17 11 42 19.5t59 8.5q47 0 85.5 -15.5t66.5 -45t43 -72.5t15 -97q0 -109 -66 -172t-194 -63v135z" />
    <glyph glyph-name="uni0495" unicode="&#x495;" horiz-adv-x="485" 
d="M240 -50q42 0 66 24t24 66q0 19 -6 34.5t-16 26.5t-22.5 17.5t-25.5 6.5q-34 0 -54.5 -20.5t-20.5 -54.5v-50h-135v460h330v-130h-195v-105q10 8 26 15q13 5 33 10t46 5q36 0 67.5 -14.5t55.5 -41.5t38 -66t14 -88q0 -106 -59.5 -165.5t-165.5 -59.5v130z" />
    <glyph glyph-name="uni0496" unicode="&#x496;" horiz-adv-x="815" 
d="M690 0h-30l-180 280v-280h-145v280l-180 -280h-165l212 320l-197 310h165l165 -270v270h145v-270l165 270h165l-197 -310l119 -180h103v-260h-145v120z" />
    <glyph glyph-name="uni0497" unicode="&#x497;" horiz-adv-x="700" 
d="M560 0h-25l-125 205v-205h-135v205l-125 -205h-155l165 240l-155 220h155l115 -185v185h135v-185l115 185h155l-155 -220l75 -110h95v-230h-135v100z" />
    <glyph glyph-name="uni0498" unicode="&#x498;" horiz-adv-x="525" 
d="M190 3q-72 17 -117 64.5t-53 122.5l145 10q8 -30 32.5 -52.5t62.5 -22.5q42 0 63.5 20t21.5 50q0 26 -21.5 45.5t-63.5 19.5h-65v120h60q42 0 61 17t19 43t-21 45.5t-59 19.5q-34 0 -55 -20t-25 -50l-145 10q2 39 18.5 74t46 60.5t71 40.5t94.5 15q51 0 91.5 -14.5
t69 -39t44 -56t15.5 -65.5t-13.5 -58.5t-29.5 -40.5q-18 -18 -42 -31q28 -13 50 -34q19 -18 34.5 -48t15.5 -73q0 -32 -12.5 -60.5t-34 -51t-50.5 -38.5t-63 -23v-122h-145v123z" />
    <glyph glyph-name="uni0499" unicode="&#x499;" horiz-adv-x="440" 
d="M145 0q-49 15 -83 51.5t-42 93.5q9 0 20 1q9 1 20 1.5t23 2.5q27 2 62 5q4 -23 21.5 -39t43.5 -16q30 0 45 13t15 32q0 15 -15 27.5t-45 12.5h-45v95h45q23 0 36.5 12.5t13.5 27.5t-13.5 27.5t-36.5 12.5q-26 0 -41 -13t-19 -32l-125 10q15 67 60 106t135 39
q41 0 74.5 -12t57 -31.5t36 -45t12.5 -51.5q0 -29 -9.5 -47t-20.5 -29q-13 -12 -30 -19q19 -10 35 -24q13 -12 24 -31t11 -45q0 -49 -35 -86.5t-95 -51.5v-97h-135v100z" />
    <glyph glyph-name="uni049A" unicode="&#x49a;" horiz-adv-x="570" 
d="M435 0h-25l-205 280v-280h-145v630h145v-270l190 270h165l-222 -310l133 -180h109v-260h-145v120z" />
    <glyph glyph-name="uni049B" unicode="&#x49b;" horiz-adv-x="490" 
d="M350 0h-25l-140 205v-205h-135v460h135v-185l125 185h155l-155 -220l78 -110h97v-230h-135v100z" />
    <glyph glyph-name="uni049C" unicode="&#x49c;" horiz-adv-x="655" 
d="M60 630h145v-255h30v80h80v-80h15l145 255h165l-190 -310l215 -320h-165l-170 255h-15v-75h-80v75h-30v-255h-145v630z" />
    <glyph glyph-name="uni049D" unicode="&#x49d;" horiz-adv-x="525" 
d="M50 460h135v-165h20v75h60v-75h10l85 165h150l-130 -220l150 -240h-150l-105 180h-10v-75h-60v75h-20v-180h-135v460z" />
    <glyph glyph-name="uni049E" unicode="&#x49e;" horiz-adv-x="605" 
d="M100 480h-100v100h100v50h145v-50h75v-100h-75v-120l190 270h165l-222 -310l237 -320h-165l-205 280v-280h-145v480z" />
    <glyph glyph-name="uni049F" unicode="&#x49f;" horiz-adv-x="495" 
d="M70 476h-65v99h65v55h135v-55h105v-99h-105v-201l125 185h155l-155 -220l170 -240h-155l-140 205v-205h-135v476z" />
    <glyph glyph-name="uni04A0" unicode="&#x4a0;" horiz-adv-x="630" 
d="M125 500h-125v130h270v-270l190 270h165l-222 -310l237 -320h-165l-205 280v-280h-145v500z" />
    <glyph glyph-name="uni04A1" unicode="&#x4a1;" horiz-adv-x="525" 
d="M100 330h-95v130h230v-185l125 185h155l-155 -220l170 -240h-155l-140 205v-205h-135v330z" />
    <glyph glyph-name="uni04A2" unicode="&#x4a2;" horiz-adv-x="680" 
d="M515 0h-70v250h-240v-250h-145v630h145v-240h240v240h145v-490h70v-260h-145v120z" />
    <glyph glyph-name="uni04A3" unicode="&#x4a3;" horiz-adv-x="550" 
d="M405 0h-60v165h-160v-165h-135v460h135v-165h160v165h135v-330h60v-230h-135v100z" />
    <glyph glyph-name="uni04A4" unicode="&#x4a4;" horiz-adv-x="835" 
d="M60 630h145v-240h225v240h395v-140h-250v-490h-145v250h-225v-250h-145v630z" />
    <glyph glyph-name="uni04A5" unicode="&#x4a5;" horiz-adv-x="665" 
d="M50 460h135v-165h150v165h320v-130h-185v-330h-135v165h-150v-165h-135v460z" />
    <glyph glyph-name="uni04A6" unicode="&#x4a6;" horiz-adv-x="955" 
d="M665 85q57 0 86 27.5t29 72.5t-27.5 72.5t-72.5 27.5t-72.5 -27.5t-27.5 -72.5v-185h-145v490h-230v-490h-145v630h520v-270q14 15 34 27q17 11 42 19.5t59 8.5q47 0 85.5 -15.5t66.5 -45t43 -72.5t15 -97q0 -109 -66 -172t-194 -63v135z" />
    <glyph glyph-name="uni04A7" unicode="&#x4a7;" horiz-adv-x="770" 
d="M525 -50q42 0 66 24t24 66q0 19 -6 34.5t-16 26.5t-22.5 17.5t-25.5 6.5q-34 0 -54.5 -20.5t-20.5 -54.5v-50h-135v330h-150v-330h-135v460h420v-235q10 8 26 15q13 5 33 10t46 5q36 0 67.5 -14.5t55.5 -41.5t38 -66t14 -88q0 -106 -59.5 -165.5t-165.5 -59.5v130z" />
    <glyph glyph-name="uni04A8" unicode="&#x4a8;" horiz-adv-x="770" 
d="M350 -5q-68 0 -126 24.5t-101.5 68t-68 101.5t-24.5 126q0 64 21 117.5t56.5 94.5t82.5 67.5t100 35.5v-140q-21 -6 -41.5 -20t-37 -36t-26.5 -52t-10 -67q0 -43 14 -79t38 -61.5t55.5 -40t67.5 -14.5h10q-26 24 -45 57q-17 28 -31 69t-14 94q0 60 17.5 108t47 82
t68.5 52t82 18t82 -18t68.5 -52t47 -82t17.5 -108q0 -53 -14 -94t-31 -69q-20 -33 -45 -57h10q23 0 40.5 4.5t31.5 10.5q15 6 28 15l70 -110q-18 -13 -44 -23q-22 -8 -53 -15t-73 -7q-30 0 -55 4.5t-43 10.5q-21 6 -37 15q-17 -9 -38 -15q-18 -6 -42.5 -10.5t-54.5 -4.5z
M485 165q19 20 35 47q13 23 24 58t11 80q0 56 -22.5 83t-47.5 27q-26 0 -48 -26.5t-22 -83.5q0 -45 10.5 -80t24.5 -58q15 -27 35 -47z" />
    <glyph glyph-name="uni04A9" unicode="&#x4a9;" horiz-adv-x="610" 
d="M265 -10q-49 0 -92 19t-74.5 52t-50 76.5t-18.5 92.5q0 47 15 86t39.5 69t57 50.5t68.5 29.5v-130q-15 -11 -32.5 -35.5t-17.5 -69.5q0 -34 10 -57.5t24.5 -38.5t31 -22t29.5 -7h5q-14 14 -25 34q-10 17 -17.5 43.5t-7.5 62.5q0 41 13 75t35.5 58.5t54 38t67.5 13.5
t67.5 -13.5t54 -38t35.5 -58.5t13 -75q0 -36 -8 -62.5t-17 -43.5q-11 -20 -25 -34h5q13 0 25.5 3.5t22.5 8.5q11 5 22 13l50 -95q-17 -13 -37 -23q-17 -8 -41 -15t-52 -7q-26 0 -47.5 4.5t-36.5 10.5q-18 6 -31 15q-13 -9 -31 -15q-15 -6 -36.5 -10.5t-47.5 -4.5zM380 130
q11 12 20 29q8 14 14 35.5t6 50.5q0 34 -12.5 49.5t-27.5 15.5t-27.5 -15.5t-12.5 -49.5q0 -29 6 -50.5t14 -35.5q9 -17 20 -29z" />
    <glyph glyph-name="uni04AA" unicode="&#x4aa;" horiz-adv-x="650" 
d="M270 3q-45 10 -88 37t-77 67.5t-54.5 93t-20.5 114.5q0 67 24.5 125.5t66.5 102t98.5 68t120.5 24.5q56 0 103.5 -18.5t84 -49t61.5 -71.5t36 -86l-150 -10q-6 19 -17 36t-28 30t-39.5 21t-50.5 8q-34 0 -64 -13.5t-52.5 -37.5t-35.5 -57t-13 -72t13 -72t35.5 -57
t52.5 -37.5t64 -13.5q60 0 94.5 28.5t45.5 66.5l150 -10q-9 -39 -29 -74t-48.5 -63.5t-63.5 -49t-74 -30.5v-123h-145v123z" />
    <glyph glyph-name="uni04AB" unicode="&#x4ab;" horiz-adv-x="510" 
d="M195 0q-30 9 -59.5 28.5t-53 49t-38 67.5t-14.5 85q0 51 18.5 94.5t50.5 76t74.5 51t91.5 18.5q34 0 62 -7.5t50 -20.5t38.5 -29t28.5 -33q28 -40 41 -90l-135 -10q-7 18 -18 32q-10 12 -26.5 22.5t-40.5 10.5q-42 0 -71 -31t-29 -84t29 -84t71 -31q24 0 40.5 10t26.5 22
q11 14 18 33l135 -10q-10 -39 -29 -72q-17 -29 -47 -57t-79 -42v-99h-135v100z" />
    <glyph glyph-name="uni04AC" unicode="&#x4ac;" horiz-adv-x="525" 
d="M260 0h-70v490h-180v140h505v-140h-180v-350h70v-260h-145v120z" />
    <glyph glyph-name="uni04AD" unicode="&#x4ad;" horiz-adv-x="425" 
d="M205 0h-60v330h-135v130h405v-130h-135v-200h60v-230h-135v100z" />
    <glyph glyph-name="uni04AE" unicode="&#x4ae;" horiz-adv-x="565" 
d="M210 235l-210 395h155l128 -250l127 250h155l-210 -395v-235h-145v235z" />
    <glyph glyph-name="uni04AF" unicode="&#x4af;" horiz-adv-x="490" 
d="M177 10l-177 450h145l100 -300l100 300h145l-178 -450v-170h-135v170z" />
    <glyph glyph-name="uni04B0" unicode="&#x4b0;" horiz-adv-x="565" 
d="M210 155h-135v115h116l-191 360h155l128 -250l127 250h155l-192 -360h117v-115h-135v-155h-145v155z" />
    <glyph glyph-name="uni04B1" unicode="&#x4b1;" horiz-adv-x="490" 
d="M177 -80h-102v90h102l-177 450h145l100 -300l100 300h145l-178 -450h103v-90h-103v-80h-135v80z" />
    <glyph glyph-name="uni04B2" unicode="&#x4b2;" horiz-adv-x="585" 
d="M440 0h-20l-130 215l-130 -215h-160l200 320l-190 310h160l120 -205l120 205h160l-190 -310l112 -180h93v-260h-145v120z" />
    <glyph glyph-name="uni04B3" unicode="&#x4b3;" horiz-adv-x="480" 
d="M340 0h-25l-85 140l-85 -140h-150l150 235l-140 225h150l75 -130l75 130h150l-140 -225l67 -105h93v-230h-135v100z" />
    <glyph glyph-name="uni04B4" unicode="&#x4b4;" horiz-adv-x="775" 
d="M615 0h-440v490h-165v140h460v-140h-150v-350h225v490h145v-490h70v-260h-145v120z" />
    <glyph glyph-name="uni04B5" unicode="&#x4b5;" horiz-adv-x="615" 
d="M470 0h-345v330h-115v130h335v-130h-85v-200h150v330h135v-330h60v-230h-135v100z" />
    <glyph glyph-name="uni04B6" unicode="&#x4b6;" horiz-adv-x="640" 
d="M480 0h-70v210q-18 -10 -39 -18q-18 -7 -43 -12t-53 -5q-51 0 -92.5 16t-71 45.5t-45.5 71t-16 92.5v230h145v-220q0 -105 105 -105q23 0 42.5 4.5t34.5 10.5q18 6 33 15v295h145v-490h70v-260h-145v120z" />
    <glyph glyph-name="uni04B7" unicode="&#x4b7;" horiz-adv-x="525" 
d="M380 0h-60v145q-15 -8 -33 -13q-15 -5 -34.5 -8.5t-42.5 -3.5q-38 0 -69 12.5t-53.5 36t-35 57t-12.5 74.5v160h135v-140q0 -34 20 -54.5t50 -20.5q17 0 30.5 3.5t23.5 8.5q11 5 21 13v190h135v-330h60v-230h-135v100z" />
    <glyph glyph-name="uni04B8" unicode="&#x4b8;" horiz-adv-x="621" 
d="M410 210q-9 -6 -20 -10q-18 -9 -50 -17v-98h-80v90q-48 2 -86.5 19.5t-66 46.5t-42.5 69.5t-15 89.5v230h145v-220q0 -83 65 -101v86h80v-86q15 3 27.5 7t22.5 9q11 4 20 10v295h145v-630h-145v210z" />
    <glyph glyph-name="uni04B9" unicode="&#x4b9;" horiz-adv-x="505" 
d="M320 145q-5 -2 -11 -5q-5 -2 -13 -5t-16 -5v-75h-65v65h-5q-38 0 -69 12.5t-53.5 36t-35 57t-12.5 74.5v160h135v-140q0 -25 11 -43t29 -26v74h65v-75q9 2 16.5 6t12.5 7q6 4 11 7v190h135v-460h-135v145z" />
    <glyph glyph-name="uni04BA" unicode="&#x4ba;" horiz-adv-x="615" 
d="M60 630h145v-210q18 9 39 17q18 7 42.5 12.5t53.5 5.5q51 0 92.5 -16t71 -45.5t45.5 -71t16 -92.5v-230h-145v220q0 105 -105 105q-23 0 -43 -5t-35 -10q-18 -7 -32 -15v-295h-145v630z" />
    <glyph glyph-name="uni04BB" unicode="&#x4bb;" 
d="M50 630h135v-215q13 14 31 25q16 9 40.5 17t58.5 8q37 0 69.5 -13.5t55.5 -39t36.5 -61.5t13.5 -81v-270h-135v245q0 45 -23.5 70t-61.5 25t-61.5 -25t-23.5 -70v-245h-135v630z" />
    <glyph glyph-name="uni04BC" unicode="&#x4bc;" horiz-adv-x="800" 
d="M465 -5q-60 0 -113 21.5t-94 59.5t-67.5 90t-33.5 114h-12q-72 0 -108.5 35t-36.5 95v30h110v-25q0 -15 10.5 -25t29.5 -10h11q11 54 38.5 101t68 81t91 53.5t106.5 19.5q66 0 122 -23.5t96.5 -65.5t63.5 -101t23 -130q0 -8 -1 -14t-2 -11l-2 -10h-465q6 -32 20.5 -59.5
t36 -47.5t49 -31.5t59.5 -11.5q28 0 49 6t37 16.5t28 24t21 28.5l155 -10q-13 -39 -37.5 -75.5t-60.5 -64t-84 -44t-108 -16.5zM615 380q-4 24 -16 46t-31 38.5t-45 26t-58 9.5q-30 0 -55 -9.5t-45 -26t-34 -38.5t-21 -46h305z" />
    <glyph glyph-name="uni04BD" unicode="&#x4bd;" horiz-adv-x="615" 
d="M360 -10q-45 0 -83.5 16.5t-68.5 43.5t-49 62t-25 73q-67 0 -100.5 31t-33.5 84v30h90v-25q0 -15 11 -25t32 -10q6 39 25.5 75.5t50 64t70 44t86.5 16.5t88 -17t71.5 -48.5t48 -76t17.5 -98.5q0 -8 -1 -15.5t-2 -14.5q-1 -8 -2 -15h-315q8 -26 32.5 -48t62.5 -22
q19 0 32.5 4.5t21.5 10.5q10 6 16 15l140 -10q-9 -28 -27 -54t-45 -46.5t-62.5 -32.5t-80.5 -12zM460 270q-8 30 -32.5 52.5t-62.5 22.5t-62.5 -22.5t-32.5 -52.5h190z" />
    <glyph glyph-name="uni04BE" unicode="&#x4be;" horiz-adv-x="800" 
d="M395 3q-47 10 -88 35t-73 61t-52 82t-25 99h-12q-72 0 -108.5 35t-36.5 95v30h110v-25q0 -15 10.5 -25t29.5 -10h11q11 54 38.5 101t68 81t91 53.5t106.5 19.5q66 0 122 -23.5t96.5 -65.5t63.5 -101t23 -130q0 -8 -1 -14t-2 -11l-2 -10h-465q6 -32 20.5 -59.5t36 -47.5
t49 -31.5t59.5 -11.5q28 0 49 6t37 16.5t28 24t21 28.5l155 -10q-11 -34 -30.5 -65t-47 -56.5t-62 -44t-75.5 -27.5v-122h-145v123zM615 380q-4 24 -16 46t-31 38.5t-45 26t-58 9.5q-30 0 -55 -9.5t-45 -26t-34 -38.5t-21 -46h305z" />
    <glyph glyph-name="uni04BF" unicode="&#x4bf;" horiz-adv-x="615" 
d="M295 0q-28 7 -54.5 23.5t-48 40.5t-37 54.5t-21.5 66.5q-67 0 -100.5 31t-33.5 84v30h90v-25q0 -15 11 -25t32 -10q6 39 25.5 75.5t50 64t70 44t86.5 16.5t88 -17t71.5 -48.5t48 -76t17.5 -98.5q0 -8 -1 -15.5t-2 -14.5q-1 -8 -2 -15h-315q8 -26 32.5 -48t62.5 -22
q19 0 32.5 4.5t21.5 10.5q10 6 16 15l140 -10q-19 -53 -55.5 -86.5t-89.5 -49.5v-99h-135v100zM460 270q-8 30 -32.5 52.5t-62.5 22.5t-62.5 -22.5t-32.5 -52.5h190z" />
    <glyph glyph-name="uni04C0" unicode="&#x4c0;" horiz-adv-x="265" 
d="M60 630h145v-630h-145v630z" />
    <glyph glyph-name="uni04C1" unicode="&#x4c1;" horiz-adv-x="815" 
d="M202 320l-197 310h165l165 -270v270h145v-270l165 270h165l-197 -310l212 -320h-165l-180 280v-280h-145v280l-180 -280h-165zM410 690q-30 0 -55 10t-44 27t-30.5 41t-15.5 52h95q4 -23 17.5 -36.5t32.5 -13.5t32.5 13.5t17.5 36.5h95q-8 -56 -46.5 -93t-98.5 -37z" />
    <glyph glyph-name="uni04C2" unicode="&#x4c2;" horiz-adv-x="685" 
d="M160 240l-155 220h155l115 -185v185h135v-185l115 185h155l-155 -220l165 -240h-155l-125 205v-205h-135v205l-125 -205h-155zM340 510q-30 0 -55 10t-44 27t-30.5 41t-15.5 52h95q4 -23 17.5 -36.5t32.5 -13.5t32.5 13.5t17.5 36.5h95q-8 -56 -46.5 -93t-98.5 -37z" />
    <glyph glyph-name="uni04C3" unicode="&#x4c3;" horiz-adv-x="600" 
d="M310 25q53 0 86.5 33.5t33.5 86.5q0 22 -9 41.5t-24 33.5t-35 22t-42 8q-24 0 -45 -8t-36.5 -22t-24.5 -33.5t-9 -41.5v-145h-145v630h145v-270l190 270h165l-180 -250q39 -6 74.5 -25t62.5 -49.5t42.5 -71t15.5 -89.5q0 -56 -19 -103t-53.5 -81t-83.5 -52.5t-109 -18.5
v135z" />
    <glyph glyph-name="uni04C4" unicode="&#x4c4;" horiz-adv-x="490" 
d="M240 -50q45 0 70 25t25 70q0 38 -22.5 61.5t-52.5 23.5q-32 0 -52.5 -18.5t-22.5 -50.5v-61h-135v460h135v-185l125 185h155l-145 -205q30 -6 57 -21.5t48 -41.5t33 -61.5t12 -80.5q0 -109 -60.5 -169.5t-169.5 -60.5v130z" />
    <glyph glyph-name="uni04C5" unicode="&#x4c5;" horiz-adv-x="675" 
d="M505 0h-65v490h-170l-25 -300q-8 -94 -57 -144.5t-128 -50.5q-12 0 -23 0.5t-19 1.5q-10 1 -18 3v125h20q34 0 57.5 25t27.5 70l35 410h445v-490h90v-25l-90 -235h-120z" />
    <glyph glyph-name="uni04C6" unicode="&#x4c6;" horiz-adv-x="530" 
d="M385 0h-60v330h-105l-15 -180q-6 -75 -48 -115t-117 -40q-10 0 -17 0.5t-12 1.5q-6 1 -11 3v115h15q30 0 43 13.5t17 51.5l25 280h360v-330h80v-25l-75 -205h-105z" />
    <glyph glyph-name="uni04C7" unicode="&#x4c7;" horiz-adv-x="650" 
d="M420 -200q-21 0 -36 2t-25 5q-11 4 -19 8v125q4 -3 11 -5q12 -5 34 -5q26 0 43 17.5t17 47.5v255h-240v-250h-145v630h145v-240h240v240h145v-635q0 -94 -47.5 -144.5t-122.5 -50.5z" />
    <glyph glyph-name="uni04C8" unicode="&#x4c8;" horiz-adv-x="530" 
d="M315 -165q-26 0 -46 5q-11 2 -19 5v120q5 -2 10 -3t11 -1.5t14 -0.5q26 0 43 17.5t17 47.5v140h-160v-165h-135v460h135v-165h160v165h135v-455q0 -83 -43 -126.5t-122 -43.5z" />
    <glyph glyph-name="uni04C9" unicode="&#x4c9;" horiz-adv-x="680" 
d="M510 0h-65v250h-240v-250h-145v630h145v-240h240v240h145v-490h90v-25l-90 -235h-120z" />
    <glyph glyph-name="uni04CA" unicode="&#x4ca;" horiz-adv-x="550" 
d="M405 0h-60v165h-160v-165h-135v460h135v-165h160v165h135v-330h80v-25l-75 -205h-105z" />
    <glyph glyph-name="uni04CB" unicode="&#x4cb;" horiz-adv-x="615" 
d="M340 110h70v100q-18 -10 -39 -18q-18 -7 -43 -12t-53 -5q-51 0 -92.5 16t-71 45.5t-45.5 71t-16 92.5v230h145v-220q0 -105 105 -105q23 0 42.5 4.5t34.5 10.5q18 6 33 15v295h145v-630h-70v-120h-145v230z" />
    <glyph glyph-name="uni04CC" unicode="&#x4cc;" horiz-adv-x="505" 
d="M260 80h60v65q-15 -8 -33 -13q-15 -5 -34.5 -8.5t-42.5 -3.5q-38 0 -69 12.5t-53.5 36t-35 57t-12.5 74.5v160h135v-140q0 -34 20 -54.5t50 -20.5q17 0 30.5 3.5t23.5 8.5q11 5 21 13v190h135v-460h-60v-100h-135v180z" />
    <glyph glyph-name="uni04CD" unicode="&#x4cd;" horiz-adv-x="820" 
d="M650 0h-65v315l-145 -315h-90l-145 315v-315h-145v630h130l205 -445l205 445h130v-490h90v-25l-90 -235h-120z" />
    <glyph glyph-name="uni04CE" unicode="&#x4ce;" horiz-adv-x="650" 
d="M505 0h-60v220l-105 -220h-50l-105 220v-220h-135v460h135l130 -275l130 275h135v-330h80v-25l-75 -205h-105z" />
    <glyph glyph-name="uni04CF" unicode="&#x4cf;" horiz-adv-x="235" 
d="M50 630h135v-630h-135v630z" />
    <glyph glyph-name="uni04D0" unicode="&#x4d0;" horiz-adv-x="590" 
d="M220 630h150l225 -630h-150l-40 120h-220l-40 -120h-150zM365 245l-70 210l-70 -210h140zM295 690q-30 0 -55 10t-44 27t-30.5 41t-15.5 52h95q4 -23 17.5 -36.5t32.5 -13.5t32.5 13.5t17.5 36.5h95q-8 -56 -46.5 -93t-98.5 -37z" />
    <glyph glyph-name="uni04D1" unicode="&#x4d1;" horiz-adv-x="485" 
d="M185 -5q-75 0 -115 36.5t-40 93.5q0 34 13.5 62.5t45.5 49t84.5 32t131.5 11.5q0 34 -17 52t-43 18q-19 0 -30.5 -7.5t-18.5 -15.5q-8 -10 -11 -22l-135 10q6 34 21 62.5t39.5 49t59.5 32t80 11.5q41 0 76 -14t60.5 -39.5t39.5 -60.5t14 -76v-280h-100l-20 45
q-17 -14 -38 -25q-18 -10 -42.5 -17.5t-54.5 -7.5zM220 95q38 0 61.5 23.5t23.5 61.5v20q-43 0 -70.5 -4.5t-43 -12.5t-21 -19t-5.5 -24q0 -19 14.5 -32t40.5 -13zM255 510q-30 0 -55 10t-44 27t-30.5 41t-15.5 52h95q4 -23 17.5 -36.5t32.5 -13.5t32.5 13.5t17.5 36.5h95
q-8 -56 -46.5 -93t-98.5 -37z" />
    <glyph glyph-name="uni04D2" unicode="&#x4d2;" horiz-adv-x="590" 
d="M220 630h150l225 -630h-150l-40 120h-220l-40 -120h-150zM365 245l-70 210l-70 -210h140zM203 690q-30 0 -50 20t-20 50t20 50t50 20t50 -20t20 -50t-20 -50t-50 -20zM388 690q-30 0 -50 20t-20 50t20 50t50 20t50 -20t20 -50t-20 -50t-50 -20z" />
    <glyph glyph-name="uni04D3" unicode="&#x4d3;" horiz-adv-x="485" 
d="M185 -5q-75 0 -115 36.5t-40 93.5q0 34 13.5 62.5t45.5 49t84.5 32t131.5 11.5q0 34 -17 52t-43 18q-19 0 -30.5 -7.5t-18.5 -15.5q-8 -10 -11 -22l-135 10q6 34 21 62.5t39.5 49t59.5 32t80 11.5q41 0 76 -14t60.5 -39.5t39.5 -60.5t14 -76v-280h-100l-20 45
q-17 -14 -38 -25q-18 -10 -42.5 -17.5t-54.5 -7.5zM220 95q38 0 61.5 23.5t23.5 61.5v20q-43 0 -70.5 -4.5t-43 -12.5t-21 -19t-5.5 -24q0 -19 14.5 -32t40.5 -13zM163 510q-30 0 -50 20t-20 50t20 50t50 20t50 -20t20 -50t-20 -50t-50 -20zM348 510q-30 0 -50 20t-20 50
t20 50t50 20t50 -20t20 -50t-20 -50t-50 -20z" />
    <glyph glyph-name="uni04D6" unicode="&#x4d6;" horiz-adv-x="560" 
d="M60 630h450v-140h-305v-100h280v-140h-280v-110h315v-140h-460v630zM290 690q-30 0 -55 10t-44 27t-30.5 41t-15.5 52h95q4 -23 17.5 -36.5t32.5 -13.5t32.5 13.5t17.5 36.5h95q-8 -56 -46.5 -93t-98.5 -37z" />
    <glyph glyph-name="uni04D7" unicode="&#x4d7;" horiz-adv-x="515" 
d="M260 -10q-47 0 -88.5 18.5t-73 51t-50 76t-18.5 94.5t18.5 94.5t50.5 76t74.5 51t91.5 18.5q47 0 88 -17t71.5 -48.5t48 -76t17.5 -98.5q0 -8 -1 -15.5t-2 -14.5q-1 -8 -2 -15h-315q8 -26 32.5 -48t62.5 -22q19 0 32.5 4.5t21.5 10.5q10 6 16 15l140 -10q-9 -28 -27 -54
t-45 -46.5t-62.5 -32.5t-80.5 -12zM360 270q-8 30 -32.5 52.5t-62.5 22.5t-62.5 -22.5t-32.5 -52.5h190zM265 510q-30 0 -55 10t-44 27t-30.5 41t-15.5 52h95q4 -23 17.5 -36.5t32.5 -13.5t32.5 13.5t17.5 36.5h95q-8 -56 -46.5 -93t-98.5 -37z" />
    <glyph glyph-name="uni04D8" unicode="&#x4d8;" horiz-adv-x="675" 
d="M335 -5q-66 0 -122 23.5t-96.5 65.5t-63.5 101t-23 130q0 8 0.5 14t1.5 11t3 10h465q-6 32 -20.5 59.5t-36 47.5t-49 31.5t-59.5 11.5q-28 0 -49 -6t-37 -16.5t-28 -24t-21 -28.5l-155 10q13 39 37.5 75.5t60.5 64t84 44t108 16.5q64 0 120.5 -24.5t98.5 -68t66.5 -102
t24.5 -125.5q0 -68 -24.5 -126t-66.5 -101.5t-98.5 -68t-120.5 -24.5zM335 130q30 0 55 9.5t45 26t33.5 38.5t21.5 46h-305q4 -24 16 -46t31 -38.5t45 -26t58 -9.5z" />
    <glyph glyph-name="uni04D9" unicode="&#x4d9;" horiz-adv-x="515" 
d="M250 -10q-47 0 -88 17t-71.5 48.5t-48 76t-17.5 98.5q0 8 0.5 15.5t1.5 14.5q1 8 3 15h315q-8 26 -32.5 48t-62.5 22q-19 0 -32.5 -5t-21.5 -10q-10 -7 -16 -15l-140 10q9 28 27 54t45 46.5t62.5 32.5t80.5 12q47 0 88.5 -18.5t73 -51t50 -76t18.5 -94.5t-18.5 -94.5
t-50.5 -76t-74.5 -51t-91.5 -18.5zM250 115q38 0 62.5 22.5t32.5 52.5h-190q8 -30 32.5 -52.5t62.5 -22.5z" />
    <glyph glyph-name="uni04DA" unicode="&#x4da;" horiz-adv-x="675" 
d="M335 -5q-66 0 -122 23.5t-96.5 65.5t-63.5 101t-23 130q0 8 0.5 14t1.5 11t3 10h465q-6 32 -20.5 59.5t-36 47.5t-49 31.5t-59.5 11.5q-28 0 -49 -6t-37 -16.5t-28 -24t-21 -28.5l-155 10q13 39 37.5 75.5t60.5 64t84 44t108 16.5q64 0 120.5 -24.5t98.5 -68t66.5 -102
t24.5 -125.5q0 -68 -24.5 -126t-66.5 -101.5t-98.5 -68t-120.5 -24.5zM335 130q30 0 55 9.5t45 26t33.5 38.5t21.5 46h-305q4 -24 16 -46t31 -38.5t45 -26t58 -9.5zM250 690q-30 0 -50 20t-20 50t20 50t50 20t50 -20t20 -50t-20 -50t-50 -20zM435 690q-30 0 -50 20t-20 50
t20 50t50 20t50 -20t20 -50t-20 -50t-50 -20z" />
    <glyph glyph-name="uni04DB" unicode="&#x4db;" horiz-adv-x="515" 
d="M250 -10q-47 0 -88 17t-71.5 48.5t-48 76t-17.5 98.5q0 8 0.5 15.5t1.5 14.5q1 8 3 15h315q-8 26 -32.5 48t-62.5 22q-19 0 -32.5 -5t-21.5 -10q-10 -7 -16 -15l-140 10q9 28 27 54t45 46.5t62.5 32.5t80.5 12q47 0 88.5 -18.5t73 -51t50 -76t18.5 -94.5t-18.5 -94.5
t-50.5 -76t-74.5 -51t-91.5 -18.5zM250 115q38 0 62.5 22.5t32.5 52.5h-190q8 -30 32.5 -52.5t62.5 -22.5zM160 510q-30 0 -50 20t-20 50t20 50t50 20t50 -20t20 -50t-20 -50t-50 -20zM345 510q-30 0 -50 20t-20 50t20 50t50 20t50 -20t20 -50t-20 -50t-50 -20z" />
    <glyph glyph-name="uni04DC" unicode="&#x4dc;" horiz-adv-x="815" 
d="M202 320l-197 310h165l165 -270v270h145v-270l165 270h165l-197 -310l212 -320h-165l-180 280v-280h-145v280l-180 -280h-165zM315 690q-30 0 -50 20t-20 50t20 50t50 20t50 -20t20 -50t-20 -50t-50 -20zM500 690q-30 0 -50 20t-20 50t20 50t50 20t50 -20t20 -50t-20 -50
t-50 -20z" />
    <glyph glyph-name="uni04DD" unicode="&#x4dd;" horiz-adv-x="685" 
d="M160 240l-155 220h155l115 -185v185h135v-185l115 185h155l-155 -220l165 -240h-155l-125 205v-205h-135v205l-125 -205h-155zM250 510q-30 0 -50 20t-20 50t20 50t50 20t50 -20t20 -50t-20 -50t-50 -20zM435 510q-30 0 -50 20t-20 50t20 50t50 20t50 -20t20 -50t-20 -50
t-50 -20z" />
    <glyph glyph-name="uni04DE" unicode="&#x4de;" horiz-adv-x="525" 
d="M265 -5q-56 0 -100 15t-75 41t-48.5 62t-21.5 77l145 10q8 -30 32.5 -52.5t62.5 -22.5q42 0 63.5 20t21.5 50q0 26 -21.5 45.5t-63.5 19.5h-65v120h60q42 0 61 17t19 43t-21 45.5t-59 19.5q-34 0 -55 -20t-25 -50l-145 10q2 39 18.5 74t46 60.5t71 40.5t94.5 15
q51 0 91.5 -14.5t69 -39t44 -56t15.5 -65.5t-13 -58.5t-29 -40.5q-18 -18 -42 -31q27 -13 49 -34q19 -18 34.5 -48t15.5 -73q0 -36 -15.5 -68.5t-45 -57t-72.5 -39.5t-97 -15zM165 690q-30 0 -50 20t-20 50t20 50t50 20t50 -20t20 -50t-20 -50t-50 -20zM350 690
q-30 0 -50 20t-20 50t20 50t50 20t50 -20t20 -50t-20 -50t-50 -20z" />
    <glyph glyph-name="uni04DF" unicode="&#x4df;" horiz-adv-x="440" 
d="M220 -10q-45 0 -80.5 12.5t-61 33.5t-40 49t-18.5 60q9 0 20 1q9 1 20 1.5t23 2.5q27 2 62 5q4 -23 21.5 -39t43.5 -16q30 0 45 13t15 32q0 15 -15 27.5t-45 12.5h-45v95h45q23 0 36.5 12.5t13.5 27.5t-13.5 27.5t-36.5 12.5q-26 0 -41 -13t-19 -32l-125 10q15 67 60 106
t135 39q41 0 74.5 -12t57 -31.5t36 -45t12.5 -51.5q0 -29 -9.5 -47t-20.5 -29q-13 -12 -30 -19q19 -10 35 -24q13 -12 24 -31t11 -45q0 -28 -13 -54t-37 -46.5t-59.5 -32.5t-80.5 -12zM125 510q-30 0 -50 20t-20 50t20 50t50 20t50 -20t20 -50t-20 -50t-50 -20zM310 510
q-30 0 -50 20t-20 50t20 50t50 20t50 -20t20 -50t-20 -50t-50 -20z" />
    <glyph glyph-name="uni04E0" unicode="&#x4e0;" horiz-adv-x="530" 
d="M260 -5q-56 0 -100 15t-75 41t-48.5 62t-21.5 77l145 10q2 -11 8 -24t18 -24.5t30 -19t44 -7.5q42 0 66 22.5t24 52.5q0 15 -7 29.5t-19 25.5t-28.5 18t-35.5 7h-95v95l130 120h-250v135h430v-120l-130 -115q28 -4 56.5 -21t51.5 -43t37.5 -60t14.5 -71q0 -39 -18 -76
t-50 -65.5t-77.5 -46t-99.5 -17.5z" />
    <glyph glyph-name="uni04E1" unicode="&#x4e1;" horiz-adv-x="460" 
d="M220 -170q-47 0 -84.5 13.5t-64.5 36.5t-43.5 55t-22.5 70l135 10q4 -30 25 -50t55 -20q38 0 61.5 23t23.5 57q0 38 -24 61.5t-66 23.5h-95v85l140 140h-235v125h395v-120l-130 -130q30 -8 57 -24t48 -40t33 -54.5t12 -66.5q0 -41 -15.5 -77t-44 -62t-69 -41t-91.5 -15z
" />
    <glyph glyph-name="uni04E2" unicode="&#x4e2;" horiz-adv-x="650" 
d="M60 630h145v-375l255 375h130v-630h-145v375l-255 -375h-130v630zM195 805h265v-105h-265v105z" />
    <glyph glyph-name="uni04E3" unicode="&#x4e3;" 
d="M50 460h135v-255l175 255h125v-460h-135v255l-175 -255h-125v460zM130 625h265v-105h-265v105z" />
    <glyph glyph-name="uni04E4" unicode="&#x4e4;" horiz-adv-x="650" 
d="M60 630h145v-375l255 375h130v-630h-145v375l-255 -375h-130v630zM235 690q-30 0 -50 20t-20 50t20 50t50 20t50 -20t20 -50t-20 -50t-50 -20zM420 690q-30 0 -50 20t-20 50t20 50t50 20t50 -20t20 -50t-20 -50t-50 -20z" />
    <glyph glyph-name="uni04E5" unicode="&#x4e5;" 
d="M50 460h135v-255l175 255h125v-460h-135v255l-175 -255h-125v460zM170 510q-30 0 -50 20t-20 50t20 50t50 20t50 -20t20 -50t-20 -50t-50 -20zM355 510q-30 0 -50 20t-20 50t20 50t50 20t50 -20t20 -50t-20 -50t-50 -20z" />
    <glyph glyph-name="uni04E6" unicode="&#x4e6;" horiz-adv-x="680" 
d="M340 -5q-64 0 -120.5 24.5t-98.5 68t-66.5 101.5t-24.5 126q0 67 24.5 125.5t66.5 102t98.5 68t120.5 24.5t120.5 -24.5t98.5 -68t66.5 -102t24.5 -125.5q0 -68 -24.5 -126t-66.5 -101.5t-98.5 -68t-120.5 -24.5zM340 135q34 0 64 13.5t52.5 37.5t35.5 57t13 72t-13 72
t-35.5 57t-52.5 37.5t-64 13.5t-64 -13.5t-52.5 -37.5t-35.5 -57t-13 -72t13 -72t35.5 -57t52.5 -37.5t64 -13.5zM250 690q-30 0 -50 20t-20 50t20 50t50 20t50 -20t20 -50t-20 -50t-50 -20zM435 690q-30 0 -50 20t-20 50t20 50t50 20t50 -20t20 -50t-20 -50t-50 -20z" />
    <glyph glyph-name="uni04E7" unicode="&#x4e7;" horiz-adv-x="530" 
d="M265 -10q-49 0 -91.5 18.5t-74.5 51t-50.5 76t-18.5 94.5t18.5 94.5t50.5 76t74.5 51t91.5 18.5t91.5 -18.5t74.5 -51t50.5 -76t18.5 -94.5t-18.5 -94.5t-50.5 -76t-74.5 -51t-91.5 -18.5zM265 115q42 0 71 31t29 84t-29 84t-71 31t-71 -31t-29 -84t29 -84t71 -31z
M175 510q-30 0 -50 20t-20 50t20 50t50 20t50 -20t20 -50t-20 -50t-50 -20zM360 510q-30 0 -50 20t-20 50t20 50t50 20t50 -20t20 -50t-20 -50t-50 -20z" />
    <glyph glyph-name="uni04E8" unicode="&#x4e8;" horiz-adv-x="680" 
d="M340 -5q-64 0 -120.5 24.5t-98.5 68t-66.5 101.5t-24.5 126q0 67 24.5 125.5t66.5 102t98.5 68t120.5 24.5t120.5 -24.5t98.5 -68t66.5 -102t24.5 -125.5q0 -68 -24.5 -126t-66.5 -101.5t-98.5 -68t-120.5 -24.5zM340 135q32 0 59 10.5t47.5 27.5t34 40t19.5 47h-320
q6 -24 19.5 -47t34 -40t47.5 -27.5t59 -10.5zM500 370q-6 24 -19.5 47t-34 40t-47.5 27.5t-59 10.5t-59 -10.5t-47.5 -27.5t-34 -40t-19.5 -47h320z" />
    <glyph glyph-name="uni04E9" unicode="&#x4e9;" horiz-adv-x="530" 
d="M265 -10q-49 0 -91.5 18.5t-74.5 51t-50.5 76t-18.5 94.5t18.5 94.5t50.5 76t74.5 51t91.5 18.5t91.5 -18.5t74.5 -51t50.5 -76t18.5 -94.5t-18.5 -94.5t-50.5 -76t-74.5 -51t-91.5 -18.5zM265 110q42 0 67 23t33 57h-200q8 -34 33 -57t67 -23zM365 270q-8 34 -33 57
t-67 23t-67 -23t-33 -57h200z" />
    <glyph glyph-name="uni04EA" unicode="&#x4ea;" horiz-adv-x="680" 
d="M340 -5q-64 0 -120.5 24.5t-98.5 68t-66.5 101.5t-24.5 126q0 67 24.5 125.5t66.5 102t98.5 68t120.5 24.5t120.5 -24.5t98.5 -68t66.5 -102t24.5 -125.5q0 -68 -24.5 -126t-66.5 -101.5t-98.5 -68t-120.5 -24.5zM340 135q32 0 59 10.5t47.5 27.5t34 40t19.5 47h-320
q6 -24 19.5 -47t34 -40t47.5 -27.5t59 -10.5zM500 370q-6 24 -19.5 47t-34 40t-47.5 27.5t-59 10.5t-59 -10.5t-47.5 -27.5t-34 -40t-19.5 -47h320zM250 690q-30 0 -50 20t-20 50t20 50t50 20t50 -20t20 -50t-20 -50t-50 -20zM435 690q-30 0 -50 20t-20 50t20 50t50 20
t50 -20t20 -50t-20 -50t-50 -20z" />
    <glyph glyph-name="uni04EB" unicode="&#x4eb;" horiz-adv-x="530" 
d="M265 -10q-49 0 -91.5 18.5t-74.5 51t-50.5 76t-18.5 94.5t18.5 94.5t50.5 76t74.5 51t91.5 18.5t91.5 -18.5t74.5 -51t50.5 -76t18.5 -94.5t-18.5 -94.5t-50.5 -76t-74.5 -51t-91.5 -18.5zM265 110q42 0 67 23t33 57h-200q8 -34 33 -57t67 -23zM365 270q-8 34 -33 57
t-67 23t-67 -23t-33 -57h200zM175 510q-30 0 -50 20t-20 50t20 50t50 20t50 -20t20 -50t-20 -50t-50 -20zM360 510q-30 0 -50 20t-20 50t20 50t50 20t50 -20t20 -50t-20 -50t-50 -20z" />
    <glyph glyph-name="uni04EC" unicode="&#x4ec;" horiz-adv-x="645" 
d="M305 -5q-58 0 -105.5 17.5t-83.5 46.5t-60.5 67t-35.5 79l150 10q15 -30 47 -55t88 -25q30 0 55 9.5t45 26t33.5 38.5t21.5 46h-205v120h205q-6 22 -19.5 44t-33.5 38.5t-46 27t-56 10.5q-53 0 -84 -25.5t-46 -59.5l-150 10q11 43 35 82t60 68.5t82.5 47t102.5 17.5
q64 0 120.5 -24.5t98.5 -68t66.5 -102t24.5 -125.5q0 -68 -24.5 -126t-66.5 -101.5t-98.5 -68t-120.5 -24.5zM215 690q-30 0 -50 20t-20 50t20 50t50 20t50 -20t20 -50t-20 -50t-50 -20zM400 690q-30 0 -50 20t-20 50t20 50t50 20t50 -20t20 -50t-20 -50t-50 -20z" />
    <glyph glyph-name="uni04ED" unicode="&#x4ed;" horiz-adv-x="505" 
d="M240 -10q-34 0 -61 7t-48.5 19t-37.5 27.5t-28 31.5q-27 37 -40 85l135 10q6 -16 17 -28q9 -11 24.5 -19t38.5 -8q26 0 43.5 10t28 22.5t14.5 22.5l4 10h-130v95h130q-6 19 -17 35q-10 13 -27.5 24t-45.5 11q-23 0 -38.5 -8.5t-24.5 -19.5q-11 -12 -17 -27l-135 10
q13 47 40 85q12 16 28 31t37.5 27t48.5 19.5t61 7.5q49 0 91.5 -18.5t74.5 -51t50.5 -76t18.5 -94.5t-18.5 -94.5t-50.5 -76t-74.5 -51t-91.5 -18.5zM150 510q-30 0 -50 20t-20 50t20 50t50 20t50 -20t20 -50t-20 -50t-50 -20zM335 510q-30 0 -50 20t-20 50t20 50t50 20
t50 -20t20 -50t-20 -50t-50 -20z" />
    <glyph glyph-name="uni04EE" unicode="&#x4ee;" horiz-adv-x="552" 
d="M140 -10q-26 0 -46 5q-11 2 -19 5v130q6 -2 13 -3q6 -1 14 -1.5t18 -0.5q23 0 38.5 8t26.5 19q12 12 20 28l-205 450h150l125 -280l125 280h150l-200 -450q-24 -54 -46 -90.5t-46 -58.5t-52.5 -31.5t-65.5 -9.5zM145 805h265v-105h-265v105z" />
    <glyph glyph-name="uni04EF" unicode="&#x4ef;" horiz-adv-x="490" 
d="M125 -165q-8 0 -15.5 0.5t-14.5 1.5q-8 1 -15 3v115q42 0 63 17.5t32 47.5l-175 440h145l100 -285l100 285h145l-185 -460q-35 -86 -75.5 -125.5t-104.5 -39.5zM115 625h265v-105h-265v105z" />
    <glyph glyph-name="uni04F0" unicode="&#x4f0;" horiz-adv-x="552" 
d="M140 -10q-26 0 -46 5q-11 2 -19 5v130q6 -2 13 -3q6 -1 14 -1.5t18 -0.5q23 0 38.5 8t26.5 19q12 12 20 28l-205 450h150l125 -280l125 280h150l-200 -450q-24 -54 -46 -90.5t-46 -58.5t-52.5 -31.5t-65.5 -9.5zM185 690q-30 0 -50 20t-20 50t20 50t50 20t50 -20t20 -50
t-20 -50t-50 -20zM370 690q-30 0 -50 20t-20 50t20 50t50 20t50 -20t20 -50t-20 -50t-50 -20z" />
    <glyph glyph-name="uni04F1" unicode="&#x4f1;" horiz-adv-x="490" 
d="M125 -165q-8 0 -15.5 0.5t-14.5 1.5q-8 1 -15 3v115q42 0 63 17.5t32 47.5l-175 440h145l100 -285l100 285h145l-185 -460q-35 -86 -75.5 -125.5t-104.5 -39.5zM160 510q-30 0 -50 20t-20 50t20 50t50 20t50 -20t20 -50t-20 -50t-50 -20zM345 510q-30 0 -50 20t-20 50
t20 50t50 20t50 -20t20 -50t-20 -50t-50 -20z" />
    <glyph glyph-name="uni04F2" unicode="&#x4f2;" horiz-adv-x="545" 
d="M140 -10q-26 0 -46 5q-11 2 -19 5v130q6 -2 13 -3q6 -1 14 -1.5t18 -0.5q23 0 38.5 8t26.5 19q12 12 20 28l-205 450h150l125 -280l125 280h150l-200 -450q-24 -54 -46 -90.5t-46 -58.5t-52.5 -31.5t-65.5 -9.5zM210 825h135l-100 -130h-105zM385 825h135l-100 -130h-105
z" />
    <glyph glyph-name="uni04F3" unicode="&#x4f3;" horiz-adv-x="490" 
d="M125 -165q-8 0 -15.5 0.5t-14.5 1.5q-8 1 -15 3v115q42 0 63 17.5t32 47.5l-175 440h145l100 -285l100 285h145l-185 -460q-35 -86 -75.5 -125.5t-104.5 -39.5zM171 645h135l-100 -130h-105zM346 645h135l-100 -130h-105z" />
    <glyph glyph-name="uni04F4" unicode="&#x4f4;" horiz-adv-x="615" 
d="M410 210q-18 -10 -39 -18q-18 -7 -43 -12t-53 -5q-51 0 -92.5 16t-71 45.5t-45.5 71t-16 92.5v230h145v-220q0 -105 105 -105q23 0 42.5 4.5t34.5 10.5q18 6 33 15v295h145v-630h-145v210zM215 690q-30 0 -50 20t-20 50t20 50t50 20t50 -20t20 -50t-20 -50t-50 -20z
M400 690q-30 0 -50 20t-20 50t20 50t50 20t50 -20t20 -50t-20 -50t-50 -20z" />
    <glyph glyph-name="uni04F5" unicode="&#x4f5;" horiz-adv-x="505" 
d="M320 145q-15 -8 -33 -13q-15 -5 -34.5 -8.5t-42.5 -3.5q-38 0 -69 12.5t-53.5 36t-35 57t-12.5 74.5v160h135v-140q0 -34 20 -54.5t50 -20.5q17 0 30.5 3.5t23.5 8.5q11 5 21 13v190h135v-460h-135v145zM155 510q-30 0 -50 20t-20 50t20 50t50 20t50 -20t20 -50t-20 -50
t-50 -20zM340 510q-30 0 -50 20t-20 50t20 50t50 20t50 -20t20 -50t-20 -50t-50 -20z" />
    <glyph glyph-name="uni04F6" unicode="&#x4f6;" horiz-adv-x="480" 
d="M130 0h-70v630h410v-140h-265v-350h70v-260h-145v120z" />
    <glyph glyph-name="uni04F7" unicode="&#x4f7;" horiz-adv-x="390" 
d="M110 0h-60v460h330v-130h-195v-200h60v-230h-135v100z" />
    <glyph glyph-name="uni04F8" unicode="&#x4f8;" horiz-adv-x="790" 
d="M60 630h145v-200h95q49 0 90 -16.5t71 -46t47 -68.5t17 -84t-17 -84t-47 -68.5t-71 -46t-90 -16.5h-240v630zM300 140q34 0 57 22.5t23 52.5t-23 52.5t-57 22.5h-95v-150h95zM585 630h145v-630h-145v630zM305 690q-30 0 -50 20t-20 50t20 50t50 20t50 -20t20 -50t-20 -50
t-50 -20zM490 690q-30 0 -50 20t-20 50t20 50t50 20t50 -20t20 -50t-20 -50t-50 -20z" />
    <glyph glyph-name="uni04F9" unicode="&#x4f9;" horiz-adv-x="660" 
d="M50 460h135v-140h85q36 0 66 -12.5t52 -34t34.5 -50.5t12.5 -63t-12.5 -63t-34.5 -50.5t-52 -34t-66 -12.5h-220v460zM245 110q26 0 40.5 13.5t14.5 36.5t-14.5 36.5t-40.5 13.5h-60v-100h60zM475 460h135v-460h-135v460zM235 510q-30 0 -50 20t-20 50t20 50t50 20
t50 -20t20 -50t-20 -50t-50 -20zM420 510q-30 0 -50 20t-20 50t20 50t50 20t50 -20t20 -50t-20 -50t-50 -20z" />
    <glyph glyph-name="uni04FA" unicode="&#x4fa;" horiz-adv-x="515" 
d="M155 -200q-29 0 -48 7q-10 4 -17 8v125q3 -3 7 -5q8 -5 23 -5q40 0 40 50v20h-70v235h-70v125h70v270h410v-140h-265v-130h195v-125h-195v-95h70v-160q0 -43 -11.5 -76.5t-31.5 -56.5t-47.5 -35t-59.5 -12z" />
    <glyph glyph-name="uni04FB" unicode="&#x4fb;" horiz-adv-x="405" 
d="M115 -165q-26 0 -41 5q-8 2 -14 5v115q3 -2 7 -3q8 -2 18 -2q19 0 27 10t8 25v10h-60v145h-55v105h55v210h330v-130h-195v-80h140v-105h-140v-45h60v-110q0 -75 -38 -115t-102 -40z" />
    <glyph glyph-name="uni04FC" unicode="&#x4fc;" horiz-adv-x="580" 
d="M400 -200q-21 0 -36 2t-25 5q-11 4 -19 8v125q5 -3 11 -5q12 -5 29 -5q26 0 40.5 13t14.5 32q0 15 -4.5 30.5t-15.5 34.5l-105 175l-130 -215h-160l200 320l-190 310h160l120 -205l120 205h160l-190 -310l135 -215q26 -42 38 -75t12 -75q0 -32 -12.5 -60t-34.5 -49
t-52 -33.5t-66 -12.5z" />
    <glyph glyph-name="uni04FD" unicode="&#x4fd;" horiz-adv-x="460" 
d="M315 -165q-17 0 -30 2t-22 5q-11 4 -18 8v110q3 -2 7 -3q10 -2 23 -2q15 0 25 7.5t10 22.5q0 21 -20 55l-60 100l-85 -140h-150l150 235l-140 225h150l75 -130l75 130h150l-140 -225l90 -140q26 -41 38 -71t12 -64q0 -26 -10 -49t-28 -40t-44 -26.5t-58 -9.5z" />
    <glyph glyph-name="uni04FE" unicode="&#x4fe;" horiz-adv-x="580" 
d="M160 260h-110v125h110l-150 245h160l120 -205l120 205h160l-150 -245h110v-125h-110l160 -260h-160l-130 215l-130 -215h-160z" />
    <glyph glyph-name="uni04FF" unicode="&#x4ff;" horiz-adv-x="460" 
d="M115 185h-85v100h85l-110 175h150l75 -130l75 130h150l-110 -175h85v-100h-85l120 -185h-150l-85 140l-85 -140h-150z" />
    <glyph glyph-name="uni0510" unicode="&#x510;" horiz-adv-x="525" 
d="M260 -5q-54 0 -97 15t-72.5 39.5t-45 57t-15.5 68.5q0 43 15.5 73t34.5 48q22 21 50 34q-25 13 -43 31q-16 16 -29 40.5t-13 58.5t15.5 65.5t44 56t69 39t91.5 14.5q52 0 94 -15t71.5 -40.5t46 -60.5t18.5 -74l-145 -10q-4 30 -25 50t-55 20q-38 0 -59 -19.5t-21 -45.5
t19 -43t61 -17h60v-120h-65q-42 0 -63.5 -19.5t-21.5 -45.5q0 -30 21.5 -50t63.5 -20q38 0 62.5 22.5t32.5 52.5l145 -10q-4 -41 -21.5 -77t-48.5 -62t-75 -41t-100 -15z" />
    <glyph glyph-name="uni0511" unicode="&#x511;" horiz-adv-x="440" 
d="M220 -10q-45 0 -80.5 12t-59.5 32.5t-37 46.5t-13 54q0 26 10.5 45t24.5 31q15 14 35 24q-17 7 -30 19q-11 11 -20.5 29t-9.5 47q0 26 12.5 51.5t36 45t57 31.5t74.5 12q90 0 135 -39t60 -106l-125 -10q-4 19 -19 32t-41 13q-23 0 -36.5 -12.5t-13.5 -27.5t13.5 -27.5
t36.5 -12.5h45v-95h-45q-30 0 -45 -12.5t-15 -27.5q0 -19 15 -32t45 -13q26 0 43.5 16t21.5 39q35 -3 62 -5q23 -2 42.5 -3.5t20.5 -1.5q-4 -32 -18.5 -60t-40 -49t-61 -33.5t-80.5 -12.5z" />
    <glyph glyph-name="uni0512" unicode="&#x512;" horiz-adv-x="645" 
d="M415 -200q-21 0 -36 2t-25 5q-11 4 -19 8v125q4 -3 11 -5q12 -5 34 -5q26 0 43 17.5t17 47.5v495h-170l-25 -300q-8 -94 -57 -144.5t-128 -50.5q-12 0 -23 0.5t-19 1.5q-10 1 -18 3v125h20q34 0 57.5 25t27.5 70l35 410h445v-635q0 -94 -47.5 -144.5t-122.5 -50.5z" />
    <glyph glyph-name="uni0513" unicode="&#x513;" horiz-adv-x="510" 
d="M295 -165q-26 0 -46 5q-11 2 -19 5v120q5 -2 10 -3t11 -1.5t14 -0.5q26 0 43 17.5t17 47.5v305h-105l-15 -180q-6 -75 -48 -115t-117 -40q-10 0 -17 0.5t-12 1.5q-6 1 -11 3v115h15q30 0 43 13.5t17 51.5l25 280h360v-455q0 -83 -43 -126.5t-122 -43.5z" />
    <glyph glyph-name="Wgrave" unicode="&#x1e80;" horiz-adv-x="860" 
d="M5 630h140l120 -390l120 390h90l120 -390l120 390h140l-200 -630h-110l-115 370l-115 -370h-110zM280 825h135l65 -130h-105z" />
    <glyph glyph-name="wgrave" unicode="&#x1e81;" horiz-adv-x="700" 
d="M0 460h140l80 -270l85 270h90l85 -270l80 270h140l-155 -460h-115l-80 255l-80 -255h-115zM200 645h135l65 -130h-105z" />
    <glyph glyph-name="Wacute" unicode="&#x1e82;" horiz-adv-x="860" 
d="M5 630h140l120 -390l120 390h90l120 -390l120 390h140l-200 -630h-110l-115 370l-115 -370h-110zM440 825h135l-95 -130h-105z" />
    <glyph glyph-name="wacute" unicode="&#x1e83;" horiz-adv-x="700" 
d="M0 460h140l80 -270l85 270h90l85 -270l80 270h140l-155 -460h-115l-80 255l-80 -255h-115zM365 645h135l-95 -130h-105z" />
    <glyph glyph-name="Wdieresis" unicode="&#x1e84;" horiz-adv-x="860" 
d="M5 630h140l120 -390l120 390h90l120 -390l120 390h140l-200 -630h-110l-115 370l-115 -370h-110zM335 690q-30 0 -50 20t-20 50t20 50t50 20t50 -20t20 -50t-20 -50t-50 -20zM520 690q-30 0 -50 20t-20 50t20 50t50 20t50 -20t20 -50t-20 -50t-50 -20z" />
    <glyph glyph-name="wdieresis" unicode="&#x1e85;" horiz-adv-x="700" 
d="M0 460h140l80 -270l85 270h90l85 -270l80 270h140l-155 -460h-115l-80 255l-80 -255h-115zM260 510q-30 0 -50 20t-20 50t20 50t50 20t50 -20t20 -50t-20 -50t-50 -20zM445 510q-30 0 -50 20t-20 50t20 50t50 20t50 -20t20 -50t-20 -50t-50 -20z" />
    <glyph glyph-name="uni1E9E" unicode="&#x1e9e;" horiz-adv-x="635" 
d="M60 420q0 45 16 83.5t45.5 66.5t71 44t92.5 16h275v-130l-105 -130q40 -9 72 -32q27 -20 50 -55t23 -93q0 -41 -14.5 -76t-41.5 -60.5t-65 -39.5t-86 -14h-83v130h70q26 0 45.5 20t19.5 50t-19.5 50t-45.5 20h-70v95l100 125h-125q-30 0 -50 -20t-20 -50v-420h-155v420z
" />
    <glyph glyph-name="uni1EA0" unicode="&#x1ea0;" horiz-adv-x="590" 
d="M220 630h150l225 -630h-150l-40 120h-220l-40 -120h-150zM365 245l-70 210l-70 -210h140zM295 -205q-30 0 -52.5 22.5t-22.5 52.5t22.5 52.5t52.5 22.5t52.5 -22.5t22.5 -52.5t-22.5 -52.5t-52.5 -22.5z" />
    <glyph glyph-name="uni1EA1" unicode="&#x1ea1;" horiz-adv-x="485" 
d="M185 -5q-75 0 -115 36.5t-40 93.5q0 34 13.5 62.5t45.5 49t84.5 32t131.5 11.5q0 34 -17 52t-43 18q-19 0 -30.5 -7.5t-18.5 -15.5q-8 -10 -11 -22l-135 10q6 34 21 62.5t39.5 49t59.5 32t80 11.5q41 0 76 -14t60.5 -39.5t39.5 -60.5t14 -76v-280h-100l-20 45
q-17 -14 -38 -25q-18 -10 -42.5 -17.5t-54.5 -7.5zM220 95q38 0 61.5 23.5t23.5 61.5v20q-43 0 -70.5 -4.5t-43 -12.5t-21 -19t-5.5 -24q0 -19 14.5 -32t40.5 -13zM235 -205q-30 0 -52.5 22.5t-22.5 52.5t22.5 52.5t52.5 22.5t52.5 -22.5t22.5 -52.5t-22.5 -52.5
t-52.5 -22.5z" />
    <glyph glyph-name="uni1EA2" unicode="&#x1ea2;" horiz-adv-x="590" 
d="M220 630h150l225 -630h-150l-40 120h-220l-40 -120h-150zM365 245l-70 210l-70 -210h140zM255 690q7 9 12 19q5 8 9 19t4 22q0 19 -13.5 32t-36.5 13q-6 0 -10.5 -1t-7.5 -2q-4 -1 -7 -2v65q6 2 14 5q7 2 17 3.5t24 1.5q53 0 81.5 -26t28.5 -64q0 -21 -6 -36.5t-14 -26.5
q-9 -12 -20 -22h-75v0z" />
    <glyph glyph-name="uni1EA3" unicode="&#x1ea3;" horiz-adv-x="485" 
d="M185 -5q-75 0 -115 36.5t-40 93.5q0 34 13.5 62.5t45.5 49t84.5 32t131.5 11.5q0 34 -17 52t-43 18q-19 0 -30.5 -7.5t-18.5 -15.5q-8 -10 -11 -22l-135 10q6 34 21 62.5t39.5 49t59.5 32t80 11.5q41 0 76 -14t60.5 -39.5t39.5 -60.5t14 -76v-280h-100l-20 45
q-17 -14 -38 -25q-18 -10 -42.5 -17.5t-54.5 -7.5zM220 95q38 0 61.5 23.5t23.5 61.5v20q-43 0 -70.5 -4.5t-43 -12.5t-21 -19t-5.5 -24q0 -19 14.5 -32t40.5 -13zM215 510q7 9 12 19q5 8 9 19t4 22q0 19 -13.5 32t-36.5 13q-6 0 -10.5 -1t-7.5 -2q-4 -1 -7 -2v65q6 2 14 5
q7 2 17 3.5t24 1.5q53 0 81.5 -26t28.5 -64q0 -21 -6 -36.5t-14 -26.5q-9 -12 -20 -22h-75v0z" />
    <glyph glyph-name="uni1EA4" unicode="&#x1ea4;" horiz-adv-x="590" 
d="M220 630h150l225 -630h-150l-40 120h-220l-40 -120h-150zM365 245l-70 210l-70 -210h140zM235 825h120l85 -130h-115l-30 60l-30 -60h-115zM470 885h125l-90 -110h-95z" />
    <glyph glyph-name="uni1EA5" unicode="&#x1ea5;" horiz-adv-x="485" 
d="M185 -5q-75 0 -115 36.5t-40 93.5q0 34 13.5 62.5t45.5 49t84.5 32t131.5 11.5q0 34 -17 52t-43 18q-19 0 -30.5 -7.5t-18.5 -15.5q-8 -10 -11 -22l-135 10q6 34 21 62.5t39.5 49t59.5 32t80 11.5q41 0 76 -14t60.5 -39.5t39.5 -60.5t14 -76v-280h-100l-20 45
q-17 -14 -38 -25q-18 -10 -42.5 -17.5t-54.5 -7.5zM220 95q38 0 61.5 23.5t23.5 61.5v20q-43 0 -70.5 -4.5t-43 -12.5t-21 -19t-5.5 -24q0 -19 14.5 -32t40.5 -13zM195 650h120l85 -130h-115l-30 60l-30 -60h-115zM430 710h125l-90 -110h-95z" />
    <glyph glyph-name="uni1EA6" unicode="&#x1ea6;" horiz-adv-x="590" 
d="M220 630h150l225 -630h-150l-40 120h-220l-40 -120h-150zM365 245l-70 210l-70 -210h140zM235 825h120l85 -130h-115l-30 60l-30 -60h-115zM350 885h125l60 -110h-95z" />
    <glyph glyph-name="uni1EA7" unicode="&#x1ea7;" horiz-adv-x="485" 
d="M185 -5q-75 0 -115 36.5t-40 93.5q0 34 13.5 62.5t45.5 49t84.5 32t131.5 11.5q0 34 -17 52t-43 18q-19 0 -30.5 -7.5t-18.5 -15.5q-8 -10 -11 -22l-135 10q6 34 21 62.5t39.5 49t59.5 32t80 11.5q41 0 76 -14t60.5 -39.5t39.5 -60.5t14 -76v-280h-100l-20 45
q-17 -14 -38 -25q-18 -10 -42.5 -17.5t-54.5 -7.5zM220 95q38 0 61.5 23.5t23.5 61.5v20q-43 0 -70.5 -4.5t-43 -12.5t-21 -19t-5.5 -24q0 -19 14.5 -32t40.5 -13zM195 650h120l85 -130h-115l-30 60l-30 -60h-115zM310 710h125l60 -110h-95z" />
    <glyph glyph-name="uni1EA8" unicode="&#x1ea8;" horiz-adv-x="590" 
d="M220 630h150l225 -630h-150l-40 120h-220l-40 -120h-150zM365 245l-70 210l-70 -210h140zM235 825h120l85 -130h-115l-30 60l-30 -60h-115zM410 775q7 9 12 19q5 8 9 19t4 22q0 15 -10.5 25t-29.5 10q-6 0 -10.5 -1t-7.5 -2q-4 -1 -7 -2v65q6 2 14 5q7 2 17 3.5t24 1.5
q49 0 74.5 -23t25.5 -57q0 -21 -6 -36.5t-14 -26.5q-9 -12 -20 -22h-75z" />
    <glyph glyph-name="uni1EA9" unicode="&#x1ea9;" horiz-adv-x="485" 
d="M185 -5q-75 0 -115 36.5t-40 93.5q0 34 13.5 62.5t45.5 49t84.5 32t131.5 11.5q0 34 -17 52t-43 18q-19 0 -30.5 -7.5t-18.5 -15.5q-8 -10 -11 -22l-135 10q6 34 21 62.5t39.5 49t59.5 32t80 11.5q41 0 76 -14t60.5 -39.5t39.5 -60.5t14 -76v-280h-100l-20 45
q-17 -14 -38 -25q-18 -10 -42.5 -17.5t-54.5 -7.5zM220 95q38 0 61.5 23.5t23.5 61.5v20q-43 0 -70.5 -4.5t-43 -12.5t-21 -19t-5.5 -24q0 -19 14.5 -32t40.5 -13zM195 650h120l85 -130h-115l-30 60l-30 -60h-115zM370 600q7 9 12 19q5 8 9 19t4 22q0 15 -10.5 25t-29.5 10
q-6 0 -10.5 -1t-7.5 -2q-4 -1 -7 -2v65q6 2 14 5q7 2 17 3.5t24 1.5q49 0 74.5 -23t25.5 -57q0 -21 -6 -36.5t-14 -26.5q-9 -12 -20 -22h-75z" />
    <glyph glyph-name="uni1EAA" unicode="&#x1eaa;" horiz-adv-x="590" 
d="M220 630h150l225 -630h-150l-40 120h-220l-40 -120h-150zM365 245l-70 210l-70 -210h140zM235 815h120l85 -120h-115l-30 50l-30 -50h-115zM150 845q0 60 24 87.5t66 27.5q19 0 34 -6.5t28.5 -14t25 -13.5t22.5 -6t18 8.5t7 31.5l75 -10q0 -60 -24 -87.5t-66 -27.5
q-19 0 -34 6t-28.5 13.5t-25 14t-22.5 6.5t-18 -8.5t-7 -31.5z" />
    <glyph glyph-name="uni1EAB" unicode="&#x1eab;" horiz-adv-x="485" 
d="M185 -5q-75 0 -115 36.5t-40 93.5q0 34 13.5 62.5t45.5 49t84.5 32t131.5 11.5q0 34 -17 52t-43 18q-19 0 -30.5 -7.5t-18.5 -15.5q-8 -10 -11 -22l-135 10q6 34 21 62.5t39.5 49t59.5 32t80 11.5q41 0 76 -14t60.5 -39.5t39.5 -60.5t14 -76v-280h-100l-20 45
q-17 -14 -38 -25q-18 -10 -42.5 -17.5t-54.5 -7.5zM220 95q38 0 61.5 23.5t23.5 61.5v20q-43 0 -70.5 -4.5t-43 -12.5t-21 -19t-5.5 -24q0 -19 14.5 -32t40.5 -13zM195 640h120l85 -120h-115l-30 50l-30 -50h-115zM110 670q0 60 24 87.5t66 27.5q19 0 34 -6.5t28.5 -14
t25 -13.5t22.5 -6t18 8.5t7 31.5l75 -10q0 -60 -24 -87.5t-66 -27.5q-19 0 -34 6t-28.5 13.5t-25 14t-22.5 6.5t-18 -8.5t-7 -31.5z" />
    <glyph glyph-name="uni1EAC" unicode="&#x1eac;" horiz-adv-x="590" 
d="M235 825h120l100 -130h-115l-45 60l-45 -60h-115zM220 630h150l225 -630h-150l-40 120h-220l-40 -120h-150zM365 245l-70 210l-70 -210h140zM295 -205q-30 0 -52.5 22.5t-22.5 52.5t22.5 52.5t52.5 22.5t52.5 -22.5t22.5 -52.5t-22.5 -52.5t-52.5 -22.5z" />
    <glyph glyph-name="uni1EAD" unicode="&#x1ead;" horiz-adv-x="485" 
d="M195 650h120l100 -130h-115l-45 60l-45 -60h-115zM185 -5q-75 0 -115 36.5t-40 93.5q0 34 13.5 62.5t45.5 49t84.5 32t131.5 11.5q0 34 -17 52t-43 18q-19 0 -30.5 -7.5t-18.5 -15.5q-8 -10 -11 -22l-135 10q6 34 21 62.5t39.5 49t59.5 32t80 11.5q41 0 76 -14
t60.5 -39.5t39.5 -60.5t14 -76v-280h-100l-20 45q-17 -14 -38 -25q-18 -10 -42.5 -17.5t-54.5 -7.5zM220 95q38 0 61.5 23.5t23.5 61.5v20q-43 0 -70.5 -4.5t-43 -12.5t-21 -19t-5.5 -24q0 -19 14.5 -32t40.5 -13zM235 -205q-30 0 -52.5 22.5t-22.5 52.5t22.5 52.5
t52.5 22.5t52.5 -22.5t22.5 -52.5t-22.5 -52.5t-52.5 -22.5z" />
    <glyph glyph-name="uni1EAE" unicode="&#x1eae;" horiz-adv-x="590" 
d="M220 630h150l225 -630h-150l-40 120h-220l-40 -120h-150zM365 245l-70 210l-70 -210h140zM295 690q-30 0 -55 10t-44 27t-30.5 41t-15.5 52h85q4 -26 20.5 -43t39.5 -17t39.5 17t20.5 43h85q-8 -56 -46.5 -93t-98.5 -37zM295 915h115l-80 -110h-85z" />
    <glyph glyph-name="uni1EAF" unicode="&#x1eaf;" horiz-adv-x="485" 
d="M185 -5q-75 0 -115 36.5t-40 93.5q0 34 13.5 62.5t45.5 49t84.5 32t131.5 11.5q0 34 -17 52t-43 18q-19 0 -30.5 -7.5t-18.5 -15.5q-8 -10 -11 -22l-135 10q6 34 21 62.5t39.5 49t59.5 32t80 11.5q41 0 76 -14t60.5 -39.5t39.5 -60.5t14 -76v-280h-100l-20 45
q-17 -14 -38 -25q-18 -10 -42.5 -17.5t-54.5 -7.5zM220 95q38 0 61.5 23.5t23.5 61.5v20q-43 0 -70.5 -4.5t-43 -12.5t-21 -19t-5.5 -24q0 -19 14.5 -32t40.5 -13zM255 510q-30 0 -55 10t-44 27t-30.5 41t-15.5 52h85q4 -26 20.5 -43t39.5 -17t39.5 17t20.5 43h85
q-8 -56 -46.5 -93t-98.5 -37zM255 735h115l-80 -110h-85z" />
    <glyph glyph-name="uni1EB0" unicode="&#x1eb0;" horiz-adv-x="590" 
d="M220 630h150l225 -630h-150l-40 120h-220l-40 -120h-150zM365 245l-70 210l-70 -210h140zM295 690q-30 0 -55 10t-44 27t-30.5 41t-15.5 52h85q4 -26 20.5 -43t39.5 -17t39.5 17t20.5 43h85q-8 -56 -46.5 -93t-98.5 -37zM180 915h115l50 -110h-85z" />
    <glyph glyph-name="uni1EB1" unicode="&#x1eb1;" horiz-adv-x="485" 
d="M185 -5q-75 0 -115 36.5t-40 93.5q0 34 13.5 62.5t45.5 49t84.5 32t131.5 11.5q0 34 -17 52t-43 18q-19 0 -30.5 -7.5t-18.5 -15.5q-8 -10 -11 -22l-135 10q6 34 21 62.5t39.5 49t59.5 32t80 11.5q41 0 76 -14t60.5 -39.5t39.5 -60.5t14 -76v-280h-100l-20 45
q-17 -14 -38 -25q-18 -10 -42.5 -17.5t-54.5 -7.5zM220 95q38 0 61.5 23.5t23.5 61.5v20q-43 0 -70.5 -4.5t-43 -12.5t-21 -19t-5.5 -24q0 -19 14.5 -32t40.5 -13zM255 510q-30 0 -55 10t-44 27t-30.5 41t-15.5 52h85q4 -26 20.5 -43t39.5 -17t39.5 17t20.5 43h85
q-8 -56 -46.5 -93t-98.5 -37zM140 735h115l50 -110h-85z" />
    <glyph glyph-name="uni1EB2" unicode="&#x1eb2;" horiz-adv-x="590" 
d="M220 630h150l225 -630h-150l-40 120h-220l-40 -120h-150zM365 245l-70 210l-70 -210h140zM295 690q-30 0 -55 10t-44 27t-30.5 41t-15.5 52h85q4 -26 20.5 -43t39.5 -17t39.5 17t20.5 43h85q-8 -56 -46.5 -93t-98.5 -37zM250 805q7 9 12 19q5 8 9 19t4 22q0 15 -10.5 25
t-29.5 10q-6 0 -10.5 -1t-7.5 -2q-4 -1 -7 -2v65q6 2 14 5q7 2 17 3.5t24 1.5q49 0 74.5 -23t25.5 -57q0 -21 -6 -36.5t-14 -26.5q-9 -12 -20 -22h-75z" />
    <glyph glyph-name="uni1EB3" unicode="&#x1eb3;" horiz-adv-x="485" 
d="M185 -5q-75 0 -115 36.5t-40 93.5q0 34 13.5 62.5t45.5 49t84.5 32t131.5 11.5q0 34 -17 52t-43 18q-19 0 -30.5 -7.5t-18.5 -15.5q-8 -10 -11 -22l-135 10q6 34 21 62.5t39.5 49t59.5 32t80 11.5q41 0 76 -14t60.5 -39.5t39.5 -60.5t14 -76v-280h-100l-20 45
q-17 -14 -38 -25q-18 -10 -42.5 -17.5t-54.5 -7.5zM220 95q38 0 61.5 23.5t23.5 61.5v20q-43 0 -70.5 -4.5t-43 -12.5t-21 -19t-5.5 -24q0 -19 14.5 -32t40.5 -13zM255 510q-30 0 -55 10t-44 27t-30.5 41t-15.5 52h85q4 -26 20.5 -43t39.5 -17t39.5 17t20.5 43h85
q-8 -56 -46.5 -93t-98.5 -37zM210 625q7 9 12 19q5 8 9 19t4 22q0 15 -10.5 25t-29.5 10q-6 0 -10.5 -1t-7.5 -2q-4 -1 -7 -2v65q6 2 14 5q7 2 17 3.5t24 1.5q49 0 74.5 -23t25.5 -57q0 -21 -6 -36.5t-14 -26.5q-9 -12 -20 -22h-75z" />
    <glyph glyph-name="uni1EB4" unicode="&#x1eb4;" horiz-adv-x="590" 
d="M220 630h150l225 -630h-150l-40 120h-220l-40 -120h-150zM365 245l-70 210l-70 -210h140zM295 690q-30 0 -55 10t-44 27t-30.5 41t-15.5 52h85q4 -26 20.5 -43t39.5 -17t39.5 17t20.5 43h85q-8 -56 -46.5 -93t-98.5 -37zM150 850q0 60 24 87.5t66 27.5q19 0 34 -6.5
t28.5 -14t25 -13.5t22.5 -6t18 8.5t7 31.5l75 -10q0 -60 -24 -87.5t-66 -27.5q-19 0 -34 6t-28.5 13.5t-25 14t-22.5 6.5t-18 -8.5t-7 -31.5z" />
    <glyph glyph-name="uni1EB5" unicode="&#x1eb5;" horiz-adv-x="485" 
d="M185 -5q-75 0 -115 36.5t-40 93.5q0 34 13.5 62.5t45.5 49t84.5 32t131.5 11.5q0 34 -17 52t-43 18q-19 0 -30.5 -7.5t-18.5 -15.5q-8 -10 -11 -22l-135 10q6 34 21 62.5t39.5 49t59.5 32t80 11.5q41 0 76 -14t60.5 -39.5t39.5 -60.5t14 -76v-280h-100l-20 45
q-17 -14 -38 -25q-18 -10 -42.5 -17.5t-54.5 -7.5zM220 95q38 0 61.5 23.5t23.5 61.5v20q-43 0 -70.5 -4.5t-43 -12.5t-21 -19t-5.5 -24q0 -19 14.5 -32t40.5 -13zM255 510q-30 0 -55 10t-44 27t-30.5 41t-15.5 52h85q4 -26 20.5 -43t39.5 -17t39.5 17t20.5 43h85
q-8 -56 -46.5 -93t-98.5 -37zM110 670q0 60 24 87.5t66 27.5q19 0 34 -6.5t28.5 -14t25 -13.5t22.5 -6t18 8.5t7 31.5l75 -10q0 -60 -24 -87.5t-66 -27.5q-19 0 -34 6t-28.5 13.5t-25 14t-22.5 6.5t-18 -8.5t-7 -31.5z" />
    <glyph glyph-name="uni1EB6" unicode="&#x1eb6;" horiz-adv-x="590" 
d="M295 690q-30 0 -55 10t-44 27t-30.5 41t-15.5 52h95q4 -23 17.5 -36.5t32.5 -13.5t32.5 13.5t17.5 36.5h95q-8 -56 -46.5 -93t-98.5 -37zM220 630h150l225 -630h-150l-40 120h-220l-40 -120h-150zM365 245l-70 210l-70 -210h140zM295 -205q-30 0 -52.5 22.5t-22.5 52.5
t22.5 52.5t52.5 22.5t52.5 -22.5t22.5 -52.5t-22.5 -52.5t-52.5 -22.5z" />
    <glyph glyph-name="uni1EB7" unicode="&#x1eb7;" horiz-adv-x="485" 
d="M255 510q-30 0 -55 10t-44 27t-30.5 41t-15.5 52h95q4 -23 17.5 -36.5t32.5 -13.5t32.5 13.5t17.5 36.5h95q-8 -56 -46.5 -93t-98.5 -37zM185 -5q-75 0 -115 36.5t-40 93.5q0 34 13.5 62.5t45.5 49t84.5 32t131.5 11.5q0 34 -17 52t-43 18q-19 0 -30.5 -7.5t-18.5 -15.5
q-8 -10 -11 -22l-135 10q6 34 21 62.5t39.5 49t59.5 32t80 11.5q41 0 76 -14t60.5 -39.5t39.5 -60.5t14 -76v-280h-100l-20 45q-17 -14 -38 -25q-18 -10 -42.5 -17.5t-54.5 -7.5zM220 95q38 0 61.5 23.5t23.5 61.5v20q-43 0 -70.5 -4.5t-43 -12.5t-21 -19t-5.5 -24
q0 -19 14.5 -32t40.5 -13zM235 -205q-30 0 -52.5 22.5t-22.5 52.5t22.5 52.5t52.5 22.5t52.5 -22.5t22.5 -52.5t-22.5 -52.5t-52.5 -22.5z" />
    <glyph glyph-name="uni1EB8" unicode="&#x1eb8;" horiz-adv-x="560" 
d="M60 630h450v-140h-305v-100h280v-140h-280v-110h315v-140h-460v630zM290 -205q-30 0 -52.5 22.5t-22.5 52.5t22.5 52.5t52.5 22.5t52.5 -22.5t22.5 -52.5t-22.5 -52.5t-52.5 -22.5z" />
    </font>
</defs>
</svg>
